<?xml version="1.0" encoding="utf-8"?>
<!-- Generator: Adobe Illustrator 18.0.0, SVG Export Plug-In . SVG Version: 6.00 Build 0)  -->
<!DOCTYPE svg PUBLIC "-//W3C//DTD SVG 1.1//EN" "http://www.w3.org/Graphics/SVG/1.1/DTD/svg11.dtd">
<svg version="1.1" id="Layer_1" xmlns="http://www.w3.org/2000/svg" xmlns:xlink="http://www.w3.org/1999/xlink" x="0px" y="0px"
	 viewBox="0 0 116.88 46.8" style="enable-background:new 0 0 116.88 46.8;" xml:space="preserve">
<style type="text/css">
	.st0{fill:#62C3B0;}
	.st1{fill:#EF5126;}
	.st2{fill:#B271A2;}
	.st3{fill:#FDC255;}
	.st4{fill:#53BFD5;}
	.st5{fill:#6F6F6F;}
	.st6{fill:#FFFFFF;}
	.st7{fill:#4BCBB5;}
</style>
<g id="Zep3so_1_">
	<g>
		<path class="st0" d="M70.8,46.8c-1.68,0-3.36,0-5.04,0c-0.348-0.08-0.693-0.183-1.045-0.237
			c-5.289-0.807-9.835-3.141-13.455-7.029c-5.219-5.605-7.271-12.312-6.094-19.898c1.511-9.739,8.945-17.348,18.622-19.226
			C64.294,0.313,64.783,0.139,65.28,0c1.92,0,3.84,0,5.76,0c0.658,0.152,1.313,0.318,1.973,0.455
			C85.13,2.978,92.95,14.437,91.49,26.146c-1.22,9.778-8.029,17.552-17.538,19.975C72.911,46.386,71.851,46.575,70.8,46.8z
			 M57.856,23.446c0.018,5.695,4.719,10.376,10.417,10.372c5.729-0.004,10.481-4.716,10.381-10.525
			c-0.104-5.984-4.817-10.316-10.474-10.305C62.463,13,57.838,17.713,57.856,23.446z"/>
		<path class="st0" d="M25.92,0c0.779,0.163,1.558,0.327,2.337,0.489c3.711,0.773,7.028,2.371,9.952,4.777
			c0.549,0.452,1.045,0.969,1.526,1.419c-0.4,0.934-7.344,8.056-9.004,9.266c-3.007-2.618-6.495-3.719-10.465-2.473
			c-2.232,0.701-4.056,2.018-5.405,3.973c-2.763,4.005-2.51,9.058,0.766,12.86c1.95,2.264,4.5,3.403,7.489,3.503
			c2.944,0.098,5.422-1.087,7.465-2.852c3.121,3.032,6.142,5.967,9.312,9.047c-0.839,0.736-1.598,1.483-2.438,2.124
			c-3.046,2.325-6.498,3.729-10.257,4.407c-0.35,0.063-0.692,0.173-1.037,0.261c-1.84,0-3.68,0-5.52,0
			c-0.384-0.096-0.764-0.215-1.152-0.285C9.548,44.724,2.203,37.45,0.343,27.551C0.24,27.005,0.115,26.463,0,25.92
			c0-1.76,0-3.52,0-5.28c0.13-0.541,0.27-1.079,0.388-1.622C2.297,10.24,7.433,4.26,15.906,1.23C17.435,0.683,19.06,0.403,20.64,0
			C22.4,0,24.16,0,25.92,0z"/>
		<path class="st0" d="M116.88,39.6c-0.527,1.156-0.881,2.439-1.614,3.444c-2.132,2.925-5.136,4.004-8.654,3.369
			c-3.657-0.661-6.017-2.886-6.864-6.52c-0.954-4.095,1.614-8.289,5.794-9.669c4.515-1.491,9.242,0.796,10.908,5.271
			c0.125,0.335,0.286,0.657,0.43,0.985C116.88,37.52,116.88,38.56,116.88,39.6z"/>
		<path class="st0" d="M116.88,11.52c-0.17,0.403-0.351,0.802-0.509,1.21c-1.476,3.817-4.833,5.855-9.122,5.532
			c-3.625-0.273-6.79-3.088-7.529-6.695c-0.75-3.662,1.21-7.445,4.654-9.143c5.033-2.482,10.822,0.363,12.174,5.08
			c0.088,0.305,0.22,0.598,0.332,0.896C116.88,9.44,116.88,10.48,116.88,11.52z"/>
	</g>
</g>
</svg>
