<?xml version="1.0" encoding="utf-8"?>
<!-- Generator: Adobe Illustrator 18.0.0, SVG Export Plug-In . SVG Version: 6.00 Build 0)  -->
<!DOCTYPE svg PUBLIC "-//W3C//DTD SVG 1.1//EN" "http://www.w3.org/Graphics/SVG/1.1/DTD/svg11.dtd">
<svg version="1.1" id="Layer_1" xmlns="http://www.w3.org/2000/svg" xmlns:xlink="http://www.w3.org/1999/xlink" x="0px" y="0px"
	 viewBox="0 0 212.837 27.902" style="enable-background:new 0 0 212.837 27.902;" xml:space="preserve">
<style type="text/css">
	.st0{fill:#62C3B0;}
	.st1{fill:#EF5126;}
	.st2{fill:#B271A2;}
	.st3{fill:#FDC255;}
	.st4{fill:#53BFD5;}
	.st5{fill:#6F6F6F;}
	.st6{fill:#FFFFFF;}
	.st7{fill:#4BCBB5;}
</style>
<g>
	<g>
		<path d="M138.084,27.264c-1.184,0-2.214,0-3.283,0c-2.203-6.707-4.395-13.379-6.586-20.052c-0.064,0.006-0.127,0.012-0.191,0.018
			c0,6.653,0,13.306,0,20.021c-1.293,0-2.454,0-3.676,0c0-8.51,0-16.98,0-25.501c1.839,0,3.617,0,5.481,0
			c2.169,6.744,4.339,13.489,6.509,20.235c0.071,0.001,0.143,0.003,0.214,0.004c2.167-6.743,4.335-13.485,6.508-20.245
			c1.85,0,3.629,0,5.483,0c0,8.51,0,16.976,0,25.571c-0.642,0-1.239,0-1.837,0c-0.565,0-1.129,0-1.798,0c0-6.715,0-13.325,0-19.935
			c-0.09-0.018-0.179-0.036-0.269-0.055C142.457,13.965,140.275,20.603,138.084,27.264z"/>
		<path d="M194.706,20.534c0-6.223,0-12.446,0-18.751c1.23,0,2.399,0,3.646,0c0,8.476,0,16.944,0,25.472c-1.272,0-2.489,0-3.821,0
			c-3.883-6.457-7.798-12.968-11.713-19.48c-0.07,0.02-0.139,0.039-0.209,0.059c0,6.457,0,12.914,0,19.426c-1.244,0-2.385,0-3.611,0
			c0-8.484,0-16.951,0-25.489c1.381,0,2.741,0,4.192,0c3.748,6.239,7.52,12.517,11.292,18.795
			C194.556,20.555,194.631,20.545,194.706,20.534z"/>
		<path d="M52.031,1.682c0,0,7.403,0,12.179,0c3.063,0,5.487,1.819,6.277,4.164c0.797,2.366-0.042,5.451-2.619,6.942
			c-0.093,0.054-0.176,0.123-0.321,0.225c2.205,1.276,3.507,3.061,3.999,5.404c0.894,4.259-2.54,8.716-7.077,8.874
			c-4.048,0.141-12.438,0-12.438,0V1.682z M55.74,24.53c0,0,5.155,0.022,7.44,0c0.404-0.004,0.822-0.095,1.207-0.214
			c2.286-0.706,3.657-3.003,3.283-5.462c-0.403-2.649-2.119-4.241-4.729-4.29c-2.172-0.041-7.201,0-7.201,0V24.53z M55.719,11.95
			c0,0,3.886,0,7.977,0c2.151,0,3.422-1.793,3.289-4.001c-0.128-2.116-1.48-3.415-3.635-3.436c-2.287-0.023-7.631,0-7.631,0V11.95z"
			/>
		<path d="M99.779,1.702c1.173,0,2.276-0.001,3.379,0c2.827,0.004,5.655-0.037,8.481,0.026c5.361,0.119,8.879,6.141,6.15,10.739
			c-0.871,1.467-2.73,3.128-5.403,3.071l8.361,11.725h-4.265l-8.361-11.502c0,0-2.388,0-4.692,0c0,3.831,0,7.608,0,11.469
			c-1.253,0-2.41,0-3.649,0C99.779,18.777,99.779,10.318,99.779,1.702z M103.488,4.515c0,2.844,0,5.574,0,8.354
			c2.686,0,5.295,0.068,7.897-0.045c0.712-0.031,1.523-0.467,2.076-0.957c1.822-1.612,1.741-4.954-0.142-6.501
			c-0.52-0.427-1.263-0.79-1.916-0.813C108.798,4.461,106.188,4.515,103.488,4.515z"/>
		<path d="M0,1.598c3.828,0.108,7.597-0.012,11.312,0.38c3.992,0.421,6.347,3.055,7.338,6.849c0.984,3.769,0.948,7.582,0.008,11.359
			c-1.044,4.193-3.817,6.658-8.403,7.023C6.883,27.478,3.472,27.263,0,27.263C0,18.773,0,10.314,0,1.598z M3.67,24.544
			c1.993,0,3.884,0.061,5.771-0.014c2.805-0.112,4.554-1.635,5.392-4.276c0.671-2.115,0.711-4.295,0.679-6.479
			c-0.029-1.937-0.169-3.863-0.931-5.683c-0.934-2.23-2.607-3.465-5.023-3.568C7.77,4.448,5.978,4.488,4.187,4.486
			c-0.164,0-0.329,0.07-0.517,0.113C3.67,11.234,3.67,17.813,3.67,24.544z"/>
		<polygon points="94.994,24.493 94.994,27.234 76.742,27.234 76.742,1.792 94.64,1.792 94.64,4.486 80.457,4.486 80.457,12.909 
			92.134,12.909 92.134,15.709 80.489,15.709 80.489,24.493 94.994,24.493 		"/>
		<path d="M161.437,1.744c1.333,0,2.576,0,3.975,0c3.062,8.449,6.139,16.94,9.246,25.516c-1.475,0-4.241,0-4.241,0l-2.738-7.171
			h-8.494l-2.696,7.156c0,0-2.748,0-4.273,0C155.288,18.747,158.345,10.294,161.437,1.744z M163.542,6.843l-0.22-0.024
			l-3.426,10.255h7.076L163.542,6.843z"/>
	</g>
	<g>
		<path d="M212.837,4.553c0.006,2.527-2.013,4.58-4.512,4.589c-2.509,0.009-4.573-2.069-4.562-4.591
			c0.012-2.497,2.044-4.54,4.527-4.551C210.789-0.011,212.831,2.033,212.837,4.553z M204.73,4.577
			c0.043,0.312,0.062,0.63,0.132,0.936c0.534,2.331,3.146,3.495,5.183,2.315c1.351-0.782,2.042-2.379,1.738-4.013
			c-0.38-2.044-2.296-3.311-4.314-2.851C205.875,1.326,204.743,2.83,204.73,4.577z"/>
		<path d="M207.324,4.917c0,0.713,0,1.391,0,2.099c-0.315,0-0.597,0-0.905,0c0-1.67,0-3.331,0-5.034c0.291,0,0.568,0,0.845,0
			c0.475,0,0.95-0.006,1.425,0.002c0.733,0.012,1.308,0.43,1.489,1.071c0.188,0.667-0.06,1.252-0.71,1.675
			c-0.03,0.019-0.054,0.047-0.102,0.089c0.325,0.722,0.652,1.447,0.995,2.208c-0.327,0-0.603,0-0.916,0
			c-0.317-0.694-0.638-1.399-0.961-2.109C208.109,4.917,207.746,4.917,207.324,4.917z M207.346,4.171
			c0.487,0,0.947,0.018,1.404-0.006c0.342-0.018,0.549-0.3,0.56-0.688c0.011-0.4-0.197-0.731-0.534-0.752
			c-0.468-0.03-0.939-0.008-1.43-0.008C207.346,3.205,207.346,3.661,207.346,4.171z"/>
	</g>
	<path d="M46.476,8.753c-1.367-5.449-5.366-7.739-10.326-7.675c-4.96-0.065-8.959,2.226-10.326,7.675
		c-0.986,3.932-0.985,7.879,0.072,11.785c0.964,3.563,3.128,6.181,7.06,7.019c1.035,0.22,2.12,0.335,3.195,0.346
		c1.074-0.011,2.16-0.125,3.195-0.346c3.932-0.838,6.096-3.455,7.06-7.019C47.461,16.633,47.462,12.685,46.476,8.753z M42.35,20.813
		c-0.697,2.102-2.012,3.737-4.377,4.186c-0.633,0.12-1.241,0.183-1.823,0.195c-0.583-0.011-1.19-0.074-1.823-0.195
		c-2.365-0.449-3.679-2.084-4.377-4.186c-0.919-2.77-1.037-5.628-0.766-8.491c0.134-1.413,0.357-2.854,0.812-4.197
		c0.943-2.781,3.403-4.389,6.154-4.365c2.751-0.024,5.212,1.584,6.154,4.365c0.456,1.344,0.678,2.784,0.812,4.197
		C43.387,15.185,43.269,18.043,42.35,20.813z"/>
</g>
</svg>
