<?xml version="1.0" encoding="utf-8"?>
<!-- Generator: Adobe Illustrator 18.0.0, SVG Export Plug-In . SVG Version: 6.00 Build 0)  -->
<!DOCTYPE svg PUBLIC "-//W3C//DTD SVG 1.1//EN" "http://www.w3.org/Graphics/SVG/1.1/DTD/svg11.dtd">
<svg version="1.1" id="Layer_1" xmlns="http://www.w3.org/2000/svg" xmlns:xlink="http://www.w3.org/1999/xlink" x="0px" y="0px"
	 viewBox="0 0 91.013 92.193" style="enable-background:new 0 0 91.013 92.193;" xml:space="preserve">
<style type="text/css">
	.st0{fill:#62C3B0;}
	.st1{fill:#EF5126;}
	.st2{fill:#B271A2;}
	.st3{fill:#FDC255;}
	.st4{fill:#53BFD5;}
	.st5{fill:#6F6F6F;}
	.st6{fill:#FFFFFF;}
	.st7{fill:#4BCBB5;}
</style>
<g id="FifUh4_1_">
	<g>
		<path class="st1" d="M1.703,21.088c0-6.281,0.023-12.561-0.016-18.841c-0.01-1.612,0.657-2.263,2.261-2.236
			c5.907,0.102,11.848-0.229,17.714,0.295c10.222,0.912,18.02,10.006,18.27,20.66c0.241,10.282-7.408,19.83-17.52,21.082
			c-5.464,0.676-11.058,0.334-16.594,0.398c-4.116,0.048-4.116,0.009-4.116-4.067C1.703,32.615,1.703,26.852,1.703,21.088z"/>
		<path class="st2" d="M69.828,42.203c-11.674,0.002-21.08-9.393-21.085-21.062C48.737,9.549,58.24,0.065,69.863,0.064
			c11.632-0.002,21.181,9.505,21.15,21.059C90.982,32.868,81.602,42.201,69.828,42.203z"/>
		<path class="st3" d="M32.539,66.008c-0.042,0.691-0.098,1.195-0.099,1.698c-0.006,7.387-0.027,14.774,0.014,22.161
			c0.009,1.641-0.602,2.337-2.285,2.325c-6.722-0.047-13.445-0.018-20.167-0.021c-2.009-0.001-2.449-0.45-2.45-2.493
			c-0.002-7.313,0.001-14.627-0.004-21.94c0-0.507-0.048-1.014-0.084-1.73c-1.837,0-3.594-0.035-5.349,0.011
			C0.6,66.059-0.015,65.374,0,63.879c0.039-3.878,0.038-7.757,0-11.635c-0.014-1.424,0.497-2.088,2.007-2.084
			c12.041,0.03,24.082,0.027,36.123,0.002c1.331-0.003,1.864,0.537,1.854,1.85c-0.032,4.026-0.034,8.052,0.001,12.078
			c0.012,1.388-0.64,1.937-1.958,1.922C36.232,65.993,34.436,66.008,32.539,66.008z"/>
		<path class="st4" d="M73.2,49.949c9.144,0.041,16.763,7.062,17.579,16.234c0.026,0.294,0.103,0.584,0.118,0.878
			c0.209,4.034,0.167,4.013-3.172,3.875c-1.846-0.076-2.244,1.066-2.266,2.659c-0.125,9.222-6.017,16.322-14.903,18.029
			c-10.672,2.05-20.829-5.697-21.587-16.466c-0.273-3.875-0.273-3.875,3.563-3.877c2.433-0.001,2.94-0.406,2.84-2.796
			c-0.379-9.006,6.456-17.309,15.623-18.376C71.727,50.024,72.465,50.001,73.2,49.949z"/>
	</g>
</g>
</svg>
