<?xml version="1.0" encoding="utf-8"?>
<!-- Generator: Adobe Illustrator 18.0.0, SVG Export Plug-In . SVG Version: 6.00 Build 0)  -->
<!DOCTYPE svg PUBLIC "-//W3C//DTD SVG 1.1//EN" "http://www.w3.org/Graphics/SVG/1.1/DTD/svg11.dtd">
<svg version="1.1" id="Layer_1" xmlns="http://www.w3.org/2000/svg" xmlns:xlink="http://www.w3.org/1999/xlink" x="0px" y="0px"
	 viewBox="0 0 190.206 44.723" style="enable-background:new 0 0 190.206 44.723;" xml:space="preserve">
<style type="text/css">
	.st0{fill:#62C3B0;}
	.st1{fill:#EF5126;}
	.st2{fill:#B271A2;}
	.st3{fill:#FDC255;}
	.st4{fill:#53BFD5;}
	.st5{fill:#187FB8;}
	.st6{fill:#24A9E6;}
	.st7{fill:#E9F0F5;}
	.st8{fill:#4BCBB5;}
	.st9{fill:#231F20;}
	.st10{fill:#7D6A55;}
	.st11{fill:#662D91;}
	.st12{fill:#ED217C;}
	.st13{fill:#C49A6C;}
	.st14{fill:url(#SVGID_1_);}
	.st15{fill:#A332B5;}
	.st16{fill:#0546B3;}
	.st17{fill:#3580ED;}
	.st18{fill:#C6CBCF;}
	.st19{fill:#E03D3E;}
	.st20{fill:#FFFFFF;}
</style>
<g>
	<g>
		<path class="st15" d="M137.227,16.124c2.542,0,5.039-0.152,7.508,0.048c1.969,0.159,3.474,1.835,3.696,3.941
			c0.207,1.956,0.195,3.944,0.143,5.915c-0.043,1.649-0.876,2.9-2.496,3.649c1.205,0.635,2.238,1.346,2.617,2.652
			c0.133,0.46,0.239,0.945,0.247,1.421c0.026,1.753,0.059,3.508-0.009,5.259c-0.128,3.285-2.085,5.137-5.362,5.149
			c-2.086,0.008-4.172,0.001-6.344,0.001C137.227,34.749,137.227,25.413,137.227,16.124z M140.995,40.475
			c0.312,0.025,0.563,0.059,0.814,0.061c0.558,0.005,1.119,0.032,1.672-0.019c0.913-0.085,1.533-0.622,1.576-1.585
			c0.08-1.817,0.077-3.641,0.015-5.459c-0.032-0.941-0.627-1.641-1.558-1.793c-0.813-0.133-1.666-0.028-2.52-0.028
			C140.995,34.658,140.995,37.541,140.995,40.475z M140.996,19.724c0,2.742,0,5.447,0,8.247c0.465,0,0.868,0.002,1.271,0
			c1.862-0.013,2.458-0.573,2.549-2.457c0.041-0.855,0.023-1.714,0.022-2.571c-0.004-3.03-0.643-3.606-3.671-3.317
			C141.134,19.629,141.104,19.66,140.996,19.724z"/>
		<path class="st15" d="M123.102,44.093c0-9.349,0-18.651,0-28.034c0.299-0.035,0.58-0.096,0.861-0.097
			c1.751-0.009,3.503-0.022,5.254,0c3.08,0.038,4.835,1.627,5.21,4.69c0.05,0.406,0.106,0.816,0.107,1.224
			c0.007,5.515,0.016,11.031-0.011,16.546c-0.004,0.735-0.151,1.483-0.333,2.199c-0.499,1.969-1.788,3.274-3.791,3.429
			C128.002,44.235,125.579,44.093,123.102,44.093z M126.924,19.709c0,6.961,0,13.867,0,20.763c3.274,0.269,3.807-0.208,3.81-3.339
			c0.004-4.732,0.004-9.464,0-14.197c-0.002-3.026-0.654-3.609-3.677-3.309C127.025,19.631,126.996,19.664,126.924,19.709z"/>
		<path class="st15" d="M72.722,31.787c1.139,4.11,2.266,8.18,3.414,12.325c-1.308,0-2.493,0-3.786,0
			c-1.07-3.812-2.142-7.631-3.223-11.482c-0.442,0-0.842,0-1.369,0c0,3.811,0,7.596,0,11.454c-1.299,0-2.475,0-3.738,0
			c0-9.337,0-18.674,0-28.2c2.549,0.082,5.046,0.035,7.514,0.282c1.987,0.199,3.542,1.825,3.683,3.945
			c0.184,2.779,0.131,5.584-0.004,8.368C75.141,29.968,74.207,31.092,72.722,31.787z M67.789,28.884
			c0.382,0.026,0.705,0.065,1.03,0.069c2.219,0.027,2.746-0.476,2.805-2.725c0.028-1.078,0.01-2.158,0.009-3.237
			c-0.004-3.066-0.532-3.559-3.614-3.376c-0.064,0.004-0.124,0.066-0.23,0.126C67.789,22.749,67.789,25.78,67.789,28.884z"/>
		<path class="st15" d="M108.772,30.033c0-2.721-0.007-5.442,0.005-8.162c0.003-0.669-0.003-1.352,0.119-2.005
			c0.578-3.084,3.382-4.827,6.882-4.316c2.821,0.411,4.442,1.829,4.504,4.66c0.144,6.552,0.152,13.113-0.015,19.665
			c-0.073,2.869-2.243,4.63-5.115,4.725c-0.701,0.023-1.426,0.007-2.107-0.143c-2.621-0.577-4.156-2.348-4.223-5.031
			c-0.079-3.129-0.018-6.261-0.018-9.391C108.793,30.033,108.783,30.033,108.772,30.033z M112.568,30.258c0.002,0,0.004,0,0.006,0
			c0,2.424-0.009,4.848,0.006,7.272c0.004,0.632,0.014,1.277,0.139,1.892c0.196,0.962,0.911,1.54,1.779,1.57
			c0.97,0.033,1.673-0.484,1.932-1.509c0.127-0.5,0.191-1.03,0.192-1.546c0.014-5.258,0.017-10.517-0.003-15.775
			c-0.002-0.587-0.096-1.194-0.269-1.755c-0.245-0.793-1.023-1.321-1.785-1.283c-0.816,0.041-1.457,0.432-1.701,1.222
			c-0.183,0.593-0.276,1.235-0.283,1.857C112.551,24.887,112.568,27.573,112.568,30.258z"/>
		<path class="st15" d="M151.083,30.044c0-2.721-0.007-5.442,0.005-8.162c0.003-0.669-0.002-1.351,0.117-2.005
			c0.473-2.596,2.289-4.14,5.201-4.343c0.913-0.064,1.872,0.033,2.763,0.25c2.045,0.499,3.084,1.968,3.408,3.971
			c0.124,0.769,0.163,1.558,0.165,2.338c0.014,5.33,0.012,10.66,0.001,15.989c-0.001,0.631-0.05,1.266-0.132,1.892
			c-0.317,2.445-1.713,3.946-4.146,4.492c-3.022,0.679-5.868-0.496-6.854-2.988c-0.372-0.939-0.482-2.025-0.506-3.049
			C151.04,35.636,151.083,32.839,151.083,30.044z M154.877,30.102c0.002,0,0.005,0,0.007,0c0,2.424-0.007,4.848,0.005,7.272
			c0.003,0.633,0.011,1.273,0.109,1.896c0.162,1.024,0.869,1.671,1.766,1.72c1.016,0.055,1.729-0.481,1.99-1.573
			c0.12-0.502,0.178-1.031,0.179-1.548c0.013-5.221,0.014-10.442-0.002-15.663c-0.002-0.552-0.077-1.119-0.219-1.653
			c-0.229-0.859-0.986-1.421-1.794-1.433c-0.814-0.013-1.576,0.516-1.826,1.387c-0.152,0.528-0.202,1.1-0.207,1.652
			C154.866,24.806,154.877,27.454,154.877,30.102z"/>
		<path class="st15" d="M102.628,33.367c-0.902,0-1.604,0-2.401,0c0-1.198,0-2.326,0-3.545c2.034,0,4.055,0,6.209,0
			c0,0.441,0,0.84,0,1.239c0,2.425,0.009,4.85-0.002,7.275c-0.024,4.926-3.514,7.44-8.276,5.97
			c-2.166-0.668-3.513-2.365-3.662-4.702c-0.069-1.078-0.048-2.163-0.049-3.244c-0.004-4.775-0.007-9.551,0.004-14.326
			c0.002-0.744-0.007-1.504,0.135-2.229c0.566-2.885,2.902-4.468,6.27-4.31c3.548,0.166,5.489,2.124,5.568,5.66
			c0.033,1.489,0.006,2.98,0.006,4.559c-1.252,0-2.454,0-3.8,0c0-1.026,0.012-2.023-0.004-3.02
			c-0.011-0.633,0.001-1.277-0.114-1.895c-0.194-1.05-1.034-1.689-2.074-1.684c-1.047,0.005-1.855,0.645-2.072,1.693
			c-0.09,0.434-0.121,0.888-0.121,1.333c-0.005,5.111-0.002,10.222,0.007,15.334c0.001,0.558,0.014,1.123,0.092,1.674
			c0.169,1.195,0.964,1.861,2.135,1.849c1.108-0.011,1.892-0.673,2.064-1.804c0.078-0.514,0.08-1.041,0.084-1.563
			C102.635,36.258,102.628,34.887,102.628,33.367z"/>
		<path class="st15" d="M46.212,16.016c1.912,0,3.69,0,5.572,0c1.272,9.364,2.538,18.683,3.814,28.076c-1.309,0-2.517,0-3.784,0
			c-0.259-2.073-0.511-4.089-0.768-6.138c-1.39,0-2.682,0-4.069,0c-0.249,2.042-0.495,4.063-0.748,6.139c-1.245,0-2.418,0-3.788,0
			C43.7,34.72,44.951,25.407,46.212,16.016z M50.612,34.23c-0.526-4.424-1.034-8.702-1.543-12.981
			c-0.053,0.006-0.105,0.011-0.158,0.017c-0.502,4.303-1.005,8.606-1.513,12.964C48.534,34.23,49.522,34.23,50.612,34.23z"/>
		<path class="st15" d="M190.09,25.779c-1.235,0-2.38,0-3.712,0c0-1.097,0.013-2.162-0.005-3.227
			c-0.01-0.594-0.016-1.198-0.123-1.779c-0.179-0.973-0.974-1.644-1.848-1.657c-0.898-0.013-1.697,0.588-1.887,1.596
			c-0.535,2.847-0.402,5.505,2.242,7.423c1.024,0.743,1.991,1.568,2.95,2.395c1.664,1.436,2.654,3.176,2.479,5.473
			c-0.09,1.187,0.005,2.387-0.059,3.577c-0.157,2.905-2.096,4.843-4.992,5.014c-0.63,0.037-1.275,0.049-1.898-0.035
			c-2.665-0.363-4.33-1.986-4.583-4.68c-0.155-1.653-0.029-3.332-0.029-5.083c1.155,0,2.327,0,3.69,0
			c0,0.732-0.023,1.496,0.006,2.257c0.03,0.779,0.041,1.569,0.184,2.331c0.2,1.061,0.882,1.598,1.843,1.611
			c0.919,0.012,1.759-0.574,1.869-1.58c0.141-1.286,0.174-2.607,0.038-3.891c-0.063-0.596-0.539-1.231-0.99-1.687
			c-1.02-1.031-2.157-1.945-3.214-2.941c-0.704-0.663-1.393-1.35-2.014-2.089c-0.855-1.017-1.441-2.19-1.457-3.55
			c-0.02-1.673-0.085-3.359,0.076-5.019c0.246-2.538,1.803-4.185,4.317-4.553c1.151-0.169,2.391-0.134,3.53,0.101
			c2.146,0.442,3.351,1.975,3.547,4.085C190.23,21.784,190.09,23.728,190.09,25.779z"/>
		<path class="st15" d="M164.853,34.769c1.331,0,2.506,0,3.808,0c0,0.974-0.023,1.896,0.008,2.815
			c0.021,0.63,0.056,1.271,0.194,1.882c0.23,1.02,0.949,1.551,1.916,1.527c0.866-0.021,1.676-0.594,1.777-1.553
			c0.139-1.323,0.172-2.681,0.031-4c-0.063-0.591-0.574-1.21-1.031-1.666c-1.026-1.026-2.162-1.941-3.221-2.935
			c-0.678-0.636-1.338-1.3-1.934-2.011c-0.853-1.018-1.44-2.183-1.472-3.545c-0.035-1.488-0.105-2.983-0.013-4.466
			c0.267-4.317,3.575-5.586,6.591-5.284c3.35,0.335,4.893,2.039,4.988,5.423c0.044,1.561,0.008,3.125,0.008,4.777
			c-1.222,0-2.394,0-3.706,0c-0.024-0.398-0.06-0.825-0.073-1.252c-0.037-1.19-0.001-2.387-0.117-3.57
			c-0.103-1.053-0.919-1.764-1.833-1.793c-0.934-0.03-1.726,0.598-1.931,1.676c-0.554,2.914-0.279,5.567,2.407,7.469
			c1.031,0.73,1.996,1.562,2.945,2.4c1.554,1.372,2.474,3.036,2.335,5.199c-0.079,1.226,0.006,2.461-0.056,3.689
			c-0.133,2.654-1.594,4.464-4.203,4.88c-1.247,0.199-2.618,0.119-3.847-0.183c-1.946-0.478-3.007-1.957-3.392-3.898
			c-0.108-0.545-0.16-1.109-0.171-1.665C164.836,37.424,164.853,36.161,164.853,34.769z"/>
		<path class="st15" d="M84.62,44.122c-1.329,0-2.478,0-3.713,0c-0.034-0.298-0.089-0.579-0.093-0.86
			c-0.013-0.783-0.06-1.571,0.004-2.349c0.388-4.719-0.559-9.244-1.833-13.749c-1.031-3.647-1.886-7.343-2.846-11.12
			c1.289,0,2.49,0,3.824,0c0.875,4.011,1.759,8.06,2.642,12.109c0.06-0.005,0.12-0.01,0.18-0.015
			c0.903-4.04,1.807-8.08,2.714-12.136c1.306,0,2.492,0,3.809,0c-0.391,1.552-0.761,3.056-1.148,4.555
			c-1.126,4.359-2.265,8.714-3.377,13.077c-0.127,0.498-0.154,1.031-0.158,1.549c-0.015,2.536-0.007,5.072-0.007,7.609
			C84.62,43.195,84.62,43.598,84.62,44.122z"/>
		<path class="st15" d="M35.944,31.749c0,4.224,0,8.24,0,12.332c-1.268,0-2.444,0-3.709,0c0-9.331,0-18.666,0-28.063
			c3.32,0,6.589,0,9.955,0c0,1.134,0,2.263,0,3.529c-2.053,0-4.082,0-6.18,0c0,2.908,0,5.682,0,8.574c1.955,0,3.877,0,5.894,0
			c0,1.243,0,2.372,0,3.627C39.957,31.749,38.031,31.749,35.944,31.749z"/>
		<path class="st15" d="M60.935,44.115c-1.24,0-2.386,0-3.625,0c0-9.359,0-18.691,0-28.09c1.209,0,2.38,0,3.625,0
			C60.935,25.392,60.935,34.695,60.935,44.115z"/>
	</g>
	<path d="M28,21.717c-0.01,0.091-0.012,0.186-0.112,0.24c-0.126,0.041-0.206-0.042-0.294-0.112
		c-0.191-0.152-0.386-0.299-0.577-0.451c-0.247-0.197-0.51-0.378-0.731-0.601c-0.418-0.421-0.919-0.705-1.439-0.974
		c-0.268,0.148-0.497,0.331-0.705,0.574c-0.079-0.047-0.154-0.077-0.211-0.128c-0.833-0.737-1.67-1.47-2.492-2.22
		c-0.232-0.212-0.427-0.466-0.624-0.713c-0.23-0.289-0.492-0.54-0.804-0.767c-0.07,0.177-0.133,0.338-0.212,0.539
		c0.011,0.034,0.034,0.112,0.064,0.187c0.113,0.288,0.159,0.588,0.18,0.896c0.012,0.18,0.055,0.357,0.075,0.484
		c0.02,0.292,0.036,0.533,0.055,0.775c0.006,0.081,0.033,0.162,0.03,0.242c-0.03,0.797,0.178,1.558,0.35,2.323
		c0.152,0.676,0.328,1.347,0.49,2.021c0.028,0.117,0.045,0.237,0.069,0.367c-0.183,0.048-0.34,0.025-0.498-0.028
		c-0.062,0.125-0.029,0.241,0.002,0.36c0.2,0.791,0.398,1.582,0.596,2.373c0.01,0.039,0.032,0.081,0.027,0.118
		c-0.063,0.436,0.12,0.813,0.277,1.197c0.015,0.038,0.036,0.074,0.056,0.109c0.302,0.524,0.388,1.096,0.331,1.685
		c-0.065,0.676-0.044,1.344,0.069,2.012c0.144,0.852,0.112,1.71,0.059,2.566c-0.056,0.893,0.03,1.773,0.178,2.651
		c0.041,0.241,0.077,0.485,0.146,0.719c0.189,0.646,0.61,1.068,1.265,1.249c0.157,0.043,0.31,0.097,0.465,0.147
		c0.291,0.093,0.577,0.206,0.874,0.271c0.162,0.035,0.347,0.012,0.513-0.026c0.278-0.063,0.548-0.159,0.822-0.238
		c0.127-0.037,0.255-0.072,0.385-0.096c0.237-0.044,0.267-0.023,0.393,0.251c-0.063,0.066-0.126,0.145-0.203,0.209
		c-0.643,0.536-1.297,1.057-2.012,1.498c-0.185,0.114-0.372,0.159-0.581,0.13c-0.192-0.027-0.383-0.059-0.574-0.09
		c-0.378-0.063-0.753-0.053-1.121,0.056c-0.075,0.022-0.147,0.058-0.252,0.099c0.216,0.323,0.473,0.585,0.685,0.909
		c-0.211,0.353-0.578,0.48-0.925,0.666c-0.045-0.082-0.079-0.143-0.112-0.204c-0.24-0.453-0.542-0.86-0.891-1.233
		c-0.048-0.052-0.097-0.109-0.124-0.173c-0.172-0.396-0.296-0.792-0.209-1.241c0.079-0.404,0.008-0.815-0.071-1.216
		c-0.037-0.189-0.105-0.372-0.166-0.555c-0.09-0.271-0.189-0.539-0.28-0.809c-0.198-0.589-0.372-1.188-0.596-1.768
		c-0.436-1.131-0.561-2.292-0.419-3.489c0.036-0.304,0.065-0.609,0.107-0.912c0.039-0.288,0.017-0.574-0.053-0.851
		c-0.255-1.007-0.785-1.875-1.381-2.693c-0.256-0.036-0.512,0.004-0.824,0.125c-0.117,0.202-0.163,0.432-0.207,0.662
		c-0.122,0.645-0.312,1.265-0.64,1.838c-0.086,0.149-0.15,0.311-0.224,0.467c-0.031,0.064-0.053,0.135-0.095,0.191
		c-0.265,0.355-0.377,0.77-0.45,1.192c-0.15,0.859-0.42,1.679-0.725,2.493c-0.37,0.987-0.616,2.008-0.736,3.057
		c-0.065,0.564-0.014,1.115,0.161,1.662c0.083,0.259,0.201,0.481,0.364,0.693c0.16,0.209,0.279,0.451,0.438,0.661
		c0.171,0.227,0.353,0.45,0.559,0.643c0.104,0.098,0.269,0.14,0.414,0.183c0.254,0.076,0.514,0.129,0.769,0.201
		c0.117,0.033,0.233,0.079,0.338,0.139c0.168,0.094,0.179,0.15,0.115,0.385c-0.15,0.106-0.331,0.084-0.5,0.1
		c-0.457,0.044-0.914,0.094-1.372,0.108c-0.619,0.019-1.153-0.22-1.618-0.619c-0.194-0.166-0.38-0.341-0.583-0.495
		c-0.228-0.173-0.484-0.292-0.808-0.327c-0.006,0.431-0.012,0.846-0.018,1.286c-0.396-0.03-0.759-0.1-1.122-0.206
		c0.038-0.286,0.092-0.556,0.106-0.827c0.015-0.293-0.008-0.589-0.012-0.883c-0.001-0.091-0.005-0.185,0.011-0.274
		c0.053-0.301,0.337-0.807,0.561-1.025c0.094-0.278,0.204-0.543,0.272-0.819c0.063-0.256,0.102-0.521,0.114-0.784
		c0.05-1.142,0.081-2.285,0.13-3.426c0.019-0.438,0.036-0.879,0.109-1.309c0.115-0.677,0.379-1.311,0.661-1.935
		c0.059-0.13,0.12-0.26,0.192-0.383c0.42-0.712,0.638-1.498,0.843-2.289c0.043-0.168,0.071-0.331-0.005-0.507
		c-0.044-0.102-0.02-0.233-0.03-0.402c-0.097,0.109-0.151,0.19-0.224,0.246c-0.077,0.061-0.172,0.099-0.262,0.148
		c-0.078-0.116-0.014-0.211,0.004-0.306c0.049-0.249,0.107-0.497,0.156-0.747c0.104-0.53,0.206-1.061,0.307-1.592
		c0.03-0.16,0.073-0.322,0.074-0.483c0.001-0.19-0.038-0.38-0.06-0.575c-0.188-0.052-0.359-0.099-0.54-0.149
		c0.025-0.228,0.053-0.428,0.07-0.629c0.083-0.996,0.138-1.995,0.296-2.984c0.086-0.536,0.219-1.059,0.416-1.564
		c0.072-0.183,0.117-0.368,0.121-0.565c0.009-0.379,0.079-0.748,0.154-1.12c0.05-0.245,0.035-0.502,0.051-0.798
		c-0.28,0.129-0.517,0.238-0.775,0.357c-0.186,0.494-0.376,0.999-0.565,1.504c-0.093,0.248-0.17,0.503-0.274,0.746
		c-0.258,0.601-0.482,1.213-0.619,1.854c-0.015,0.069-0.04,0.137-0.065,0.204c-0.01,0.028-0.034,0.05-0.067,0.098
		c-0.319,0.034-0.648-0.093-1.009-0.054c-0.027,0.113-0.054,0.229-0.083,0.344c-0.084,0.328-0.124,0.66-0.103,1
		c0.012,0.193,0.008,0.389-0.013,0.581c-0.018,0.17-0.061,0.339-0.109,0.504c-0.066,0.225-0.142,0.445-0.118,0.687
		c0.027,0.277-0.097,0.518-0.22,0.753c-0.029,0.056-0.105,0.088-0.165,0.135c0.033,0.106,0.067,0.217,0.108,0.351
		c0.194,0.151,0.403,0.314,0.613,0.475c0.032,0.025,0.066,0.058,0.103,0.064c0.285,0.052,0.442,0.267,0.613,0.467
		c0.052,0.061,0.121,0.108,0.185,0.157c0.39,0.296,0.782,0.59,1.172,0.886c0.203,0.155,0.224,0.248,0.109,0.468
		c-0.033,0.063-0.073,0.123-0.114,0.181c-0.841,1.218-1.682,2.435-2.523,3.652c-0.221,0.319-0.449,0.633-0.665,0.954
		c-0.239,0.355-0.475,0.713-0.701,1.076c-0.127,0.205-0.269,0.348-0.538,0.318c-0.09-0.01-0.19,0.051-0.283,0.088
		c-0.065,0.025-0.125,0.064-0.21,0.108c-0.184-0.139-0.369-0.278-0.556-0.419c-0.081,0.016-0.158,0.031-0.261,0.051
		c0-0.103,0-0.188,0-0.304c-2.23-1.747-4.478-3.508-6.72-5.264c-0.096,0.02-0.172,0.036-0.274,0.058
		c0.016-0.374-0.337-0.46-0.52-0.706c0.021-0.072,0.035-0.15,0.066-0.222c0.028-0.064,0.074-0.121,0.115-0.18
		c1.129-1.651,2.26-3.301,3.387-4.953c0.19-0.278,0.373-0.561,0.551-0.847c0.113-0.182,0.243-0.287,0.477-0.225
		c0.135,0.036,0.284,0.024,0.427,0.024c0.171,0.001,0.31,0.057,0.444,0.169c0.336,0.282,0.685,0.549,1.029,0.82
		c0.04,0.031,0.082,0.079,0.126,0.082c0.267,0.019,0.388,0.243,0.563,0.389c0.155,0.13,0.296,0.276,0.423,0.397
		c0.144,0,0.252,0,0.36,0c0.124-0.446,0.466-0.66,1.144-0.703c0.055-0.09,0.116-0.194,0.183-0.294
		c0.096-0.143,0.198-0.283,0.297-0.424c0.041-0.058,0.096-0.112,0.117-0.177c0.102-0.316,0.234-0.617,0.253-0.965
		c0.019-0.356,0.06-0.713,0.172-1.068c0.148-0.473,0.298-0.948,0.422-1.429c0.058-0.225,0.163-0.44,0.264-0.651
		c0.173-0.362,0.26-0.75,0.366-1.126c-0.082-0.1-0.19-0.093-0.287-0.112c-0.516-0.099-1-0.281-1.456-0.541
		c-0.043-0.024-0.083-0.054-0.166-0.109c0.356-0.066,0.667-0.133,0.954-0.279c0.28-0.143,0.553-0.296,0.835-0.519
		c-0.214-0.061-0.392-0.067-0.57-0.083c-0.386-0.036-0.774-0.063-1.155-0.127c-0.553-0.093-1.01-0.37-1.374-0.798
		c-0.036-0.043-0.061-0.095-0.11-0.171c0.521,0.124,1.008,0.075,1.489-0.018c0.64-0.123,1.275-0.269,1.967-0.417
		c-0.097-0.067-0.145-0.11-0.201-0.138c-0.567-0.279-1.137-0.553-1.704-0.835c-0.402-0.2-0.806-0.396-1.195-0.62
		c-0.237-0.136-0.453-0.312-0.664-0.487c-0.155-0.128-0.17-0.181-0.238-0.395c0.696,0.135,1.254-0.158,1.821-0.566
		c-0.275-0.13-0.529-0.228-0.759-0.365C8.149,9.787,7.929,9.631,7.738,9.45C7.54,9.262,7.37,9.041,7.205,8.822
		C7.046,8.611,6.92,8.378,6.802,8.107c0.125,0,0.223,0.008,0.319-0.002c0.194-0.019,0.304-0.12,0.309-0.314
		c0.004-0.15-0.006-0.312-0.059-0.45C7.24,6.999,7.105,6.654,6.926,6.337C6.627,5.805,6.479,5.245,6.492,4.639
		C6.498,4.326,6.503,4.013,6.51,3.651c0.31,0.227,0.421,0.608,0.804,0.713c0.011-0.074,0.038-0.134,0.024-0.182
		C7.297,4.045,7.242,3.913,7.189,3.78C7.034,3.392,6.86,3.01,6.726,2.615C6.631,2.337,6.579,2.043,6.525,1.753
		C6.492,1.575,6.492,1.391,6.586,1.189c0.121,0.424,0.423,0.667,0.733,0.966C7.212,1.766,7.104,1.431,7.028,1.089
		C6.954,0.754,6.909,0.412,6.956,0C7.012,0.101,7.04,0.148,7.064,0.197c0.114,0.239,0.211,0.489,0.343,0.717
		C8.02,1.973,8.601,3.05,9.36,4.02c0.813,1.04,1.679,2.03,2.65,2.923c0.691,0.635,1.409,1.24,2.116,1.858
		c0.03,0.026,0.067,0.044,0.114,0.074c0.345-0.408,0.686-0.81,1.03-1.217c-0.123-0.176-0.255-0.354-0.376-0.54
		c-0.233-0.359-0.374-0.749-0.344-1.183c0.009-0.127,0.056-0.252,0.086-0.378l0.004,0.006c0.075-0.156,0.219-0.236,0.357-0.322
		c0.103-0.065,0.211-0.121,0.331-0.189c0-0.081,0-0.168,0-0.259c0.074-0.033,0.137-0.06,0.218-0.095
		c-0.022-0.195-0.042-0.386-0.065-0.576c-0.015-0.131-0.034-0.262-0.05-0.393c-0.095-0.77,0.191-1.414,0.654-2.002
		c0.232-0.294,0.541-0.457,0.902-0.527c0.209-0.041,0.423-0.06,0.632-0.098c0.136-0.025,0.262-0.014,0.386,0.045l0.012,0.001
		c0,0-0.018-0.004-0.018-0.004c0.036-0.008,0.08-0.033,0.106-0.021c0.155,0.078,0.318,0.135,0.489,0.128
		c0.553-0.022,1.441,0.651,1.639,1.222c0.091,0.264,0.064,0.51-0.069,0.735c-0.151,0.253-0.101,0.463,0.071,0.669
		c0.072,0.086,0.152,0.166,0.223,0.252c0.063,0.077,0.12,0.159,0.162,0.216c-0.014,0.239-0.229,0.254-0.319,0.374
		c0,0.191,0,0.374,0,0.581c-0.017,0.028-0.047,0.079-0.078,0.131c0.008,0.033,0.011,0.063,0.023,0.091
		c0.02,0.047,0.048,0.09,0.068,0.137c0.128,0.305,0.012,0.516-0.324,0.569c-0.17,0.027-0.346,0.049-0.517,0.04
		c-0.275-0.015-0.445,0.11-0.554,0.346C18.83,6.808,18.736,7,18.652,7.197c-0.084,0.196-0.158,0.397-0.243,0.615
		c0.045,0.085,0.09,0.187,0.15,0.281c0.153,0.242,0.288,0.491,0.378,0.765c0.024,0.072,0.08,0.141,0.139,0.192
		c0.115,0.1,0.242,0.185,0.414,0.315c0.032-0.075,0.064-0.149,0.09-0.212c0.061,0.039,0.088,0.046,0.092,0.06
		c0.025,0.087,0.04,0.178,0.068,0.264c0.034,0.105,0.058,0.222,0.121,0.309c0.244,0.337,0.341,0.717,0.346,1.122
		c0.003,0.259,0.039,0.499,0.15,0.738c0.07,0.152,0.096,0.333,0.103,0.503c0.012,0.293,0.079,0.557,0.248,0.801
		c0.066,0.095,0.108,0.22,0.122,0.336c0.024,0.204,0.119,0.361,0.25,0.507c0.066,0.074,0.13,0.154,0.178,0.24
		c0.108,0.195,0.207,0.396,0.307,0.595c0.041,0.081,0.076,0.165,0.124,0.27c0.034,0.018,0.084,0.052,0.14,0.074
		c0.141,0.057,0.23,0.16,0.295,0.294c0.094,0.192,0.192,0.368,0.41,0.471c0.149,0.07,0.274,0.212,0.384,0.343
		c0.127,0.15,0.265,0.277,0.43,0.382c0.084,0.053,0.151,0.136,0.216,0.214c0.105,0.124,0.199,0.259,0.305,0.382
		c0.179,0.207,0.339,0.433,0.588,0.571c0.086,0.048,0.15,0.137,0.224,0.207c0.245,0.23,0.507,0.445,0.732,0.693
		c0.285,0.314,0.65,0.521,0.973,0.782c0.185,0.15,0.393,0.249,0.616,0.329c0.344,0.125,0.683,0.263,1.021,0.403
		c0.171,0.071,0.306,0.194,0.436,0.329c0.184,0.191,0.385,0.364,0.563,0.53c0.023,0.16,0.051,0.28,0.054,0.4
		c0.004,0.158-0.087,0.239-0.26,0.265c-0.036,0.005-0.086,0.01-0.102,0.033c-0.066,0.096-0.157,0.115-0.265,0.122
		c-0.054,0.004-0.105,0.049-0.159,0.072c-0.054,0.023-0.109,0.043-0.168,0.065c-0.048-0.052-0.088-0.095-0.129-0.138
		c-0.001-0.009,0-0.018-0.004-0.026c-0.002-0.004-0.012-0.004-0.019-0.005C27.981,21.7,27.99,21.709,28,21.717z M9.077,23.796
		c-0.248-0.136-0.261-0.162-0.23-0.394c0.009-0.066,0.01-0.132,0.016-0.203c-0.308-0.049-0.429,0.179-0.598,0.329
		c0,0.096,0,0.184,0,0.277c0.537,0.406,1.071,0.809,1.604,1.212c0.097-0.012,0.193-0.025,0.291-0.037
		c0.04-0.073,0.089-0.141,0.114-0.217c0.015-0.046-0.007-0.104-0.011-0.148c-0.134,0.007-0.257,0.048-0.346,0.01
		c-0.086-0.038-0.136-0.157-0.215-0.257c-0.168,0.006-0.278-0.094-0.298-0.279C9.19,24.094,9.071,24.012,9.077,23.796z
		 M16.524,6.102c-0.142-0.144-0.272-0.228-0.327-0.346c-0.054-0.117-0.031-0.269-0.043-0.419c-0.148,0.064-0.275,0.119-0.412,0.178
		c-0.084,0.171-0.117,0.356-0.078,0.555c0.044,0.223,0.109,0.445,0.063,0.678c-0.008,0.043,0.022,0.093,0.035,0.141
		c0.054,0.004,0.094,0.007,0.154,0.012c0.097-0.185,0.195-0.371,0.294-0.56c0.098,0,0.177,0,0.276,0
		C16.501,6.244,16.515,6.157,16.524,6.102z M27.775,21.528c0.013-0.009,0.026-0.018,0.04-0.027
		c-0.025-0.038-0.049-0.075-0.074-0.113c-0.015,0.01-0.03,0.021-0.045,0.031C27.723,21.455,27.749,21.491,27.775,21.528z
		 M28.079,21.193l0.013,0.01l0.003-0.015L28.079,21.193z"/>
</g>
</svg>
