<?xml version="1.0" encoding="utf-8"?>
<!-- Generator: Adobe Illustrator 18.0.0, SVG Export Plug-In . SVG Version: 6.00 Build 0)  -->
<!DOCTYPE svg PUBLIC "-//W3C//DTD SVG 1.1//EN" "http://www.w3.org/Graphics/SVG/1.1/DTD/svg11.dtd">
<svg version="1.1" id="Layer_1" xmlns="http://www.w3.org/2000/svg" xmlns:xlink="http://www.w3.org/1999/xlink" x="0px" y="0px"
	 viewBox="0 0 195.978 41.995" style="enable-background:new 0 0 195.978 41.995;" xml:space="preserve">
<style type="text/css">
	.st0{fill:#62C3B0;}
	.st1{fill:#EF5126;}
	.st2{fill:#B271A2;}
	.st3{fill:#FDC255;}
	.st4{fill:#53BFD5;}
	.st5{fill:#187FB8;}
	.st6{fill:#24A9E6;}
	.st7{fill:#E9F0F5;}
	.st8{fill:#4BCBB5;}
	.st9{fill:#231F20;}
	.st10{fill:#7D6A55;}
	.st11{fill:#662D91;}
	.st12{fill:#ED217C;}
	.st13{fill:#C49A6C;}
	.st14{fill:url(#SVGID_1_);}
	.st15{fill:#A332B5;}
	.st16{fill:#0546B3;}
	.st17{fill:#3580ED;}
	.st18{fill:#C6CBCF;}
	.st19{fill:#E03D3E;}
	.st20{fill:#FFFFFF;}
</style>
<g>
	<g>
		<rect x="0" y="0" class="st19" width="195.978" height="41.995"/>
	</g>
	<g>
		<path class="st20" d="M24.339,24.388v-3.213h8.298v7.595c-0.807,0.78-1.975,1.468-3.505,2.061
			c-1.53,0.594-3.081,0.891-4.649,0.891c-1.995,0-3.733-0.418-5.215-1.255s-2.597-2.033-3.342-3.59
			c-0.746-1.556-1.118-3.249-1.118-5.079c0-1.985,0.416-3.75,1.248-5.293c0.833-1.543,2.051-2.727,3.655-3.55
			c1.222-0.633,2.744-0.949,4.565-0.949c2.367,0,4.216,0.496,5.547,1.489c1.331,0.992,2.187,2.365,2.569,4.116l-3.824,0.715
			c-0.269-0.936-0.774-1.675-1.515-2.217c-0.742-0.542-1.667-0.813-2.777-0.813c-1.682,0-3.019,0.533-4.012,1.599
			c-0.993,1.066-1.489,2.649-1.489,4.747c0,2.263,0.503,3.96,1.509,5.092c1.005,1.131,2.323,1.697,3.953,1.697
			c0.807,0,1.615-0.158,2.426-0.475c0.811-0.316,1.506-0.7,2.087-1.15v-2.419H24.339z"/>
		<path class="st20" d="M51.649,31.397h-4.188l-1.664-4.331h-7.621l-1.573,4.331h-4.084l7.426-19.065h4.07L51.649,31.397z
			 M44.561,23.854l-2.627-7.074l-2.575,7.074H44.561z"/>
		<path class="st20" d="M53.73,31.397V12.332h8.102c2.038,0,3.518,0.171,4.441,0.513c0.923,0.343,1.662,0.952,2.217,1.828
			c0.555,0.876,0.833,1.877,0.833,3.004c0,1.431-0.421,2.612-1.262,3.544c-0.841,0.932-2.098,1.519-3.772,1.762
			c0.833,0.485,1.519,1.018,2.061,1.599c0.542,0.581,1.273,1.612,2.191,3.095l2.328,3.72h-4.603l-2.783-4.149
			c-0.988-1.483-1.665-2.416-2.029-2.802c-0.364-0.386-0.75-0.65-1.158-0.793c-0.407-0.144-1.053-0.215-1.938-0.215h-0.78v7.959
			H53.73z M57.58,20.395h2.848c1.846,0,2.999-0.078,3.459-0.234c0.459-0.156,0.819-0.424,1.079-0.807
			c0.26-0.381,0.39-0.858,0.39-1.431c0-0.641-0.172-1.159-0.514-1.554c-0.342-0.394-0.826-0.644-1.45-0.748
			c-0.312-0.044-1.249-0.066-2.809-0.066H57.58V20.395z"/>
		<path class="st20" d="M76.997,31.397v-8.025l-6.984-11.041h4.513l4.487,7.543l4.396-7.543h4.435L80.833,23.4v7.998H76.997z"/>
		<path class="st20" d="M88.22,25.194l3.746-0.364c0.226,1.258,0.683,2.181,1.372,2.77c0.69,0.59,1.619,0.884,2.789,0.884
			c1.24,0,2.174-0.262,2.803-0.787c0.628-0.524,0.943-1.138,0.943-1.84c0-0.451-0.132-0.835-0.396-1.151
			c-0.265-0.316-0.727-0.592-1.385-0.826c-0.451-0.157-1.478-0.434-3.083-0.833c-2.064-0.511-3.511-1.14-4.344-1.886
			c-1.17-1.049-1.755-2.328-1.755-3.837c0-0.971,0.275-1.879,0.826-2.725c0.55-0.846,1.344-1.489,2.38-1.932
			c1.036-0.442,2.286-0.663,3.752-0.663c2.393,0,4.194,0.525,5.404,1.573c1.209,1.049,1.844,2.45,1.905,4.201l-3.85,0.169
			c-0.165-0.979-0.518-1.684-1.06-2.113c-0.541-0.429-1.355-0.643-2.438-0.643c-1.118,0-1.995,0.23-2.627,0.689
			c-0.407,0.295-0.611,0.689-0.611,1.184c0,0.45,0.191,0.837,0.572,1.157c0.486,0.407,1.665,0.833,3.538,1.275
			c1.873,0.442,3.258,0.9,4.155,1.372c0.897,0.472,1.599,1.118,2.107,1.938s0.761,1.832,0.761,3.037c0,1.092-0.303,2.115-0.91,3.069
			c-0.607,0.954-1.465,1.662-2.575,2.126c-1.11,0.463-2.493,0.696-4.149,0.696c-2.41,0-4.261-0.557-5.553-1.671
			C89.243,28.95,88.471,27.327,88.22,25.194z"/>
		<path class="st20" d="M115.271,24.388v-3.213h8.297v7.595c-0.807,0.78-1.975,1.468-3.505,2.061
			c-1.53,0.594-3.08,0.891-4.649,0.891c-1.994,0-3.732-0.418-5.215-1.255s-2.597-2.033-3.342-3.59
			c-0.746-1.556-1.119-3.249-1.119-5.079c0-1.985,0.416-3.75,1.249-5.293c0.833-1.543,2.051-2.727,3.654-3.55
			c1.223-0.633,2.744-0.949,4.565-0.949c2.367,0,4.215,0.496,5.547,1.489c1.331,0.992,2.187,2.365,2.569,4.116l-3.824,0.715
			c-0.269-0.936-0.774-1.675-1.515-2.217c-0.741-0.542-1.667-0.813-2.776-0.813c-1.682,0-3.02,0.533-4.012,1.599
			c-0.992,1.066-1.489,2.649-1.489,4.747c0,2.263,0.502,3.96,1.509,5.092c1.005,1.131,2.323,1.697,3.953,1.697
			c0.806,0,1.614-0.158,2.425-0.475c0.811-0.316,1.506-0.7,2.087-1.15v-2.419H115.271z"/>
		<path class="st20" d="M125.92,12.332h3.85v10.326c0,1.638,0.047,2.701,0.143,3.187c0.165,0.78,0.557,1.407,1.177,1.879
			c0.62,0.472,1.468,0.709,2.543,0.709c1.092,0,1.916-0.224,2.471-0.67c0.554-0.446,0.889-0.995,1.001-1.645
			c0.112-0.65,0.169-1.729,0.169-3.239V12.332h3.85v10.014c0,2.289-0.104,3.906-0.312,4.851c-0.208,0.945-0.591,1.743-1.151,2.393
			c-0.559,0.651-1.307,1.169-2.243,1.554c-0.936,0.386-2.159,0.579-3.667,0.579c-1.821,0-3.202-0.211-4.142-0.631
			c-0.941-0.42-1.684-0.966-2.23-1.639c-0.546-0.671-0.906-1.376-1.08-2.113c-0.252-1.093-0.377-2.705-0.377-4.838V12.332z"/>
		<path class="st20" d="M143.892,31.397V12.332h3.85v19.065H143.892z"/>
		<path class="st20" d="M150.224,12.332h7.036c1.586,0,2.796,0.122,3.628,0.364c1.118,0.329,2.077,0.915,2.874,1.755
			c0.798,0.841,1.405,1.871,1.821,3.089c0.416,1.218,0.624,2.72,0.624,4.506c0,1.569-0.195,2.922-0.585,4.057
			c-0.477,1.388-1.157,2.51-2.042,3.368c-0.668,0.65-1.569,1.157-2.705,1.522c-0.85,0.269-1.986,0.403-3.407,0.403h-7.244V12.332z
			 M154.073,15.557v12.628h2.874c1.075,0,1.851-0.06,2.328-0.182c0.624-0.156,1.142-0.42,1.554-0.794
			c0.411-0.373,0.748-0.986,1.008-1.84c0.26-0.854,0.39-2.018,0.39-3.492c0-1.474-0.13-2.605-0.39-3.394
			c-0.26-0.789-0.624-1.404-1.092-1.846c-0.468-0.442-1.062-0.742-1.782-0.897c-0.537-0.122-1.591-0.182-3.16-0.182H154.073z"/>
		<path class="st20" d="M168.299,31.397V12.332h14.137v3.225h-10.287v4.227h9.572v3.213h-9.572v5.189H182.8v3.213H168.299z"/>
	</g>
</g>
</svg>
