<?xml version="1.0" encoding="utf-8"?>
<!-- Generator: Adobe Illustrator 18.0.0, SVG Export Plug-In . SVG Version: 6.00 Build 0)  -->
<!DOCTYPE svg PUBLIC "-//W3C//DTD SVG 1.1//EN" "http://www.w3.org/Graphics/SVG/1.1/DTD/svg11.dtd">
<svg version="1.1" id="Layer_1" xmlns="http://www.w3.org/2000/svg" xmlns:xlink="http://www.w3.org/1999/xlink" x="0px" y="0px"
	 viewBox="0 0 192 43.984" style="enable-background:new 0 0 192 43.984;" xml:space="preserve">
<style type="text/css">
	.st0{fill:#62C3B0;}
	.st1{fill:#EF5126;}
	.st2{fill:#B271A2;}
	.st3{fill:#FDC255;}
	.st4{fill:#53BFD5;}
	.st5{fill:#6F6F6F;}
	.st6{fill:#FFFFFF;}
	.st7{fill:#4BCBB5;}
</style>
<g id="_x36_A5Mcs.tif_1_">
	<g>
		<path d="M192,24.386c-0.284,1.29-0.454,2.618-0.869,3.864c-2.804,8.426-8.566,13.694-17.284,15.327
			c-9.523,1.783-18.242-2.416-22.982-10.108c-7.933-12.873-0.901-29.545,14.059-32.979c0.836-0.192,1.685-0.327,2.528-0.489
			c1.572,0,3.143,0,4.715,0c0.179,0.048,0.355,0.118,0.537,0.14c8.849,1.049,16.418,7.651,18.646,16.289
			c0.262,1.015,0.436,2.053,0.651,3.08C192,21.135,192,22.76,192,24.386z M169.806,36.3c7.94,0.005,14.489-6.382,14.504-14.146
			c0.016-8.06-6.41-14.494-14.472-14.521c-7.521-0.025-14.494,5.87-14.498,14.325C155.337,30.532,162.435,36.376,169.806,36.3z"/>
		<polygon points="0,1.788 0.889,1.741 39.411,1.739 40.365,1.739 40.365,8.921 23.943,8.921 23.943,34.988 40.361,34.988 
			40.361,42.172 39.25,42.221 1.134,42.225 0,42.269 0,34.953 0.484,34.997 15.844,34.996 16.472,34.92 16.472,8.942 0,8.942 
			0,1.788 		"/>
		<polygon points="141.115,1.806 141.115,8.897 107.828,8.897 107.828,18.335 133.772,18.335 133.772,25.52 107.838,25.52 
			107.838,35.068 141.115,35.068 141.115,42.166 100.421,42.166 100.421,1.806 141.115,1.806 		"/>
		<path d="M51.092,1.739c0.329,0,0.62,0,0.911,0c6.123,0,12.246-0.017,18.369,0.005c4.956,0.018,9.535,1.307,13.523,4.325
			c4.314,3.265,6.807,7.634,7.501,12.994c0.644,4.976-0.215,9.667-2.987,13.905c-3.218,4.921-7.867,7.722-13.576,8.791
			c-1.639,0.307-3.333,0.428-5.003,0.443c-5.906,0.052-11.812,0.02-17.719,0.02c-0.321,0-0.642,0-1.02,0
			C51.092,28.724,51.092,15.302,51.092,1.739z M58.413,8.818c0,8.795,0,17.525,0,26.344c0.371,0,0.689,0,1.007,0
			c3.52,0,7.04,0.015,10.56-0.01c0.97-0.007,1.953-0.057,2.908-0.218c4.046-0.684,7.207-2.697,9.191-6.362
			c1.146-2.118,1.553-4.411,1.538-6.81c-0.044-7.267-5.292-12.758-12.545-12.95c-4.086-0.108-8.176-0.03-12.265-0.035
			C58.701,8.778,58.595,8.799,58.413,8.818z"/>
	</g>
</g>
</svg>
