<?xml version="1.0" encoding="UTF-8" standalone="no"?>
<svg width="537px" height="92px" viewBox="0 0 537 92" version="1.1" xmlns="http://www.w3.org/2000/svg" xmlns:xlink="http://www.w3.org/1999/xlink" xmlns:sketch="http://www.bohemiancoding.com/sketch/ns">
    <!-- Generator: Sketch 3.4 (15575) - http://www.bohemiancoding.com/sketch -->
    <title>madebymany_logo_tweaked</title>
    <desc>Created with Sketch.</desc>
    <defs>
        <path id="path-1" d="M0.06,0.681 L536.378,0.681 L536.378,92 L0.06,92"></path>
        <path id="path-3" d="M0.06,0.681 L536.378,0.681 L536.378,92 L0.06,92 L0.06,0.681 Z"></path>
    </defs>
    <g id="Page-1" stroke="none" stroke-width="1" fill="none" fill-rule="evenodd" sketch:type="MSPage">
        <g id="madebymany_logo_tweaked" sketch:type="MSLayerGroup">
            <g id="Group-3">
                <mask id="mask-2" sketch:name="Clip 2" fill="white">
                    <use xlink:href="#path-1"></use>
                </mask>
                <g id="Clip-2"></g>
                <path d="M530.802,1.89 C530.933,2.111 531.029,2.371 531.084,2.673 C531.613,5.6 529.828,8.971 528.697,11.583 C527.917,13.383 527.049,15.144 526.096,16.858 C525.173,18.518 524.172,19.768 522.978,21.193 C521.644,22.785 520.705,24.657 519.924,26.57 C519.125,28.525 518.519,30.554 517.703,32.502 C516.676,34.955 515.172,37.173 514.14,39.624 C513.022,42.276 512.351,45.111 510.993,47.662 C510.495,48.598 509.76,49.444 508.793,49.879 C507.826,50.313 506.609,50.272 505.782,49.609 C504.366,48.473 504.802,46.514 505.28,45.03 C505.829,43.329 506.719,41.574 507.414,39.889 C508.376,37.557 509.44,35.267 510.603,33.028 C511.842,30.643 513.516,28.797 513.788,25.98 C514.035,23.421 512.907,21.575 512.324,19.235 C511.632,16.455 511.324,13.59 510.646,10.805 C510.171,8.858 506.748,2.554 510.328,1.683 C513.427,0.929 514.462,6.279 515.107,8.296 C516.08,11.338 516.509,14.41 517.115,17.499 C517.213,17.994 517.862,18.146 518.166,17.742 C520.929,14.064 522.824,10.185 524.396,5.814 C524.892,4.435 525.12,2.676 526.066,1.52 C527.099,0.256 529.956,0.453 530.802,1.89" id="Fill-1" fill="#1A1918" sketch:type="MSShapeGroup" mask="url(#mask-2)"></path>
            </g>
            <path d="M491.693,8.648 C492.259,11.75 490.916,15.813 490.008,18.757 C488.792,22.698 487.045,26.487 484.761,29.924 C483.605,31.664 482.311,33.312 480.881,34.835 C479.603,36.195 478.018,38.105 476.207,38.712 C473.225,39.71 471.95,37.262 471.234,35.124 C470.346,32.471 469.677,29.746 468.885,27.064 C468.466,25.647 468.033,24.231 467.518,22.846 C467.228,22.069 466.679,19.685 465.428,20.628 C465.026,20.93 464.856,21.447 464.752,21.938 C464.525,23.015 464.22,24.038 463.977,25.116 C463.175,28.685 462.433,31.366 461.581,34.241 C460.899,36.544 460.385,38.892 459.902,41.243 C459.571,42.85 458.998,46.325 457.713,46.809 C456.441,47.288 454.945,46.302 454.356,45.242 C453.383,43.491 454.057,41.036 454.479,39.29 C455.504,35.047 456.581,30.814 457.799,26.621 C458.948,22.669 460.634,18.779 461.421,14.739 C461.682,13.39 462.119,11.562 463.398,10.805 C464.96,9.882 467.753,10.686 468.87,11.924 C470.434,13.658 473.407,24.674 474.423,27.954 C474.685,28.803 475.094,33.105 476.726,31.534 C477.2,31.078 479.205,27.516 479.665,26.741 C481.141,24.256 482.408,22.664 483.492,19.978 C484.579,17.283 485.024,14.392 485.7,11.581 C486.194,9.533 487.111,5.236 490.214,6.625 C491.11,7.027 491.533,7.77 491.693,8.648" id="Fill-4" fill="#1A1918" sketch:type="MSShapeGroup"></path>
            <path d="M375.505,15.212 C375.818,15.444 376.095,15.705 376.319,15.981 C377.241,17.118 377.556,18.713 377.977,20.078 C378.192,20.774 379.488,28.113 379.659,30.279 C379.687,30.633 380.062,30.85 380.388,30.708 C381.244,30.334 381.684,29.426 382.389,28.727 C384.268,26.865 385.959,24.963 387.726,22.991 C389.325,21.206 390.624,18.286 392.881,17.117 C394.526,16.266 397.027,16.897 397.778,18.408 C398.333,19.526 398.406,21.169 398.443,22.445 C398.516,24.957 398.124,27.515 397.898,30.024 C397.743,31.745 397.589,33.466 397.434,35.186 C397.288,36.805 397.298,38.445 397.01,40.042 C396.782,41.31 396.548,42.643 395.822,43.736 C395.012,44.957 393.74,44.029 392.927,43.181 C390.852,41.017 391.786,37.331 392.267,34.725 C392.56,33.134 392.881,31.546 393.052,29.935 C393.119,29.307 393.2,28.682 393.247,28.051 C393.288,27.489 393.577,25.849 393.012,25.508 C392.165,24.996 390.169,27.448 389.682,27.965 C388.532,29.187 387.441,30.468 386.407,31.788 C385.403,33.072 384.419,34.373 383.357,35.61 C382.517,36.589 381.315,38.356 379.994,38.642 C377.068,39.274 375.346,35.441 374.846,33.251 C374.456,31.546 374.347,29.796 374.224,28.056 C374.138,26.847 374.122,25.628 373.911,24.432 C373.831,23.976 373.813,23.376 373.396,23.128 C372.973,22.877 372.576,23.078 372.212,23.312 C370.752,24.246 370.299,25.956 369.561,27.477 C368.716,29.217 367.893,30.968 367.094,32.73 C365.838,35.495 364.769,38.34 363.523,41.109 C362.902,42.49 362.24,43.852 361.491,45.168 C360.825,46.339 360.274,47.558 359.59,48.704 C359.206,49.346 358.651,49.913 357.948,50.167 C356.472,50.701 355.079,49.451 354.842,48.026 C354.651,46.87 355.366,45.848 355.752,44.807 C356.905,41.698 358.925,38.977 360.398,36.004 C362.267,32.23 363.568,28.21 365.327,24.387 C366.551,21.726 367.956,19.026 369.705,16.679 C370.365,15.792 371.138,14.543 372.344,14.314 C373.387,14.115 374.595,14.538 375.505,15.212" id="Fill-5" fill="#1A1918" sketch:type="MSShapeGroup"></path>
            <path d="M311.092,14.566 C309.097,20.741 305.757,26.151 303.055,31.997 C301.528,35.301 300.276,38.733 299.315,42.245 C298.391,45.624 298.377,49.579 297.017,52.775 C296.609,53.736 296.129,55.602 294.793,55.586 C293.478,55.571 290.705,56.429 291.627,52.423 C291.856,51.427 292.109,50.098 292.352,49.102 C292.853,47.036 293.14,44.941 293.699,42.877 C294.326,40.564 294.981,38.211 294.843,35.79 C294.7,33.262 293.697,30.932 292.398,28.792 C291.098,26.653 289.545,24.678 288.294,22.508 C287.683,21.447 287.188,20.347 286.762,19.202 C286.687,19 286.646,18.769 286.737,18.574 C286.964,18.09 288.054,18.228 288.491,18.235 C289.197,18.246 289.921,18.361 290.523,18.752 C291.604,19.456 292.35,20.998 293.039,22.052 C294.016,23.547 294.921,25.089 295.749,26.672 C295.902,26.965 297.212,29.442 297.743,30.564 C297.859,30.808 298.198,30.83 298.337,30.598 C299.255,29.081 300.869,25.119 301.395,24.071 C302.262,22.342 303.157,20.627 304.078,18.926 C304.501,18.146 305.715,15.078 306.13,14.452 C306.767,13.491 307.796,12.615 308.607,12.601 C311.423,12.554 311.364,13.725 311.092,14.566" id="Fill-6" fill="#1A1918" sketch:type="MSShapeGroup"></path>
            <path d="M195.952,18.963 C196.615,19.761 196.984,22.361 195.737,22.92 C195.585,22.988 195.413,22.991 195.246,22.992 C190.082,23.026 184.936,23.504 179.783,23.782 C179.406,23.802 179.076,24.05 178.958,24.409 C177.525,28.777 176.796,33.306 175.684,37.757 C175.534,38.357 176.003,38.93 176.621,38.893 C177.054,38.867 177.452,38.849 177.531,38.841 C178.402,38.759 179.273,38.681 180.147,38.652 C181.55,38.605 183.389,38.547 184.562,39.464 C185.32,40.056 185.45,41.079 185.3,41.982 C185.079,43.316 184.025,43.4 182.899,43.628 C181.596,43.891 180.276,44.066 178.95,44.156 C178.074,44.215 177.196,44.236 176.318,44.229 C175.615,44.224 174.771,44.022 174.263,44.64 C173.991,44.971 173.84,45.393 173.773,45.816 C173.486,47.647 173.264,49.21 173.017,51.147 C172.919,51.921 172.611,53.679 173.512,53.717 C176.879,53.861 180.258,53.956 183.623,53.695 C184.797,53.604 186.529,53.078 187.644,53.675 C188.272,54.011 188.228,54.658 188.257,55.281 C188.258,55.306 188.259,55.331 188.261,55.357 C188.284,55.698 188.283,56.051 188.156,56.369 C187.955,56.874 187.527,56.976 187.056,57.122 C186.463,57.305 185.863,57.47 185.26,57.616 C184.07,57.903 182.864,58.119 181.65,58.278 C179.229,58.595 176.784,58.685 174.344,58.708 C173.208,58.718 172.072,58.714 170.936,58.711 C170.435,58.71 169.912,58.703 169.467,58.473 C168.959,58.21 168.627,57.684 168.469,57.134 C167.959,55.357 168.357,53.282 168.845,51.55 C169.468,49.338 170.612,46.798 170.299,44.459 C170.221,43.877 169.787,43.572 169.598,43.041 C169.391,42.457 169.443,41.775 169.71,41.219 C170.038,40.537 170.635,40.02 171.277,39.619 C171.567,39.438 171.875,39.271 172.099,39.012 C172.479,38.573 172.861,35.393 173.025,34.537 C173.539,31.847 173.956,29.037 174.182,26.269 C174.302,24.804 174.372,23.335 174.385,21.866 C174.395,20.711 174.659,19.465 175.575,18.657 C176.313,18.006 177.549,18.036 178.491,18.068 C181.057,18.154 183.622,17.998 186.183,17.854 C187.867,17.76 189.55,17.574 191.239,17.614 C192.782,17.65 194.881,17.686 195.952,18.963" id="Fill-7" fill="#1A1918" sketch:type="MSShapeGroup"></path>
            <path d="M434.79,28.687 C434.776,30.242 434.766,31.285 433.268,32.104 C433.008,32.247 432.745,32.349 432.504,32.396 C431.14,32.663 429.642,32.835 428.34,32.951 C427.55,33.021 423.99,33.527 424.807,31.857 C425.083,31.293 425.594,30.848 425.928,30.305 C426.362,29.597 426.798,28.889 427.233,28.182 C428.076,26.81 428.918,25.439 429.761,24.068 C430.389,23.046 431.04,22.034 431.616,20.984 C431.945,20.386 432.385,19.217 433.156,19.079 C435.124,18.726 434.809,26.574 434.79,28.687 L434.79,28.687 Z M440.361,32.877 C440.308,29.643 440.059,26.413 439.604,23.212 C439.117,19.781 438.176,16.438 437.7,13.011 C437.576,12.118 437.478,11.177 436.641,10.634 C436.614,10.616 436.586,10.599 436.558,10.583 C435.731,10.113 434.279,10.268 433.396,10.541 C431.822,11.028 430.788,13.312 429.974,14.596 C428.548,16.846 427.57,19.21 426.064,21.388 C424.363,23.847 422.684,26.321 421.084,28.848 C419.106,31.971 417.596,35.357 415.519,38.412 C414.401,40.057 412.778,41.501 411.878,43.265 C411.411,44.179 410.989,45.627 411.669,46.534 C412.154,47.181 413.052,47.32 413.855,47.408 C414.4,47.467 414.963,47.525 415.486,47.364 C416.225,47.136 416.769,46.505 417.162,45.839 C418.096,44.254 418.814,42.537 419.819,40.993 C420.33,40.206 420.824,39.362 421.589,38.792 C422.503,38.111 424.181,38.714 425.246,38.676 C427.648,38.589 430.11,38.127 432.326,37.18 C432.892,36.939 434.035,36.068 434.647,36.528 C434.854,36.683 434.941,36.947 435.005,37.198 C435.353,38.721 435.239,40.409 435.077,41.955 C434.983,42.852 434.295,44.13 434.702,45.003 C434.925,45.482 435.479,45.718 436.004,45.776 C436.93,45.877 438.02,45.868 438.871,45.447 C440.4,44.689 440.044,41.801 440.12,40.413 C440.257,37.904 440.403,35.391 440.361,32.877 L440.361,32.877 Z" id="Fill-8" fill="#1A1918" sketch:type="MSShapeGroup"></path>
            <path d="M38.446,48.262 C38.485,48.436 38.692,48.51 38.804,48.371 C41.358,45.206 43.181,41.52 45.545,38.219 C48.296,34.378 51.517,31.878 54.955,28.679 C55.752,27.937 57.335,26.498 58.574,26.858 C59.055,26.999 59.429,27.393 59.661,27.838 C60.662,29.76 60.824,32.349 60.98,34.55 C61.139,36.785 61.259,39.022 61.262,41.262 C61.269,45.973 61.044,50.68 61.044,55.39 C61.044,57.715 61.112,60.037 61.262,62.357 C61.365,63.945 60.842,65.839 59.223,66.489 C58.837,66.644 58.417,66.713 58.003,66.736 C57.246,56.228 57.83,31.679 56.916,31.964 C55.017,31.741 47.875,39.607 44.517,45.116 C43.334,47.057 42.329,49.158 41.245,51.15 C40.742,52.072 40.143,52.972 39.327,53.646 C38.631,54.222 36.988,55.335 36.382,54.419 C35.515,53.107 35.309,50.934 35.072,49.418 C34.479,45.612 34.425,41.748 33.941,37.929 C33.659,35.711 33.273,33.46 32.332,31.414 C32.022,30.738 31.999,30.594 31.462,31.132 C31.067,31.528 30.735,32.024 30.425,32.486 C28.735,35.009 28.649,37.702 27.979,40.569 C27.452,42.831 26.727,45.043 25.878,47.202 C24.026,51.912 21.404,56.178 19.205,60.703 C19.053,61.016 18.886,61.335 18.62,61.56 C18.354,61.785 17.964,61.898 17.649,61.748 C16.466,61.184 18.197,57.18 18.54,56.361 C19.339,54.459 20.366,52.664 21.235,50.795 C23.162,46.649 24.27,42.18 25.631,37.814 C26.992,33.449 28.66,29.084 31.518,25.515 C31.771,25.199 32.051,24.877 32.434,24.746 C34.534,24.027 35.834,28.784 36.213,30.115 C37.179,33.508 37.412,37.085 37.663,40.587 C37.766,42.028 37.861,43.469 37.986,44.908 C38.032,45.43 38.267,47.444 38.446,48.262" id="Fill-9" fill="#1A1918" sketch:type="MSShapeGroup"></path>
            <g id="Group-13">
                <mask id="mask-4" sketch:name="Clip 11" fill="white">
                    <use xlink:href="#path-3"></use>
                </mask>
                <g id="Clip-11"></g>
                <path d="M106.568,41.939 C106.564,41.95 106.558,41.96 106.553,41.97 C106.411,42.226 106.056,42.245 105.757,42.249 C103.892,42.272 102.672,42.319 101.111,42.335 C99.595,42.35 96.627,42.632 96.523,41.915 C96.283,41.319 97.288,40.057 97.828,39.386 C98.579,38.453 99.291,37.498 99.979,36.517 C101.318,34.607 102.656,32.657 103.799,30.622 C104.041,30.19 105.47,27.44 105.885,28.995 C106.218,30.32 106.159,31.876 106.231,33.236 C106.378,35.993 106.425,38.754 106.611,41.51 C106.621,41.655 106.629,41.807 106.568,41.939 L106.568,41.939 Z M111.448,54.051 C110.862,49.273 110.435,44.476 110.167,39.669 C110.011,36.853 109.909,34.035 109.862,31.215 C109.813,28.211 110.061,25.205 108.968,22.338 C108.096,20.052 106.531,22.251 105.663,23.245 C104.632,24.425 103.662,25.656 102.732,26.917 C100.906,29.391 99.24,31.977 97.567,34.554 C95.93,37.075 94.291,39.598 92.502,42.015 C90.835,41.811 89.951,42.477 89.516,44.125 C89.286,44.992 89.238,45.897 89.029,46.769 C88.572,48.63 87.422,50.173 86.407,51.762 C85.188,53.669 84.039,55.621 82.963,57.612 C81.748,59.861 80.436,61.939 81.365,64.562 C83.569,64.693 84.181,62.476 84.896,61.03 C86.116,58.564 87.377,56.116 88.744,53.728 C89.406,52.571 90.094,51.427 90.815,50.306 C91.281,49.583 92.006,47.895 92.807,47.541 C93.084,47.419 93.394,47.4 93.696,47.383 C98.129,47.133 102.606,46.663 107.051,46.883 C107.307,46.896 107.521,47.073 107.59,47.32 C108.52,50.667 106.712,61.236 109.616,61.846 C113.063,62.492 111.645,55.656 111.448,54.051 L111.448,54.051 Z" id="Fill-10" fill="#1A1918" sketch:type="MSShapeGroup" mask="url(#mask-4)"></path>
                <path d="M534.843,58.42 C532.885,60.51 528.853,59.939 526.052,60.342 C518.44,61.436 510.829,62.529 503.217,63.623 C489.347,65.617 475.484,67.679 461.603,69.604 C448.538,71.416 435.476,74.525 422.293,75.836 C411.322,76.927 400.273,77.242 389.258,76.773 C378.094,76.298 367.419,77.436 356.307,78.413 C335.895,80.207 315.387,80.918 294.899,80.541 C277.161,80.215 259.444,81.76 241.675,81.145 C225.151,80.573 208.72,81.797 192.242,81.797 C186.061,81.753 179.879,81.79 173.698,81.91 C156.821,82.237 140.007,83.804 123.136,83.794 C105.951,83.784 88.703,83.373 71.585,85.207 C66.794,85.716 60.254,85.61 56.645,86.023 C54.014,86.323 51.26,87.344 48.495,87.652 C40.411,88.553 32.86,87.333 24.962,89.776 C22.6,90.507 20.2,91.123 17.712,91.122 C15.213,91.12 12.922,92.046 10.465,91.998 C8.21,91.954 6.177,91.048 3.927,90.877 C2.608,90.777 1.141,90.429 0.455,89.298 C0.004,88.556 -0.004,87.638 0.001,86.77 C0.028,81.998 0.157,77.23 0.211,72.461 C1.741,70.543 2.196,69.554 4.638,69.372 C6.418,69.24 8.443,70.16 10.193,69.723 C11.979,69.557 13.624,68.383 15.354,68.093 C16.258,67.942 17.422,68.252 18.342,68.093 C29.193,66.215 40.306,66.125 51.257,65.158 C63.792,65.158 76.397,62.385 88.925,61.83 C101.318,61.28 113.829,61.886 126.239,62.071 C135.145,62.204 144.037,61.027 152.945,60.634 C164.306,60.132 175.642,60.663 186.986,60.414 C198.575,60.16 210.144,59.358 221.735,59.171 C235.551,58.995 249.273,60.121 263.097,59.129 C278.813,58.001 294.603,58.306 310.345,58.476 C324.312,58.628 338.431,59.322 352.207,56.502 C365.87,53.706 379.345,55.065 393.217,55.054 C403.972,55.046 414.737,54.948 425.542,53.968 C429.382,53.619 433.109,52.18 436.952,51.523 C440.5,50.916 444.155,50.582 447.818,49.893 C456.614,48.237 465.491,47.061 474.362,45.895 C478.777,45.315 483.232,44.466 487.667,44.1 C489.454,43.953 491.172,43.976 492.949,43.624 C494.65,43.287 496.671,42.091 498.344,42.015 C504.187,41.747 510.395,39.47 517.903,39.57 C520.666,39.608 526.82,39.072 529.313,38.212 C535.652,36.027 536.367,45.178 536.367,49.259 C536.367,51.635 536.539,55.176 535.526,57.394 C535.343,57.793 535.113,58.132 534.843,58.42" id="Fill-12" fill="#1A1918" sketch:type="MSShapeGroup" mask="url(#mask-4)"></path>
            </g>
            <path d="M148.406,34.929 C147.709,41.809 143.316,50.113 136.892,53.429 C135.787,53.999 134.568,53.143 134.527,51.9 C134.42,48.634 134.849,45.386 135.543,42.201 C136.39,38.313 137.524,34.527 138.269,30.615 C138.742,28.136 139.35,25.005 141.217,23.156 C141.925,22.455 142.837,22.077 143.834,22.295 C146.401,22.856 146.82,24.957 147.604,27.178 C148.486,29.676 148.671,32.307 148.406,34.929 L148.406,34.929 Z M149.509,22.011 C148.297,20.228 146.208,18.102 143.142,18.102 C140.165,18.101 137.517,18.324 135.931,22.843 C135.362,24.462 135.212,26.365 134.851,28.075 C134.359,30.403 134.074,32.768 133.554,35.09 C132.462,39.963 131.375,44.84 130.534,49.765 C130.315,51.044 130.112,52.325 129.928,53.609 C129.817,54.389 129.205,56.213 129.481,56.944 C130.185,58.809 132.668,59.782 134.538,59.63 C136.771,59.45 139.113,57.059 140.786,55.648 C145.701,51.498 150.659,46.237 152.065,39.811 C153.334,34.01 152.933,27.052 149.509,22.011 L149.509,22.011 Z" id="Fill-14" fill="#1A1918" sketch:type="MSShapeGroup"></path>
            <path d="M263.997,47.199 C263.646,48.545 262.428,49.435 260.565,49.704 C258.676,49.977 257.37,49.877 255.632,49.333 C255.327,49.238 255.016,49.125 254.799,48.944 C254.503,48.699 254.493,48.226 254.484,47.809 C254.482,47.701 254.48,47.597 254.474,47.5 C254.432,46.885 254.429,46.255 254.464,45.628 C254.526,44.527 254.71,43.426 254.911,42.301 C254.994,41.838 255.048,41.184 255.105,40.492 C255.182,39.573 255.299,38.184 255.473,37.989 C255.545,37.941 255.666,37.916 255.833,37.916 C256.04,37.916 256.271,37.953 256.477,37.985 C256.56,37.998 256.638,38.01 256.707,38.019 C257.543,38.126 257.862,38.215 258.633,38.461 C259.896,38.865 260.99,39.519 261.797,40.353 C263.062,41.661 263.535,43.585 263.955,45.283 L263.972,45.356 C264.136,46.018 264.143,46.637 263.997,47.199 L263.997,47.199 Z M257.105,29.889 C256.712,29.53 256.529,29.066 256.589,28.582 C256.825,26.691 257.131,25.257 257.583,23.931 C257.945,22.867 258.405,21.884 258.951,21.01 L259.088,20.787 C259.552,20.03 259.858,19.53 260.846,19.482 L261.221,19.463 C261.686,19.438 262.183,19.412 262.684,19.412 C264.343,19.412 265.37,19.719 266.013,20.406 C266.325,20.738 266.52,21.174 266.599,21.702 C266.642,21.991 266.658,22.296 266.648,22.609 C266.586,24.41 265.939,26.032 264.724,27.431 C263.486,28.857 261.75,29.797 259.263,30.39 C258.477,30.575 257.639,30.374 257.105,29.889 L257.105,29.889 Z M270.582,24.73 C270.879,22.794 270.712,21.014 270.084,19.438 C269.7,18.474 269.177,17.391 268.205,16.669 C268.008,16.523 267.798,16.395 267.58,16.288 C265.839,15.442 263.184,15.351 262.124,15.351 C256.267,15.351 254.837,19.275 253.181,25.738 C252.832,27.098 252.368,28.347 251.879,29.669 C251.718,30.106 251.555,30.545 251.396,30.99 C250.719,32.886 250.836,34.931 251.012,36.862 L251.047,37.243 C251.163,38.494 251.284,39.788 251.193,41.052 C251.148,41.684 251.008,42.315 250.871,42.925 C250.738,43.518 250.6,44.13 250.549,44.751 C250.495,45.387 250.425,46.02 250.355,46.651 C250.09,49.045 249.816,51.52 250.507,53.994 C250.666,54.567 251.256,55.023 251.974,55.127 C253.272,55.317 254.541,55.413 255.746,55.413 C261.502,55.413 265.933,53.28 267.906,49.562 C270.16,45.313 268.584,40.036 263.796,35.79 L263.08,35.155 L263.975,34.699 C267.17,33.073 269.948,28.881 270.582,24.73 L270.582,24.73 Z" id="Fill-15" fill="#1A1918" sketch:type="MSShapeGroup"></path>
        </g>
    </g>
</svg>