<?xml version="1.0" encoding="utf-8"?>
<!-- Generator: Adobe Illustrator 18.0.0, SVG Export Plug-In . SVG Version: 6.00 Build 0)  -->
<!DOCTYPE svg PUBLIC "-//W3C//DTD SVG 1.1//EN" "http://www.w3.org/Graphics/SVG/1.1/DTD/svg11.dtd">
<svg version="1.1" id="Layer_1" xmlns="http://www.w3.org/2000/svg" xmlns:xlink="http://www.w3.org/1999/xlink" x="0px" y="0px"
	 viewBox="0 0 206.544 24.484" style="enable-background:new 0 0 206.544 24.484;" xml:space="preserve">
<style type="text/css">
	.st0{fill:#62C3B0;}
	.st1{fill:#EF5126;}
	.st2{fill:#B271A2;}
	.st3{fill:#FDC255;}
	.st4{fill:#53BFD5;}
	.st5{fill:#187FB8;}
	.st6{fill:#24A9E6;}
	.st7{fill:#E9F0F5;}
	.st8{fill:#4BCBB5;}
	.st9{fill:#231F20;}
	.st10{fill:#7D6A55;}
	.st11{fill:#662D91;}
	.st12{fill:#ED217C;}
	.st13{fill:#C49A6C;}
	.st14{fill:url(#SVGID_1_);}
	.st15{fill:#A332B5;}
	.st16{fill:#0546B3;}
	.st17{fill:#3580ED;}
	.st18{fill:#C6CBCF;}
	.st19{fill:#E03D3E;}
	.st20{fill:#FFFFFF;}
</style>
<g>
	<path class="st9" d="M2.092,4.484c0,6.423,0,12.847,0,19.332c-0.755,0-1.382,0-2.092,0C0,16.131,0,8.51,0,0.819
		c1.005,0,1.94,0,2.971,0c3.22,6.861,6.455,13.753,9.786,20.849c3.265-7.074,6.44-13.953,9.627-20.856c0.964,0,1.857,0,2.852,0
		c0,7.628,0,15.25,0,22.972c-0.293,0.03-0.619,0.081-0.946,0.092c-0.297,0.01-0.595-0.023-1.008-0.042c0-6.623,0-13.212,0-19.801
		c-0.084-0.021-0.169-0.042-0.253-0.063c-3.04,6.596-6.079,13.191-9.143,19.84c-0.774,0-1.532,0-2.388,0
		C8.477,17.359,5.449,10.894,2.42,4.428C2.311,4.447,2.202,4.466,2.092,4.484z"/>
	<path class="st9" d="M101.645,23.831c-0.677,0-1.267,0-1.979,0c0-6.631,0-13.214,0-19.798c-0.08-0.018-0.16-0.037-0.241-0.055
		c-3.041,6.599-6.081,13.198-9.142,19.839c-0.746,0-1.468,0-2.376,0c-3.005-6.412-6.049-12.906-9.093-19.399
		c-0.093,0.015-0.187,0.03-0.28,0.045c0,6.437,0,12.873,0,19.345c-0.808,0-1.437,0-2.14,0c0-7.66,0-15.248,0-22.948
		c0.97,0,1.935,0,2.998,0c3.192,6.805,6.413,13.67,9.761,20.806c3.273-7.086,6.452-13.966,9.637-20.861c0.974,0,1.867,0,2.854,0
		C101.645,8.455,101.645,16.077,101.645,23.831z"/>
	<path class="st9" d="M117.606,2.686c0,2.74,0,5.315,0,8.058c3.04,0,6.047,0,9.054,0c3.019,0,6.038,0,9.156,0
		c0,0.678,0,1.25,0,2.008c-3.011,0-6.019,0-9.027,0c-3.019,0-6.039,0-9.149,0c0,3.039,0,5.996,0,9.115c6.833,0,13.677,0,20.603,0
		c0,0.706,0,1.251,0,1.905c-7.597,0-15.216,0-22.93,0c0-7.616,0-15.238,0-22.942c7.328,0,14.612,0,22.008,0c0,0.555,0,1.123,0,1.856
		C130.744,2.686,124.202,2.686,117.606,2.686z"/>
	<path class="st9" d="M50.631,24.482c-2.312-0.016-4.55-0.411-6.648-1.41c-4.292-2.044-6.573-5.525-6.796-10.205
		C36.965,8.19,38.873,4.481,42.974,2.06c5.122-3.024,12.406-2.675,16.884,0.76c6.706,5.143,5.958,15.624-1.411,19.753
		C56.108,23.883,53.502,24.52,50.631,24.482z M39.683,12.236c-0.038,4.799,2.642,8.407,7.212,9.694
		c2.594,0.73,5.215,0.781,7.799,0.039c3.96-1.137,6.252-3.867,6.983-7.86c0.725-3.962-0.269-7.394-3.618-9.868
		C55.583,2.41,52.7,1.935,49.699,2.12C43.765,2.487,39.728,6.586,39.683,12.236z"/>
	<path class="st9" d="M152.808,4.277c0,6.498,0,12.997,0,19.548c-0.753,0-1.347,0-2.053,0c0-7.644,0-15.262,0-22.978
		c0.315-0.032,0.641-0.079,0.968-0.095c0.343-0.017,0.688-0.004,1.056-0.004c6.502,6.653,12.988,13.29,19.661,20.117
		c0-6.782,0-13.344,0-20.01c0.772,0,1.395,0,2.118,0c0,7.6,0,15.221,0,22.934c-0.693,0-1.363,0-2.13,0
		c-6.382-6.494-12.824-13.051-19.267-19.608C153.043,4.213,152.925,4.245,152.808,4.277z"/>
	<path class="st9" d="M184.18,2.734c0-0.764,0-1.303,0-1.914c7.472,0,14.879,0,22.363,0c0,0.602,0,1.142,0,1.847
		c-3.275,0-6.489,0-9.851,0c0,7.136,0,14.108,0,21.145c-0.779,0-1.406,0-2.177,0c0-7.002,0-13.976,0-21.078
		C191.025,2.734,187.671,2.734,184.18,2.734z"/>
</g>
</svg>
