<?xml version="1.0" encoding="utf-8"?>
<!-- Generator: Adobe Illustrator 18.0.0, SVG Export Plug-In . SVG Version: 6.00 Build 0)  -->
<!DOCTYPE svg PUBLIC "-//W3C//DTD SVG 1.1//EN" "http://www.w3.org/Graphics/SVG/1.1/DTD/svg11.dtd">
<svg version="1.1" id="Layer_1" xmlns="http://www.w3.org/2000/svg" xmlns:xlink="http://www.w3.org/1999/xlink" x="0px" y="0px"
	 viewBox="0 0 172.715 45.565" style="enable-background:new 0 0 172.715 45.565;" xml:space="preserve">
<style type="text/css">
	.st0{fill:#62C3B0;}
	.st1{fill:#EF5126;}
	.st2{fill:#B271A2;}
	.st3{fill:#FDC255;}
	.st4{fill:#53BFD5;}
	.st5{fill:#187FB8;}
	.st6{fill:#24A9E6;}
	.st7{fill:#E9F0F5;}
	.st8{fill:#4BCBB5;}
	.st9{fill:#231F20;}
	.st10{fill:#7D6A55;}
	.st11{fill:#662D91;}
	.st12{fill:#ED217C;}
	.st13{fill:#C49A6C;}
	.st14{fill:url(#SVGID_1_);}
	.st15{fill:#A332B5;}
	.st16{fill:#0546B3;}
	.st17{fill:#3580ED;}
	.st18{fill:#C6CBCF;}
	.st19{fill:#E03D3E;}
	.st20{fill:#FFFFFF;}
</style>
<g>
	<g>
		<g>
			<path class="st16" d="M0,24.137V0.405h10.086c2.536,0,4.378,0.213,5.528,0.639s2.07,1.184,2.761,2.275
				c0.69,1.09,1.035,2.337,1.035,3.739c0,1.781-0.523,3.251-1.57,4.411c-1.047,1.161-2.612,1.892-4.694,2.193
				c1.035,0.605,1.891,1.268,2.566,1.991c0.674,0.723,1.583,2.008,2.728,3.853l2.897,4.63h-5.731l-3.465-5.164
				c-1.23-1.845-2.072-3.008-2.525-3.489c-0.453-0.479-0.934-0.809-1.44-0.987c-0.508-0.178-1.312-0.267-2.412-0.267H4.792v9.907H0z
				 M4.792,10.442h3.545c2.299,0,3.734-0.097,4.307-0.291c0.571-0.194,1.02-0.529,1.343-1.004c0.324-0.475,0.486-1.068,0.486-1.781
				c0-0.799-0.214-1.443-0.64-1.934S12.805,4.63,12.028,4.5c-0.389-0.053-1.554-0.08-3.497-0.08H4.792V10.442z"/>
			<path class="st16" d="M22.842,15.298c0-1.511,0.373-2.974,1.118-4.387c0.744-1.414,1.799-2.493,3.165-3.238
				c1.365-0.745,2.89-1.118,4.573-1.118c2.601,0,4.733,0.845,6.395,2.534c1.662,1.689,2.493,3.823,2.493,6.403
				c0,2.6-0.839,4.756-2.517,6.467c-1.678,1.71-3.791,2.566-6.338,2.566c-1.576,0-3.079-0.357-4.509-1.068
				c-1.43-0.712-2.517-1.757-3.262-3.133C23.215,18.949,22.842,17.273,22.842,15.298z M27.504,15.541
				c0,1.705,0.405,3.011,1.214,3.917c0.809,0.907,1.808,1.36,2.995,1.36c1.187,0,2.183-0.453,2.987-1.36
				c0.803-0.906,1.206-2.222,1.206-3.95c0-1.683-0.402-2.978-1.206-3.884c-0.804-0.907-1.8-1.36-2.987-1.36
				c-1.187,0-2.186,0.453-2.995,1.36C27.909,12.53,27.504,13.836,27.504,15.541z"/>
			<path class="st16" d="M43.094,15.298c0-1.511,0.373-2.974,1.118-4.387c0.744-1.414,1.799-2.493,3.165-3.238
				c1.365-0.745,2.89-1.118,4.573-1.118c2.601,0,4.733,0.845,6.395,2.534s2.493,3.823,2.493,6.403c0,2.6-0.839,4.756-2.517,6.467
				c-1.678,1.71-3.791,2.566-6.338,2.566c-1.576,0-3.079-0.357-4.509-1.068c-1.43-0.712-2.517-1.757-3.262-3.133
				C43.467,18.949,43.094,17.273,43.094,15.298z M47.756,15.541c0,1.705,0.405,3.011,1.214,3.917c0.809,0.907,1.808,1.36,2.995,1.36
				s2.183-0.453,2.987-1.36c0.803-0.906,1.206-2.222,1.206-3.95c0-1.683-0.402-2.978-1.206-3.884c-0.804-0.907-1.8-1.36-2.987-1.36
				s-2.186,0.453-2.995,1.36C48.161,12.53,47.756,13.836,47.756,15.541z"/>
			<path class="st16" d="M80.036,24.137h-4.548v-8.774c0-1.856-0.098-3.057-0.292-3.602c-0.194-0.545-0.509-0.969-0.946-1.271
				c-0.437-0.302-0.964-0.453-1.579-0.453c-0.788,0-1.495,0.217-2.121,0.648c-0.625,0.432-1.055,1.003-1.287,1.716
				c-0.232,0.712-0.348,2.029-0.348,3.95v7.787h-4.549V6.945h4.226V9.47c1.5-1.942,3.388-2.914,5.666-2.914
				c1.003,0,1.921,0.181,2.752,0.542c0.83,0.362,1.46,0.823,1.886,1.384c0.426,0.561,0.723,1.198,0.89,1.91s0.25,1.732,0.25,3.06
				V24.137z"/>
			<path class="st16" d="M94.606,18.665l4.532,0.761c-0.582,1.662-1.502,2.927-2.76,3.796c-1.257,0.869-2.831,1.303-4.719,1.303
				c-2.99,0-5.202-0.976-6.638-2.93c-1.133-1.565-1.699-3.54-1.699-5.925c0-2.849,0.744-5.08,2.234-6.694
				c1.489-1.613,3.372-2.421,5.65-2.421c2.558,0,4.575,0.845,6.055,2.534c1.478,1.689,2.186,4.277,2.121,7.762H87.985
				c0.032,1.35,0.398,2.399,1.1,3.149c0.702,0.751,1.576,1.125,2.623,1.125c0.712,0,1.311-0.194,1.797-0.583
				C93.99,20.155,94.358,19.529,94.606,18.665z M94.864,14.068c-0.032-1.317-0.372-2.317-1.02-3.003
				c-0.647-0.685-1.435-1.029-2.363-1.029c-0.994,0-1.814,0.363-2.461,1.085c-0.648,0.723-0.966,1.705-0.955,2.947H94.864z"/>
			<path class="st16" d="M100.935,6.945h4.84l4.112,12.206l4.015-12.206h4.711l-6.071,16.544l-1.085,2.995
				c-0.399,1.003-0.78,1.77-1.142,2.299c-0.362,0.529-0.776,0.958-1.246,1.287c-0.47,0.33-1.047,0.586-1.732,0.77
				c-0.685,0.183-1.46,0.275-2.323,0.275c-0.874,0-1.732-0.092-2.573-0.275l-0.405-3.561c0.712,0.14,1.354,0.21,1.927,0.21
				c1.058,0,1.84-0.31,2.347-0.931c0.507-0.621,0.895-1.41,1.165-2.371L100.935,6.945z"/>
			<path class="st17" d="M130.77,24.137V0.405h7.69c2.914,0,4.813,0.119,5.698,0.356c1.36,0.356,2.498,1.131,3.416,2.323
				c0.916,1.193,1.376,2.734,1.376,4.622c0,1.457-0.265,2.682-0.794,3.675c-0.529,0.994-1.201,1.773-2.016,2.339
				c-0.815,0.566-1.642,0.942-2.484,1.125c-1.144,0.226-2.801,0.34-4.97,0.34h-3.124v8.952H130.77z M135.562,4.42v6.734h2.623
				c1.888,0,3.152-0.124,3.788-0.372c0.637-0.248,1.136-0.637,1.497-1.166c0.362-0.529,0.542-1.144,0.542-1.845
				c0-0.863-0.253-1.576-0.761-2.136c-0.507-0.562-1.149-0.913-1.926-1.053c-0.572-0.107-1.722-0.161-3.448-0.161H135.562z"/>
			<path class="st17" d="M168.069,15.411l4.646,1.473c-0.712,2.59-1.897,4.514-3.554,5.771c-1.657,1.257-3.759,1.886-6.305,1.886
				c-3.152,0-5.741-1.077-7.771-3.23c-2.029-2.153-3.043-5.097-3.043-8.831c0-3.95,1.02-7.017,3.06-9.203
				C157.143,1.092,159.824,0,163.148,0c2.903,0,5.262,0.858,7.074,2.574c1.079,1.014,1.889,2.471,2.428,4.371l-4.744,1.133
				c-0.28-1.231-0.865-2.201-1.756-2.914s-1.973-1.068-3.246-1.068c-1.759,0-3.186,0.631-4.282,1.894
				c-1.095,1.263-1.643,3.308-1.643,6.136c0,3,0.539,5.137,1.619,6.41c1.079,1.273,2.482,1.91,4.209,1.91
				c1.273,0,2.368-0.405,3.286-1.214C167.012,18.423,167.67,17.15,168.069,15.411z"/>
		</g>
		<g>
			<path class="st18" d="M23.431,45.414v-8.887h1.206l4.667,6.978v-6.978h1.127v8.887h-1.206l-4.667-6.984v6.984H23.431z"/>
			<path class="st18" d="M31.85,45.414v-8.887h6.425v1.049h-5.249v2.722h4.917v1.042h-4.917v3.025h5.456v1.049H31.85z"/>
			<path class="st18" d="M41.074,45.414l-2.358-8.887h1.206l1.352,5.825c0.146,0.611,0.271,1.217,0.376,1.819
				c0.226-0.95,0.36-1.497,0.4-1.643l1.691-6.001h1.418l1.273,4.498c0.32,1.116,0.55,2.164,0.691,3.147
				c0.113-0.562,0.261-1.206,0.443-1.934l1.394-5.71h1.182l-2.437,8.887h-1.133l-1.874-6.771c-0.158-0.566-0.251-0.914-0.278-1.043
				c-0.094,0.409-0.18,0.756-0.261,1.043l-1.885,6.771H41.074z"/>
			<path class="st18" d="M55.801,45.414v-3.764l-3.424-5.123h1.431l1.752,2.68c0.323,0.501,0.625,1.002,0.903,1.503
				c0.267-0.465,0.59-0.988,0.971-1.57l1.721-2.613h1.371l-3.547,5.123v3.764H55.801z"/>
			<path class="st18" d="M60.638,41.086c0-1.475,0.395-2.63,1.188-3.465c0.792-0.834,1.815-1.252,3.066-1.252
				c0.822,0,1.56,0.196,2.22,0.589c0.658,0.392,1.16,0.939,1.506,1.64c0.346,0.701,0.518,1.496,0.518,2.385
				c0,0.901-0.182,1.707-0.545,2.419s-0.88,1.25-1.546,1.615c-0.667,0.366-1.386,0.549-2.159,0.549
				c-0.836,0-1.583-0.202-2.243-0.606c-0.658-0.404-1.158-0.956-1.496-1.655C60.807,42.605,60.638,41.866,60.638,41.086z
				 M61.85,41.104c0,1.07,0.288,1.914,0.863,2.531c0.576,0.616,1.299,0.924,2.167,0.924c0.886,0,1.613-0.311,2.185-0.934
				c0.572-0.623,0.858-1.505,0.858-2.649c0-0.723-0.122-1.355-0.367-1.895c-0.244-0.539-0.601-0.957-1.072-1.255
				c-0.471-0.297-1-0.446-1.585-0.446c-0.832,0-1.549,0.286-2.149,0.858C62.151,38.811,61.85,39.766,61.85,41.104z"/>
			<path class="st18" d="M70.086,45.414v-8.887h3.94c0.792,0,1.394,0.08,1.807,0.24c0.412,0.16,0.741,0.442,0.988,0.846
				c0.246,0.404,0.369,0.851,0.369,1.34c0,0.63-0.204,1.161-0.612,1.594c-0.409,0.432-1.039,0.707-1.892,0.825
				c0.311,0.149,0.548,0.297,0.71,0.442c0.344,0.315,0.669,0.71,0.976,1.182l1.545,2.419h-1.479l-1.176-1.849
				c-0.343-0.533-0.626-0.942-0.849-1.224c-0.222-0.283-0.421-0.481-0.597-0.595c-0.175-0.113-0.354-0.191-0.536-0.236
				c-0.133-0.028-0.352-0.043-0.655-0.043h-1.363v3.946H70.086z M71.263,40.449h2.527c0.537,0,0.958-0.055,1.261-0.166
				c0.304-0.111,0.534-0.289,0.692-0.534c0.157-0.245,0.236-0.51,0.236-0.797c0-0.421-0.153-0.767-0.458-1.037
				c-0.305-0.271-0.787-0.406-1.445-0.406h-2.812V40.449z"/>
			<path class="st18" d="M78.401,45.414v-8.887h1.177v4.407l4.413-4.407h1.594l-3.728,3.601l3.891,5.286h-1.551l-3.165-4.498
				l-1.455,1.419v3.079H78.401z"/>
			<path class="st18" d="M106.159,45.414v-8.887h1.176v7.838h4.376v1.049H106.159z"/>
			<path class="st18" d="M112.171,41.086c0-1.475,0.396-2.63,1.188-3.465c0.792-0.834,1.815-1.252,3.067-1.252
				c0.82,0,1.56,0.196,2.219,0.589c0.658,0.392,1.161,0.939,1.506,1.64c0.345,0.701,0.518,1.496,0.518,2.385
				c0,0.901-0.182,1.707-0.545,2.419c-0.364,0.712-0.879,1.25-1.546,1.615c-0.667,0.366-1.386,0.549-2.158,0.549
				c-0.837,0-1.585-0.202-2.243-0.606c-0.659-0.404-1.158-0.956-1.498-1.655C112.341,42.605,112.171,41.866,112.171,41.086z
				 M113.383,41.104c0,1.07,0.288,1.914,0.864,2.531c0.575,0.616,1.297,0.924,2.166,0.924c0.885,0,1.613-0.311,2.186-0.934
				c0.571-0.623,0.857-1.505,0.857-2.649c0-0.723-0.123-1.355-0.366-1.895c-0.246-0.539-0.603-0.957-1.073-1.255
				c-0.472-0.297-1-0.446-1.585-0.446c-0.832,0-1.549,0.286-2.149,0.858C113.683,38.811,113.383,39.766,113.383,41.104z"/>
			<path class="st18" d="M121.588,45.414v-8.887h1.206l4.668,6.978v-6.978h1.127v8.887h-1.206l-4.668-6.984v6.984H121.588z"/>
			<path class="st18" d="M129.983,45.414v-8.887h3.061c0.691,0,1.219,0.043,1.583,0.128c0.509,0.117,0.944,0.33,1.303,0.636
				c0.469,0.396,0.819,0.903,1.052,1.519c0.233,0.617,0.349,1.321,0.349,2.113c0,0.675-0.079,1.272-0.237,1.794
				c-0.158,0.521-0.36,0.952-0.606,1.293c-0.247,0.342-0.516,0.611-0.809,0.806c-0.293,0.196-0.647,0.345-1.06,0.446
				c-0.415,0.102-0.89,0.152-1.428,0.152H129.983z M131.159,44.365h1.898c0.586,0,1.045-0.054,1.38-0.163
				c0.333-0.109,0.598-0.263,0.797-0.461c0.278-0.278,0.496-0.654,0.652-1.124c0.156-0.471,0.234-1.041,0.234-1.712
				c0-0.93-0.153-1.644-0.458-2.143c-0.305-0.499-0.676-0.833-1.112-1.003c-0.315-0.121-0.823-0.182-1.522-0.182h-1.868V44.365z"/>
			<path class="st18" d="M138.007,41.086c0-1.475,0.396-2.63,1.189-3.465c0.791-0.834,1.814-1.252,3.066-1.252
				c0.821,0,1.56,0.196,2.22,0.589c0.657,0.392,1.16,0.939,1.506,1.64c0.345,0.701,0.518,1.496,0.518,2.385
				c0,0.901-0.182,1.707-0.545,2.419c-0.364,0.712-0.88,1.25-1.547,1.615c-0.667,0.366-1.386,0.549-2.158,0.549
				c-0.837,0-1.584-0.202-2.243-0.606c-0.659-0.404-1.158-0.956-1.497-1.655C138.177,42.605,138.007,41.866,138.007,41.086z
				 M139.22,41.104c0,1.07,0.288,1.914,0.864,2.531c0.576,0.616,1.298,0.924,2.167,0.924c0.885,0,1.612-0.311,2.185-0.934
				c0.572-0.623,0.858-1.505,0.858-2.649c0-0.723-0.123-1.355-0.367-1.895c-0.245-0.539-0.602-0.957-1.073-1.255
				c-0.471-0.297-1-0.446-1.585-0.446c-0.831,0-1.549,0.286-2.148,0.858C139.52,38.811,139.22,39.766,139.22,41.104z"/>
			<path class="st18" d="M147.426,45.414v-8.887h1.206l4.668,6.978v-6.978h1.127v8.887h-1.206l-4.667-6.984v6.984H147.426z"/>
		</g>
	</g>
	<g>
		<circle class="st18" cx="95.409" cy="40.464" r="1.897"/>
	</g>
</g>
</svg>
