<?xml version="1.0" encoding="utf-8"?>
<!-- Generator: Adobe Illustrator 18.0.0, SVG Export Plug-In . SVG Version: 6.00 Build 0)  -->
<!DOCTYPE svg PUBLIC "-//W3C//DTD SVG 1.1//EN" "http://www.w3.org/Graphics/SVG/1.1/DTD/svg11.dtd">
<svg version="1.1" id="Layer_1" xmlns="http://www.w3.org/2000/svg" xmlns:xlink="http://www.w3.org/1999/xlink" x="0px" y="0px"
	 viewBox="0 0 199.353 36.425" style="enable-background:new 0 0 199.353 36.425;" xml:space="preserve">
<style type="text/css">
	.st0{fill:#62C3B0;}
	.st1{fill:#EF5126;}
	.st2{fill:#B271A2;}
	.st3{fill:#FDC255;}
	.st4{fill:#53BFD5;}
	.st5{fill:#187FB8;}
	.st6{fill:#24A9E6;}
	.st7{fill:#E9F0F5;}
	.st8{fill:#4BCBB5;}
	.st9{fill:#231F20;}
	.st10{fill:#7D6A55;}
	.st11{fill:#662D91;}
	.st12{fill:#ED217C;}
	.st13{fill:#C49A6C;}
	.st14{fill:url(#SVGID_1_);}
	.st15{fill:#A332B5;}
	.st16{fill:#0546B3;}
	.st17{fill:#3580ED;}
	.st18{fill:#C6CBCF;}
	.st19{fill:#E03D3E;}
	.st20{fill:#FFFFFF;}
</style>
<g id="uOByLJ.tif_1_">
	<g>
		<path d="M199.353,17.607c-0.1,0.334-0.211,0.664-0.297,1.001c-0.778,3.067-2.556,5.469-4.942,7.474
			c-1.935,1.626-4.13,2.807-6.499,3.776c-0.25,2.666-1.109,5.003-3.754,6.567c0.274-1.888,0.762-3.623,0.205-5.305
			c-1.994,0.24-3.926,0.56-5.871,0.689c-5.146,0.339-10.117-0.451-14.831-2.604c-3.001-1.371-5.649-3.227-7.654-5.893
			c-3.668-4.878-3.42-10.847,0.614-15.439c2.344-2.668,5.266-4.476,8.544-5.749c2.919-1.134,5.947-1.78,9.074-1.963
			c0.313-0.018,0.622-0.106,0.932-0.161c0.93,0,1.861,0,2.791,0c1.086,0.135,2.174,0.256,3.258,0.408
			c3.743,0.525,7.29,1.637,10.541,3.597c2.893,1.744,5.327,3.957,6.763,7.078c0.484,1.051,0.756,2.2,1.125,3.304
			C199.353,15.46,199.353,16.534,199.353,17.607z"/>
		<path d="M25.271,32.623c-1.763,0-3.328,0-4.976,0c0-9.135,0-18.234,0-27.412c1.573,0,3.167,0,4.912,0
			c0.059,1.151,0.019,2.353,0.026,3.551c0.007,1.252,0.002,2.504,0.002,3.756c0,1.207,0,2.415,0,3.679c3.845,0,7.586,0,11.494,0
			c0.032-1.818,0.011-3.626,0.015-5.433c0.004-1.822,0.001-3.644,0.001-5.549c1.676,0,3.294,0,4.969,0c0,9.128,0,18.229,0,27.387
			c-1.64,0-3.231,0-4.956,0c0-3.976,0-7.921,0-11.916c-3.877,0-7.621,0-11.487,0C25.271,24.631,25.271,28.579,25.271,32.623z"/>
		<path d="M51.489,9.27c0,2.374,0,4.614,0,7.021c3.353,0.015,6.73-0.002,10.226,0.009c0.131,1.347,0.032,2.652,0.065,4.063
			c-3.434,0-6.813,0-10.27,0c0,2.733,0,5.358,0,8.114c3.792,0,7.596,0,11.457,0c0,1.437,0,2.744,0,4.05
			c-0.813,0.223-13.875,0.317-16.363,0.12c-0.245-0.736-0.352-25.314-0.119-27.386c0.78-0.217,14.624-0.26,15.842-0.038
			c0,1.297,0,2.604,0,4.047C58.719,9.27,55.132,9.27,51.489,9.27z"/>
		<path d="M0,31.408c0.387-1.449,0.75-2.81,1.093-4.097c1.517,0.475,2.888,0.98,4.297,1.324c1.248,0.305,2.544,0.423,3.827,0.126
			c0.518-0.12,1.052-0.245,1.525-0.477c2.327-1.136,2.713-4.189,0.655-5.76c-0.947-0.723-2.089-1.227-3.201-1.693
			c-1.65-0.693-3.288-1.372-4.755-2.433C-0.77,15.357-0.371,9.214,3.752,6.433C5.21,5.45,6.837,4.914,8.563,4.751
			c2.185-0.207,4.36-0.084,6.47,0.602c0.572,0.186,1.126,0.427,1.791,0.683c-0.412,1.385-0.804,2.7-1.225,4.114
			c-0.365-0.133-0.654-0.229-0.936-0.341c-1.891-0.752-3.833-1.129-5.87-0.784C7.929,9.169,7.145,9.49,6.513,10.122
			c-1.179,1.179-1.238,2.985-0.017,4.115c0.642,0.595,1.431,1.068,2.221,1.458c1.247,0.615,2.56,1.096,3.829,1.668
			c1.28,0.577,2.468,1.313,3.431,2.348c3.362,3.616,2.275,9.633-2.165,12.003c-1.735,0.927-3.601,1.321-5.563,1.386
			c-2.39,0.079-4.703-0.249-6.94-1.092C0.885,31.848,0.483,31.631,0,31.408z"/>
		<path d="M95.292,4.958c1.51,0,2.933,0,4.468,0c3.135,9.157,6.275,18.331,9.476,27.684c-1.37,0.029-2.626,0.022-3.956,0
			c-0.992-2.925-1.974-5.824-2.964-8.743c-3.264,0-6.471,0-9.744,0c-0.951,2.89-1.897,5.764-2.86,8.69c-1.258,0-2.482,0-3.833,0
			C89.028,23.347,92.144,14.199,95.292,4.958z M101.488,20.986c-1.392-4.214-2.742-8.3-4.061-12.294
			c-1.318,4.031-2.661,8.137-4.021,12.294C96.146,20.986,98.749,20.986,101.488,20.986z"/>
		<path d="M67.733,31.319c0.322-1.047,0.614-1.997,0.938-3.051c0.441,0.211,0.813,0.399,1.194,0.57
			c2.302,1.036,4.684,1.558,7.197,0.983c2.831-0.648,4.299-3.118,3.523-5.854c-0.297-1.047-0.926-1.89-1.84-2.424
			c-1.136-0.663-2.331-1.237-3.542-1.756c-1.417-0.607-2.824-1.214-4.051-2.168c-1.247-0.97-2.173-2.167-2.587-3.716
			c-0.824-3.085,0.396-6.193,3.092-7.93c1.228-0.791,2.582-1.252,4.013-1.406c2.412-0.26,4.785-0.047,7.059,0.873
			c0.223,0.09,0.427,0.229,0.701,0.379c-0.336,1.002-0.66,1.967-0.96,2.86c-1.318-0.364-2.536-0.761-3.782-1.028
			c-1.126-0.241-2.278-0.201-3.401,0.112c-1.69,0.472-2.856,1.5-3.16,3.274c-0.287,1.674,0.325,3.082,1.734,3.988
			c1.162,0.748,2.438,1.337,3.707,1.897c1.574,0.695,3.141,1.38,4.463,2.515c1.579,1.356,2.407,3.065,2.471,5.15
			c0.036,1.191-0.059,2.356-0.519,3.472c-1.005,2.436-2.89,3.883-5.356,4.552c-3.434,0.931-6.801,0.579-10.062-0.823
			C68.307,31.678,68.073,31.513,67.733,31.319z"/>
		<path d="M130.854,31.336c0.33-1.07,0.622-2.019,0.946-3.069c0.443,0.212,0.816,0.402,1.198,0.573
			c2.268,1.015,4.612,1.545,7.092,0.996c1.985-0.439,3.373-1.566,3.736-3.649c0.356-2.041-0.373-3.69-2.137-4.766
			c-1.06-0.646-2.214-1.153-3.362-1.638c-1.42-0.6-2.807-1.238-4.054-2.163c-4.063-3.013-3.637-9.133,0.608-11.71
			c1.15-0.698,2.388-1.142,3.714-1.308c2.525-0.316,4.994-0.096,7.366,0.886c0.19,0.079,0.361,0.2,0.599,0.334
			c-0.337,1.002-0.661,1.966-0.986,2.931c-0.925-0.315-1.752-0.645-2.606-0.877c-1.466-0.398-2.956-0.516-4.451-0.133
			c-1.746,0.447-2.945,1.481-3.26,3.3c-0.299,1.724,0.378,3.137,1.822,4.054c1.137,0.722,2.385,1.286,3.624,1.828
			c1.577,0.69,3.142,1.379,4.463,2.516c1.578,1.358,2.404,3.067,2.466,5.152c0.035,1.192-0.059,2.357-0.522,3.472
			c-1.027,2.474-2.949,3.916-5.463,4.574c-3.366,0.881-6.663,0.547-9.857-0.816C131.498,31.7,131.226,31.532,130.854,31.336z"/>
		<path d="M108.32,4.968c1.446,0,2.789,0,4.209,0c2.204,4.352,4.411,8.711,6.611,13.056c2.25-4.355,4.507-8.722,6.751-13.067
			c1.414,0,2.731,0,4.216,0c-0.255,0.46-0.447,0.825-0.655,1.181c-2.691,4.594-5.373,9.194-8.09,13.773
			c-0.42,0.707-0.599,1.404-0.59,2.222c0.033,3.076,0.013,6.153,0.013,9.229c0,0.388,0,0.775,0,1.229c-1.241,0-2.4,0-3.694,0
			c0-0.395,0-0.776,0-1.157c0-3.22-0.008-6.439,0.008-9.659c0.003-0.555-0.126-1.033-0.395-1.52
			c-2.632-4.751-5.246-9.511-7.863-14.27C108.673,5.678,108.522,5.363,108.32,4.968z"/>
	</g>
</g>
</svg>
