<?xml version="1.0" encoding="utf-8"?>
<!-- Generator: Adobe Illustrator 18.0.0, SVG Export Plug-In . SVG Version: 6.00 Build 0)  -->
<!DOCTYPE svg PUBLIC "-//W3C//DTD SVG 1.1//EN" "http://www.w3.org/Graphics/SVG/1.1/DTD/svg11.dtd">
<svg version="1.1" id="Layer_1" xmlns="http://www.w3.org/2000/svg" xmlns:xlink="http://www.w3.org/1999/xlink" x="0px" y="0px"
	 viewBox="0 0 221.469 45.834" style="enable-background:new 0 0 221.469 45.834;" xml:space="preserve">
<style type="text/css">
	.st0{fill:#62C3B0;}
	.st1{fill:#EF5126;}
	.st2{fill:#B271A2;}
	.st3{fill:#FDC255;}
	.st4{fill:#53BFD5;}
	.st5{fill:#187FB8;}
	.st6{fill:#24A9E6;}
	.st7{fill:#E9F0F5;}
	.st8{fill:#4BCBB5;}
	.st9{fill:#231F20;}
	.st10{fill:#7D6A55;}
	.st11{fill:#662D91;}
	.st12{fill:#ED217C;}
	.st13{fill:#C49A6C;}
	.st14{fill:url(#SVGID_1_);}
	.st15{fill:#A332B5;}
	.st16{fill:#0546B3;}
	.st17{fill:#3580ED;}
	.st18{fill:#C6CBCF;}
	.st19{fill:#E03D3E;}
	.st20{fill:#FFFFFF;}
	.st21{fill:#F37321;}
</style>
<g>
	<path class="st21" d="M39.086,26.326c-1.232-1.904-2.423-3.744-3.614-5.585c-0.072,0.018-0.144,0.036-0.216,0.054
		c0,3.026,0,6.052,0,9.121c-0.918,0-1.69,0-2.541,0c0-4.628,0-9.236,0-13.93c0.856,0,1.722,0,2.689,0
		c1.193,1.893,2.428,3.853,3.695,5.865c1.273-2.008,2.514-3.964,3.741-5.901c0.905,0,1.744,0,2.65,0c0,4.657,0,9.265,0,13.944
		c-0.818,0-1.616,0-2.515,0c0-3.033,0-6.042,0-9.052c-0.081-0.041-0.162-0.082-0.244-0.123
		C41.535,22.56,40.337,24.402,39.086,26.326z"/>
	<path class="st21" d="M209.601,15.938c1.006,0,1.917,0,2.842,0c1.962,2.891,3.912,5.763,5.861,8.635
		c0.084-0.014,0.168-0.029,0.251-0.043c0-2.825,0-5.649,0-8.55c1.066,0,1.956,0,2.913,0c0,4.649,0,9.258,0,13.926
		c-0.964,0-1.871,0-2.859,0c-1.943-2.846-3.913-5.731-5.883-8.617c-0.09,0.024-0.181,0.048-0.271,0.072c0,2.841,0,5.682,0,8.56
		c-1.031,0-1.902,0-2.855,0C209.601,25.275,209.601,20.666,209.601,15.938z"/>
	<path class="st21" d="M128.739,15.798c2.348,0.112,4.618,0.052,6.836,0.366c3.229,0.456,5.189,2.685,5.341,5.929
		c0.06,1.271-0.071,2.628-0.469,3.828c-0.899,2.704-3.163,3.744-5.786,3.961c-1.934,0.16-3.892,0.031-5.922,0.031
		C128.739,25.276,128.739,20.666,128.739,15.798z M131.77,27.381c2.072,0.069,4.169,0.358,5.395-1.725
		c1.039-1.765,1.061-3.692-0.02-5.448c-1.248-2.029-3.309-1.84-5.375-1.704C131.77,21.456,131.77,24.346,131.77,27.381z"/>
	<path class="st21" d="M74.557,24.794c0,0.901,0,1.735,0,2.569c0,0.803,0,1.605,0,2.504c-1.01,0-1.973,0-3.004,0
		c0-4.626,0-14.044,0-14.044s3.122,0,6.953,0c2.793,0,4.222,1.891,4.489,3.607c0.349,2.242-0.596,3.906-2.147,4.662
		c-0.066,0.032-0.677,0.266-0.934,0.329l3.232,5.44h-3.285l-2.859-5.067C77.002,24.794,75.729,24.794,74.557,24.794z M74.611,22.392
		c0,0,2.093,0,2.475,0s1.009-0.025,1.38-0.074c0.992-0.132,1.562-1.006,1.513-1.996c-0.046-0.941-0.65-1.751-1.587-1.824
		c-1.236-0.097-2.486-0.024-3.782-0.024C74.611,19.824,74.611,22.392,74.611,22.392z"/>
	<path class="st21" d="M199.893,24.243c-1.091,0-2.036,0-3.065,0c0-0.725,0-1.353,0-2.055c1.933,0,3.825,0,5.806,0
		c0,2.112,0,4.199,0,6.315c-2.557,2.357-7.818,2.259-10.41-0.223c-2.588-2.479-2.844-7.356-0.53-10.09
		c2.566-3.032,7.378-3.396,10.895-0.744c-0.501,0.649-1.002,1.298-1.546,2.003c-1.533-0.89-3.106-1.585-4.814-0.944
		c-0.779,0.293-1.57,0.844-2.085,1.492c-1.35,1.699-1.169,4.67,0.234,6.307c1.175,1.371,3.413,1.672,5.515,0.664
		c0-0.389,0-0.84,0-1.292C199.893,25.257,199.893,24.837,199.893,24.243z"/>
	<path class="st21" d="M150.429,27.285c2.438,0,4.763,0,7.145,0c0,0.925,0,1.742,0,2.619c-3.426,0-6.778,0-10.205,0
		c0-4.646,0-9.256,0-13.935c3.35,0,6.662,0,10.064,0c0,0.84,0,1.659,0,2.628c-2.317,0-4.631,0-7.014,0c0,1.05,0,1.954,0,3.006
		c2.053,0,4.133,0,6.279,0c0,0.85,0,1.553,0,2.369c-2.087,0-4.138,0-6.269,0C150.429,25.089,150.429,26.096,150.429,27.285z"/>
	<path class="st21" d="M56.669,15.936c1.208,0,2.311,0,3.509,0c1.668,4.614,3.335,9.227,5.044,13.953c-1.157,0-2.168,0-3.263,0
		c-0.285-0.785-0.58-1.598-0.89-2.455c-1.736,0-3.449,0-5.276,0c-0.276,0.781-0.565,1.598-0.873,2.469c-1.019,0-2.04,0-3.282,0
		C53.325,25.218,54.984,20.614,56.669,15.936z M58.528,19.71c-0.084,0.013-0.168,0.026-0.252,0.039
		c-0.547,1.682-1.093,3.364-1.657,5.1c1.255,0,2.38,0,3.612,0C59.641,23.07,59.084,21.39,58.528,19.71z"/>
	<path class="st21" d="M16.673,28.682c0.561-0.908,1.017-1.646,1.38-2.234c1.365,0.366,2.599,0.759,3.862,1.005
		c0.531,0.103,1.142-0.041,1.682-0.193c0.545-0.154,0.998-0.582,0.866-1.184c-0.093-0.425-0.392-0.929-0.751-1.144
		c-0.576-0.345-1.275-0.487-1.927-0.701c-0.761-0.25-1.548-0.433-2.286-0.737c-1.604-0.659-2.499-1.853-2.49-3.629
		c0.009-1.765,0.909-2.964,2.478-3.665c1.726-0.772,3.518-0.639,5.292-0.212c0.807,0.194,1.578,0.533,2.467,0.841
		c-0.407,0.855-0.758,1.593-1.067,2.242c-1.354-0.237-2.575-0.508-3.81-0.64c-0.497-0.053-1.089,0.089-1.528,0.337
		c-0.879,0.497-0.873,1.512-0.006,2.03c0.482,0.288,1.054,0.431,1.595,0.609c0.979,0.321,1.999,0.539,2.94,0.944
		c1.645,0.708,2.429,2.015,2.355,3.827c-0.066,1.622-1.006,2.963-2.639,3.542C22.176,30.752,19.462,30.061,16.673,28.682z"/>
	<path class="st21" d="M174.021,16.839c-0.403,0.844-0.746,1.562-1.125,2.357c-0.364-0.11-0.672-0.25-0.994-0.293
		c-1.201-0.163-2.403-0.366-3.61-0.408c-0.638-0.022-1.175,0.443-1.294,1.113c-0.126,0.713,0.329,1.157,0.958,1.379
		c0.718,0.253,1.46,0.437,2.186,0.669c0.691,0.221,1.402,0.404,2.055,0.709c1.625,0.758,2.41,2.061,2.297,3.867
		c-0.106,1.709-1.023,2.854-2.574,3.473c-1.813,0.723-3.681,0.637-5.523,0.127c-0.974-0.27-1.906-0.689-2.967-1.082
		c0.553-0.925,1-1.67,1.388-2.318c1.326,0.363,2.551,0.769,3.809,1.01c0.566,0.108,1.248,0.005,1.778-0.228
		c0.374-0.164,0.781-0.695,0.806-1.086c0.024-0.386-0.319-0.96-0.67-1.168c-0.61-0.361-1.348-0.506-2.034-0.738
		c-0.83-0.282-1.687-0.501-2.485-0.854c-1.469-0.65-2.219-1.825-2.239-3.44c-0.02-1.61,0.718-2.802,2.115-3.548
		c1.832-0.978,3.774-0.85,5.706-0.374C172.407,16.202,173.176,16.542,174.021,16.839z"/>
	<path class="st21" d="M100.74,18.682c-1.537,0-2.979,0-4.575,0c0,3.79,0,7.481,0,11.225c-1.097,0-2.036,0-3.085,0
		c0-3.714,0-7.377,0-11.187c-1.569,0-3.04,0-4.584,0c0-0.97,0-1.794,0-2.719c4.045,0,8.11,0,12.243,0
		C100.74,16.846,100.74,17.671,100.74,18.682z"/>
	<path class="st21" d="M180.974,15.945c1.003,0,1.91,0,2.901,0c0,4.652,0,9.26,0,13.944c-0.946,0-1.882,0-2.901,0
		C180.974,25.275,180.974,20.666,180.974,15.945z"/>
	<path class="st21" d="M112.954,4.583v36.667H4.583V4.583H112.954 M117.537,0H0v45.834h117.537V0L117.537,0z"/>
</g>
</svg>
