<?xml version="1.0" encoding="utf-8"?>
<!-- Generator: Adobe Illustrator 18.0.0, SVG Export Plug-In . SVG Version: 6.00 Build 0)  -->
<!DOCTYPE svg PUBLIC "-//W3C//DTD SVG 1.1//EN" "http://www.w3.org/Graphics/SVG/1.1/DTD/svg11.dtd">
<svg version="1.1" id="Layer_1" xmlns="http://www.w3.org/2000/svg" xmlns:xlink="http://www.w3.org/1999/xlink" x="0px" y="0px"
	 viewBox="0 0 144 41.04" style="enable-background:new 0 0 144 41.04;" xml:space="preserve">
<style type="text/css">
	.st0{fill:#62C3B0;}
	.st1{fill:#EF5126;}
	.st2{fill:#B271A2;}
	.st3{fill:#FDC255;}
	.st4{fill:#53BFD5;}
	.st5{fill:#6F6F6F;}
	.st6{fill:#FFFFFF;}
	.st7{fill:#4BCBB5;}
</style>
<g id="VZDwEI_1_">
	<g>
		<path d="M27.12,0C54.08,0,81.04,0,108,0c1.669,1.132,3.667,5.112,3.122,6.527c-13.872,0-27.813,0-41.753,0
			c0.532,0.53,1.097,0.826,1.646,1.146c1.374,0.801,1.75,1.663,1.407,3.208c-0.069,0.311-0.165,0.618-0.263,0.922
			c-1.311,4.067-2.628,8.132-3.936,12.2c-0.754,2.346-1.495,4.696-2.242,7.044c0.48-0.183,0.778-0.477,1.056-0.789
			c4.263-4.769,8.52-9.544,12.786-14.31c1.306-1.459,2.593-2.939,3.963-4.337c1.089-1.111,2.141-1.203,3.469-0.389
			c0.849,0.52,1.65,1.127,2.432,1.745c1.344,1.062,1.716,2.365,1.127,4.039c-1.1,3.126-2.089,6.292-3.119,9.442
			c-0.123,0.375-0.214,0.761-0.379,1.354c0.336-0.229,0.443-0.284,0.528-0.363c4.001-3.739,8.007-7.472,11.994-11.226
			c0.949-0.893,1.989-1.687,2.547-2.966c0.364-0.835,1.087-0.999,1.931-0.574c0.815,0.41,1.585,0.927,2.325,1.466
			c1.816,1.323,2.083,2.335,1.376,4.445c-0.99,2.952-1.932,5.92-2.888,8.884c-0.074,0.229-0.093,0.477-0.172,0.906
			c0.358-0.328,0.574-0.503,0.764-0.702c3.667-3.85,7.328-7.705,10.996-11.554c1.323-1.388,2.602-2.826,4.01-4.124
			c1.671-1.54,3.831-1.723,5.511-0.581c0.958,0.651,1.89,1.349,2.776,2.094c1.5,1.262,1.752,2.793,0.801,4.499
			c-0.35,0.628-0.733,1.238-1.1,1.856c-1.615,2.72-3.135,5.493-3.962,8.566c-0.349,1.298-0.632,2.663-0.628,3.996
			c0.007,2.316,1.852,3.544,3.947,2.57c1.304-0.606,2.53-1.541,3.549-2.569c2.569-2.589,4.036-5.834,4.913-9.33
			c0.347-1.384,0.432-2.836,0.613-4.259c0.083-0.654-0.184-1.127-0.771-1.486c-0.919-0.563-1.805-1.184-2.684-1.81
			c-0.951-0.676-0.989-1.222-0.056-1.838c1.132-0.748,2.286-1.486,3.502-2.081c2.389-1.17,4.502-0.491,5.789,1.833
			c0.454,0.821,0.721,1.746,1.074,2.623c0,1.6,0,3.2,0,4.8c-0.088,0.344-0.199,0.684-0.259,1.033
			c-0.652,3.781-1.883,7.348-3.97,10.584c-2.78,4.31-6.44,7.392-11.689,8.185c-2.013,0.304-3.994,0.125-5.905-0.565
			c-3.001-1.083-4.704-3.807-4.816-7.586c-0.144-4.845,1.402-9.185,3.937-13.231c-0.01,0.007-0.02,0.015-0.031,0.022
			c-0.308,0.204-0.67,0.358-0.916,0.62c-2.678,2.857-5.338,5.732-8.004,8.601c-3.319,3.571-6.635,7.145-9.961,10.71
			c-1.255,1.346-1.999,1.433-3.558,0.443c-0.607-0.385-1.197-0.798-1.787-1.209c-1.925-1.341-2.111-1.926-1.319-4.122
			c0.108-0.3,0.226-0.597,0.346-0.894c0.958-2.369,1.921-4.737,2.874-7.108c0.103-0.255,0.154-0.53,0.305-1.063
			c-3.551,3.376-6.877,6.542-10.208,9.704c-1.623,1.541-3.232,3.096-4.888,4.601c-1.079,0.981-1.663,0.984-2.886,0.173
			c-0.899-0.597-1.768-1.239-2.679-1.816c-0.89-0.565-1.231-1.332-1.001-2.348c0.115-0.506,0.249-1.009,0.414-1.501
			c1.228-3.674,2.48-7.339,3.696-11.017c0.637-1.928,1.215-3.874,1.82-5.813c0.02-0.056,0.039-0.112,0.059-0.168
			c-0.011,0.063-0.023,0.126-0.034,0.188c-0.32,0.272-0.681,0.509-0.953,0.823c-4.324,4.98-8.634,9.973-12.953,14.957
			c-1.858,2.144-3.699,4.305-5.61,6.402c-0.964,1.058-1.759,1.123-3.011,0.46c-0.528-0.28-1.027-0.617-1.525-0.95
			c-3.115-2.085-3.315-2.572-2.189-6.126c2.665-8.411,5.363-16.812,8.043-25.219c0.113-0.353,0.187-0.718,0.304-1.171
			c-0.61,0-1.046,0-1.482,0c-10.996,0-21.992-0.014-32.989,0.019c-1.284,0.004-2.139-0.439-2.678-1.586
			c-0.527-1.12-1.081-2.228-1.634-3.335C26.566,0.983,26.51,0.442,27.12,0z"/>
		<path d="M0,35.04c0.752-2.098,1.52-4.19,2.251-6.296C3.52,25.09,4.765,21.428,6.05,17.682c-1.076-0.739-2.128-1.45-3.166-2.179
			c-1.125-0.791-1.141-1.353,0.007-2.054c1.328-0.812,2.687-1.578,4.057-2.317c1.027-0.554,2.06-0.538,3.053,0.154
			c0.918,0.64,1.868,1.232,2.779,1.881c1.254,0.894,1.475,1.575,0.946,3.108c-1.145,3.321-2.324,6.631-3.487,9.946
			c-0.167,0.477-0.322,0.959-0.295,1.556c1.166-1.004,2.335-2.003,3.497-3.012c3.108-2.698,6.17-5.452,9.34-8.076
			c1.303-1.079,1.98-2.465,2.633-3.919c1.124-2.506,1.714-2.666,4.005-1.058c2.65,1.861,2.879,2.536,1.809,5.62
			c-1.505,4.337-3.186,8.616-4.189,13.113c-0.058,0.258-0.092,0.522,0.01,0.866c0.831-0.905,1.668-1.804,2.493-2.714
			c4.829-5.33,9.654-10.664,14.482-15.995c1.903-2.102,3.698-2.398,6.2-1.029c0.175,0.096,0.34,0.214,0.523,0.293
			c2.195,0.946,2.974,2.629,2.923,4.98c-0.133,6.073-0.154,12.149-0.173,18.224c-0.005,1.616-0.642,2.735-2.075,3.472
			c-1.557,0.801-3.082,1.664-4.621,2.5c-0.4,0-0.8,0-1.2,0c-1.087-0.477-2.172-0.958-3.262-1.428
			c-1.433-0.618-2.154-1.746-2.253-3.258c-0.07-1.074-0.065-2.157-0.026-3.233c0.043-1.185,0.499-1.496,1.623-1.17
			c0.381,0.11,0.742,0.291,1.11,0.444c0.832,0.345,1.662,0.693,2.674,1.116c0-5.791,0-11.366,0-17.053
			c-0.223,0.206-0.35,0.304-0.454,0.422C40.07,22.476,35.13,28.075,30.19,33.674c-1.638,1.856-3.256,3.731-4.92,5.564
			c-1.275,1.405-2.311,1.503-3.895,0.45c-0.731-0.486-1.428-1.025-2.168-1.499c-1.401-0.897-1.861-2.153-1.409-3.717
			c0.376-1.301,0.838-2.576,1.264-3.863c0.36-1.088,0.721-2.174,1.082-3.262c0.042-0.024,0.085-0.048,0.074-0.042
			c0.008-0.01-0.022,0.028-0.052,0.066c-0.432,0.335-0.893,0.639-1.293,1.009c-3.973,3.681-7.936,7.374-11.903,11.062
			c-1.318,1.225-1.7,1.266-3.205,0.225C2.495,38.789,1.254,37.864,0,36.96C0,36.32,0,35.68,0,35.04z"/>
	</g>
</g>
</svg>
