<?xml version="1.0" encoding="utf-8"?>
<!-- Generator: Adobe Illustrator 18.0.0, SVG Export Plug-In . SVG Version: 6.00 Build 0)  -->
<!DOCTYPE svg PUBLIC "-//W3C//DTD SVG 1.1//EN" "http://www.w3.org/Graphics/SVG/1.1/DTD/svg11.dtd">
<svg version="1.1" id="Layer_1" xmlns="http://www.w3.org/2000/svg" xmlns:xlink="http://www.w3.org/1999/xlink" x="0px" y="0px"
	 viewBox="0 0 184.237 39.285" style="enable-background:new 0 0 184.237 39.285;" xml:space="preserve">
<style type="text/css">
	.st0{fill:#62C3B0;}
	.st1{fill:#EF5126;}
	.st2{fill:#B271A2;}
	.st3{fill:#FDC255;}
	.st4{fill:#53BFD5;}
	.st5{fill:#187FB8;}
	.st6{fill:#24A9E6;}
	.st7{fill:#E9F0F5;}
	.st8{fill:#4BCBB5;}
	.st9{fill:#231F20;}
	.st10{fill:#7D6A55;}
	.st11{fill:#662D91;}
	.st12{fill:#ED217C;}
	.st13{fill:#C49A6C;}
	.st14{fill:url(#SVGID_1_);}
	.st15{fill:#A332B5;}
	.st16{fill:#0546B3;}
	.st17{fill:#3580ED;}
	.st18{fill:#C6CBCF;}
	.st19{fill:#E03D3E;}
	.st20{fill:#FFFFFF;}
</style>
<g>
	<g id="hiAZts.tif_1_">
		<g>
			<g>
				<path class="st10" d="M166.541,39.285c0-1.105,0-2.209,0-3.461c0.865,0,1.396-0.008,2.11-0.008c1.144,0,2.151-0.675,2.659-2
					c0.253-0.659,0.465-1.306,0.753-2.104c-1.759-0.158-2.257-1.401-2.746-2.725c-2.028-5.49-4.097-10.964-6.149-16.445
					c-0.173-0.463-0.325-0.692-0.564-1.384c1.234,0,1.989,0,3.399,0c0.852,0,1.285,0.449,1.553,1.23
					c0.656,1.908,1.353,3.802,2.029,5.703c0.929,2.614,1.85,5.231,2.783,7.844c0.201,0.563,0.444,1.111,0.643,1.608
					c0.892,0.309,1.03-0.274,1.224-0.805c0.987-2.701,1.98-5.4,2.972-8.099c0.905-2.461,1.813-4.922,2.756-7.481
					c1.397,0,2.783,0,4.273,0c-0.094,0.371-6.072,16.078-8.967,23.613c-0.653,1.699-1.616,3.067-3.23,3.78
					c-0.277,0.122-0.788,0.354-1.137,0.449c-0.349,0.095-0.847,0.286-2.259,0.286C168.048,39.285,167.451,39.285,166.541,39.285z"/>
				<path class="st10" d="M105.22,39.285c0-1.105,0-2.209,0-3.461c0.865,0,1.396-0.008,2.11-0.008c1.144,0,2.151-0.675,2.659-2
					c0.253-0.659,0.465-1.306,0.753-2.104c-1.759-0.158-2.257-1.401-2.746-2.725c-2.028-5.49-4.097-10.964-6.149-16.445
					c-0.173-0.463-0.325-0.692-0.564-1.384c1.234,0,1.85,0,3.399,0c0.852,0,1.285,0.449,1.553,1.23
					c0.656,1.908,1.353,3.802,2.029,5.703c0.929,2.614,1.85,5.231,2.783,7.844c0.201,0.563,0.444,1.111,0.643,1.608
					c0.892,0.309,1.03-0.274,1.224-0.805c0.987-2.701,1.98-5.4,2.972-8.099c0.905-2.461,1.813-4.922,2.756-7.481
					c1.397,0,2.783,0,4.273,0c-0.094,0.371-6.072,16.078-8.967,23.613c-0.653,1.699-1.616,3.067-3.23,3.78
					c-0.277,0.122-0.788,0.354-1.137,0.449c-0.349,0.095-0.847,0.286-2.259,0.286C106.727,39.285,106.13,39.285,105.22,39.285z"/>
				<path class="st10" d="M142.191,2.336v28.763c0,0-1.518,0.139-2.255-0.223c-0.72-0.354-0.811-0.795-1.229-1.481
					c-3.152,2.553-6.728,2.58-10.381,1.966c-2.415-0.406-4.123-1.842-5.067-4.099c-0.347-0.829-0.592-1.722-0.738-2.61
					c-0.447-2.711-0.461-5.437,0.159-8.12c0.818-3.535,3.116-5.571,6.95-5.902c1.832-0.158,3.748-0.047,5.557,0.354
					c1.318,0.292,1.963,0.671,2.853,1.297c0-0.494-0.002-0.821,0-1.186c0.012-2.323-0.004-4.646,0.011-6.969
					c0.01-1.562,0.212-1.757,1.743-1.787C140.544,2.324,142.191,2.336,142.191,2.336z M126.361,21.108
					c0,0.988,0.234,2.236,0.509,3.297c0.471,1.816,1.682,3.045,3.554,3.261c1.322,0.153,2.714,0.053,4.03-0.183
					c1.747-0.313,2.788-1.55,3.225-3.236c0.54-2.08,0.554-4.188,0.052-6.277c-0.398-1.653-1.434-2.773-3.103-3.169
					c-1.424-0.338-2.867-0.459-4.338-0.152c-1.814,0.379-2.995,1.421-3.44,3.19C126.582,18.902,126.361,20.12,126.361,21.108z"/>
				<path class="st10" d="M158.207,17.984c-0.146-2.339-0.631-2.959-2.558-3.377c-2.144-0.466-4.286-0.239-6.314,0.516
					c-0.634,0.236-1.099,0.436-1.838,0.796c-0.673-1.018-1.366-2.037-2.035-3.049c0.525-0.31,0.921-0.596,1.357-0.794
					c3.565-1.615,7.283-1.978,11.098-1.204c2.24,0.455,3.701,1.796,4.078,4.119c0.161,0.992,0.265,2.002,0.282,3.005
					c0.04,2.424,0.023,4.849,0.023,7.274c0,1.035,0.017,1.676,0.249,1.968c0.341,0.43,0.985,0.379,1.494,0.379
					c0,1.149,0,2.428,0,3.639c-2.06,0.185-3.972,0.366-5.143-1.75c-3.319,2.553-7.055,2.505-10.833,1.77
					c-2.469-0.48-3.782-2.201-3.977-4.709c-0.008-0.101-0.019-0.201-0.024-0.302c-0.236-4.443,0.91-7.047,6.695-7.841
					c1.942-0.266,3.924-0.246,5.887-0.356C157.138,18.04,157.628,18.015,158.207,17.984z M158.127,21.55
					c-2.387-0.102-4.658-0.005-6.932,0.35c-0.541,0.084-1.089,0.233-1.589,0.454c-1.26,0.559-1.754,1.623-1.59,3.261
					c0.121,1.203,0.747,1.991,2.106,2.191c1.225,0.181,2.516,0.268,3.731,0.085C157.276,27.377,158.7,25.261,158.127,21.55z"/>
				<path class="st10" d="M63.089,31.506c-1.705,0-3.312,0.03-4.916-0.009c-1.391-0.034-2.161-0.853-2.623-2.124
					c-1.379-3.792-2.813-7.564-4.22-11.346c-1.547-4.16-3.088-8.323-4.629-12.485c-0.137-0.369-0.257-0.744-0.435-1.265
					c1.227,0,2.322-0.075,3.401,0.021c1.096,0.097,1.578,0.935,1.922,1.897c1.186,3.325,2.405,6.639,3.607,9.959
					c1.235,3.415,2.452,6.837,3.71,10.244c0.187,0.508,0.177,1.282,1.263,1.223c1.166-2.406,1.901-5.068,2.871-7.633
					c0.981-2.594,1.892-5.215,2.832-7.825c0.939-2.607,1.875-5.216,2.83-7.874c1.464,0,2.86,0,4.519,0
					c-0.965,3.173-2.224,6.11-3.328,9.099c-1.118,3.028-2.273,6.044-3.408,9.066C65.35,25.472,64.22,28.491,63.089,31.506z"/>
				<path class="st10" d="M74.124,22.833c0.112,3.018,1.294,4.527,3.909,5.053c2.275,0.458,4.522,0.291,6.66-0.689
					c1.874-0.858,2.044-0.831,3.235,0.771c0.237,0.318,0.447,0.657,0.702,1.034c-0.949,0.964-2.068,1.526-3.261,1.906
					c-3.1,0.989-6.248,1.066-9.401,0.277c-3.033-0.759-4.863-2.727-5.566-5.755c-0.636-2.743-0.665-5.502-0.086-8.252
					c0.773-3.67,3.034-5.855,6.751-6.389c1.487-0.213,3.023-0.324,4.515-0.21c3.931,0.299,5.99,2.209,6.829,6.092
					c0.339,1.571,0.415,4.892,0.093,6.162C83.786,22.833,79.019,22.833,74.124,22.833z M74.144,19.273
					c3.564-0.003,7.013,0.043,10.438-0.028c0.301-3.131-0.741-4.575-3.527-4.938c-0.931-0.121-1.912-0.057-2.846,0.081
					C75.621,14.77,74.319,16.303,74.144,19.273z"/>
				<path class="st10" d="M100.361,11.131c0.491,1.286,0.939,2.458,1.416,3.705c-1.028,0.168-1.967,0.267-2.878,0.48
					c-2.49,0.582-3.706,1.912-4.051,4.462c-0.121,0.895-0.105,1.812-0.111,2.72c-0.014,2.375-0.005,4.75-0.005,7.125
					c0,0.493,0,0.987,0,1.581c-1.419,0-4.055,0-4.055,0s0-15.411,0-19.984c1.92,0,2.918,0.72,3.543,1.938
					C95.856,11.397,97.926,10.921,100.361,11.131z"/>
			</g>
		</g>
	</g>
	<g>
		<polygon class="st11" points="0,8.261 0,21.856 20.039,38.694 20.039,25.172 		"/>
		<polygon class="st12" points="20.039,8.245 9.775,0 0,8.261 0,8.261 20.039,25.172 		"/>
		<polygon class="st13" points="30.529,0 20.137,8.324 20.039,8.245 20.039,25.172 20.039,25.172 20.039,38.694 20.066,38.716 
			40.017,21.856 40.017,8.261 		"/>
	</g>
	<linearGradient id="SVGID_1_" gradientUnits="userSpaceOnUse" x1="20.0394" y1="19.358" x2="40.0166" y2="19.358">
		<stop  offset="0" style="stop-color:#8B5E3C"/>
		<stop  offset="0.0613" style="stop-color:#926542"/>
		<stop  offset="0.3377" style="stop-color:#AD8259"/>
		<stop  offset="0.5777" style="stop-color:#BE9467"/>
		<stop  offset="0.7529" style="stop-color:#C49A6C"/>
	</linearGradient>
	<polygon class="st14" points="30.529,0 20.137,8.324 20.039,8.245 20.039,25.172 20.039,25.172 20.039,38.694 20.066,38.716 
		40.017,21.856 40.017,8.261 	"/>
</g>
</svg>
