<?xml version="1.0" encoding="utf-8"?>
<!-- Generator: Adobe Illustrator 18.0.0, SVG Export Plug-In . SVG Version: 6.00 Build 0)  -->
<!DOCTYPE svg PUBLIC "-//W3C//DTD SVG 1.1//EN" "http://www.w3.org/Graphics/SVG/1.1/DTD/svg11.dtd">
<svg version="1.1" id="Layer_1" xmlns="http://www.w3.org/2000/svg" xmlns:xlink="http://www.w3.org/1999/xlink" x="0px" y="0px"
	 viewBox="0 0 222.957 26.042" style="enable-background:new 0 0 222.957 26.042;" xml:space="preserve">
<style type="text/css">
	.st0{fill:#62C3B0;}
	.st1{fill:#EF5126;}
	.st2{fill:#B271A2;}
	.st3{fill:#FDC255;}
	.st4{fill:#53BFD5;}
	.st5{fill:#187FB8;}
	.st6{fill:#24A9E6;}
	.st7{fill:#E9F0F5;}
	.st8{fill:#4BCBB5;}
	.st9{fill:#231F20;}
	.st10{fill:#7D6A55;}
	.st11{fill:#662D91;}
	.st12{fill:#ED217C;}
	.st13{fill:#C49A6C;}
	.st14{fill:url(#SVGID_1_);}
	.st15{fill:#A332B5;}
	.st16{fill:#0546B3;}
	.st17{fill:#3580ED;}
	.st18{fill:#C6CBCF;}
	.st19{fill:#E03D3E;}
	.st20{fill:#FFFFFF;}
</style>
<g>
	<path d="M24.696,25.581h-4.57L14.881,8.256L9.637,25.581h-4.57L0,0.461h4.358l3.507,17.468l5.173-17.077h3.827l5.067,17.077
		L25.51,0.461h4.181L24.696,25.581z"/>
	<path d="M49.248,23.208c-1.913,1.913-4.535,2.834-7.228,2.834c-2.692,0-5.315-0.921-7.228-2.834
		c-2.729-2.728-3.189-6.059-3.189-10.169c0-4.11,0.461-7.476,3.189-10.204C36.705,0.921,39.328,0,42.02,0
		c2.693,0,5.315,0.921,7.228,2.834c2.728,2.728,3.189,6.094,3.189,10.204C52.437,17.149,51.976,20.479,49.248,23.208z M45.988,5.811
		c-0.992-1.063-2.516-1.665-3.968-1.665c-1.453,0-2.976,0.602-3.968,1.665c-1.736,1.807-1.807,4.925-1.807,7.228
		c0,2.303,0.071,5.386,1.807,7.193c0.992,1.063,2.516,1.665,3.968,1.665c1.453,0,2.977-0.603,3.968-1.665
		c1.736-1.807,1.807-4.889,1.807-7.193C47.795,10.736,47.725,7.618,45.988,5.811z"/>
	<path d="M56.865,25.581V0.461h4.57v20.798h11.657v4.323H56.865z"/>
	<path d="M80.921,4.606v6.732H92.33v4.146H80.921v10.098h-4.57V0.461h17.361v4.146H80.921z"/>
	<path d="M101.754,4.606v6.732h11.409v4.146h-11.409v10.098h-4.57V0.461h17.361v4.146H101.754z"/>
	<path d="M141.081,23.208c-1.913,1.913-4.535,2.834-7.228,2.834c-2.692,0-5.315-0.921-7.228-2.834
		c-2.729-2.728-3.189-6.059-3.189-10.169c0-4.11,0.461-7.476,3.189-10.204C128.538,0.921,131.16,0,133.853,0
		c2.693,0,5.315,0.921,7.228,2.834c2.728,2.728,3.189,6.094,3.189,10.204C144.27,17.149,143.809,20.479,141.081,23.208z
		 M137.821,5.811c-0.992-1.063-2.516-1.665-3.968-1.665c-1.453,0-2.976,0.602-3.968,1.665c-1.736,1.807-1.807,4.925-1.807,7.228
		c0,2.303,0.071,5.386,1.807,7.193c0.992,1.063,2.516,1.665,3.968,1.665c1.453,0,2.977-0.603,3.968-1.665
		c1.736-1.807,1.807-4.889,1.807-7.193C139.628,10.736,139.558,7.618,137.821,5.811z"/>
	<path d="M148.697,25.581V0.461h4.57v20.798h11.657v4.323H148.697z"/>
	<path d="M168.183,25.581V0.461h4.641v25.121H168.183z"/>
	<path d="M194.083,25.581L183.205,8.327v17.255h-4.499V0.461h4.854l10.735,17.007V0.461h4.5v25.121H194.083z"/>
	<path d="M220.867,23.349c-1.913,1.913-4.854,2.693-7.937,2.693c-2.657,0-5.456-0.709-7.511-2.587
		c-1.488-1.346-2.622-3.472-2.622-5.846h4.677c0,1.24,0.567,2.338,1.311,3.082c1.063,1.063,2.764,1.346,4.217,1.346
		c1.736,0,3.401-0.354,4.358-1.346c0.567-0.602,0.992-1.205,0.992-2.409c0-1.843-1.417-2.693-2.976-2.977
		c-1.701-0.318-3.898-0.39-5.563-0.673c-3.472-0.567-6.378-2.834-6.378-7.015c0-1.984,0.886-3.65,2.197-4.96
		c1.665-1.63,4.429-2.658,7.37-2.658c2.692,0,5.315,0.851,7.015,2.445c1.488,1.417,2.516,3.26,2.551,5.35h-4.677
		c-0.036-0.886-0.496-1.842-1.099-2.48c-0.815-0.85-2.48-1.346-3.827-1.346c-1.417,0-3.047,0.319-4.075,1.382
		c-0.531,0.567-0.85,1.204-0.85,2.126c0,1.63,1.063,2.48,2.551,2.728c1.594,0.248,3.827,0.425,5.457,0.638
		c3.756,0.532,6.909,2.976,6.909,7.263C222.957,20.444,222.107,22.109,220.867,23.349z"/>
</g>
</svg>
