<?xml version="1.0" encoding="UTF-8"?>
<svg width="8px" height="17px" viewBox="0 0 8 17" version="1.1" xmlns="http://www.w3.org/2000/svg" xmlns:xlink="http://www.w3.org/1999/xlink">
    <!-- Generator: Sketch 43.2 (39069) - http://www.bohemiancoding.com/sketch -->
    <title>accordian-button-chevron</title>
    <desc>Created with Sketch.</desc>
    <defs></defs>
    <g id="Page-1" stroke="none" stroke-width="1" fill="none" fill-rule="evenodd">
        <g id="accordian-button-chevron" transform="translate(3.500000, 8.500000) rotate(-360.000000) translate(-3.500000, -8.500000) translate(-5.000000, 0.000000)">
            <rect id="Rectangle" fill="#D8D8D8" opacity="0" x="0" y="0" width="17" height="17"></rect>
            <path d="M8.2327915,12.0327915 C8.3597915,12.1387915 8.5157915,12.1917915 8.6707915,12.1917915 C8.8267915,12.1917915 8.9817915,12.1387915 9.1087915,12.0327915 L16.0957915,6.2077915 C16.3857915,5.9667915 16.4247915,5.5357915 16.1827915,5.2457915 C15.9407915,4.9557915 15.5117915,4.9167915 15.2217915,5.1587915 L8.6707915,10.6197915 L2.1207915,5.1587915 C1.8297915,4.9177915 1.3997915,4.9567915 1.1587915,5.2457915 C0.916791501,5.5357915 0.955791501,5.9667915 1.2457915,6.2077915 L8.2327915,12.0327915 Z" id="Fill-1" fill="#6AC3C1" fill-rule="nonzero" transform="translate(8.670792, 8.595896) rotate(-90.000000) translate(-8.670792, -8.595896) "></path>
        </g>
    </g>
</svg>