<svg xmlns="http://www.w3.org/2000/svg" viewBox="0 0 51.48 51.48"><title>Asset 1</title><g id="Layer_2" data-name="Layer 2"><g id="Basics"><path d="M25.74,51.48A25.74,25.74,0,1,1,51.48,25.74,25.77,25.77,0,0,1,25.74,51.48ZM25.74,4A21.74,21.74,0,1,0,47.48,25.74,21.76,21.76,0,0,0,25.74,4Z" style="fill:#fff"/><path d="M20.9,35.8a2.68,2.68,0,0,1-1.35-.36,3,3,0,0,1-1.41-2.68v-14a2.84,2.84,0,0,1,4.44-2.56l12.15,7a2.84,2.84,0,0,1,0,5.13l-12.15,7A3.36,3.36,0,0,1,20.9,35.8Zm.84-16V31.64l10.21-5.89Z" style="fill:#fff"/></g></g></svg>