<?xml version="1.0" encoding="UTF-8" standalone="no"?>
<svg width="52px" height="52px" viewBox="0 0 52 52" version="1.1" xmlns="http://www.w3.org/2000/svg" xmlns:xlink="http://www.w3.org/1999/xlink">
    <!-- Generator: Sketch 3.8.3 (29802) - http://www.bohemiancoding.com/sketch -->
    <title>Group</title>
    <desc>Created with Sketch.</desc>
    <defs></defs>
    <g id="Page-1" stroke="none" stroke-width="1" fill="none" fill-rule="evenodd">
        <g id="Group">
            <circle id="Oval" cx="25.74" cy="25.74" r="22.74"></circle>
            <path d="M25.74,51.48 C11.5241905,51.48 1.74093456e-15,39.9558095 0,25.74 C-1.74093456e-15,11.5241905 11.5241905,2.61140183e-15 25.74,0 C39.9558095,-2.61140183e-15 51.48,11.5241905 51.48,25.74 C51.4634683,39.9489562 39.9489562,51.4634683 25.74,51.48 L25.74,51.48 Z M25.74,4 C13.7333295,4 4,13.7333295 4,25.74 C4,37.7466705 13.7333295,47.48 25.74,47.48 C37.7466705,47.48 47.48,37.7466705 47.48,25.74 C47.4689737,13.7378997 37.7421003,4.01102628 25.74,4 L25.74,4 Z" id="Shape" fill="#000000"></path>
            <path d="M20.9,35.8 C20.4260851,35.8014742 19.9602544,35.6772527 19.55,35.44 C18.6305253,34.866833 18.0915555,33.8424081 18.14,32.76 L18.14,18.76 C18.0554724,17.6691565 18.6050922,16.6267617 19.5529398,16.080255 C20.5007874,15.5337483 21.6782844,15.5803279 22.58,16.2 L34.73,23.2 C35.7200072,23.6705602 36.3508302,24.6688517 36.3508302,25.765 C36.3508302,26.8611483 35.7200072,27.8594398 34.73,28.33 L22.58,35.33 C22.0711466,35.6318452 21.491613,35.7939766 20.9,35.8 L20.9,35.8 Z M21.74,19.8 L21.74,31.64 L31.95,25.75 L21.74,19.8 Z" id="Shape" fill="#000000"></path>
            <path d="M20.9,35.8 C20.4260851,35.8014742 19.9602544,35.6772527 19.55,35.44 C18.6305253,34.866833 18.0915555,33.8424081 18.14,32.76 L18.14,18.76 C18.0554724,17.6691565 18.6050922,16.6267617 19.5529398,16.080255 C20.5007874,15.5337483 21.6782844,15.5803279 22.58,16.2 L34.73,23.2 C35.7200072,23.6705602 36.3508302,24.6688517 36.3508302,25.765 C36.3508302,26.8611483 35.7200072,27.8594398 34.73,28.33 L22.58,35.33 C22.0711466,35.6318452 21.491613,35.7939766 20.9,35.8 L20.9,35.8 Z" id="Shape" fill="#000000"></path>
        </g>
    </g>
</svg>