<?xml version="1.0" encoding="UTF-8"?>
<svg width="223px" height="58px" viewBox="0 0 223 58" version="1.1" xmlns="http://www.w3.org/2000/svg" xmlns:xlink="http://www.w3.org/1999/xlink">
    <!-- Generator: Sketch 40.3 (33839) - http://www.bohemiancoding.com/sketch -->
    <title>betaworks</title>
    <desc>Created with Sketch.</desc>
    <defs></defs>
    <g id="Page-1" stroke="none" stroke-width="1" fill="none" fill-rule="evenodd">
        <g id="betaworks" fill="#000000">
            <g id="_x36_dQgsU_2_">
                <g id="Group">
                    <path d="M222.254,23.517 C222.125,23.867 221.981,24.212 221.871,24.567 C220.244,29.803 214.736,32.185 209.784,29.791 C209.49,29.649 209.199,29.499 208.642,29.22 C208.747,32.942 207.732,36.062 204.515,38.04 C202.449,39.311 200.165,39.469 197.587,39.222 L197.587,30.306 L186.589,30.306 L186.589,6.031 L190.928,6.031 C190.995,3.916 191.057,1.958 191.119,2.66453526e-15 L191.781,2.66453526e-15 C193.476,1.64 195.171,3.281 196.915,4.968 C199.433,3.078 202.24,2.623 205.172,3.759 C208.144,4.911 209.665,7.335 210.298,10.56 L216.78,10.56 C216.842,11.97 216.894,13.166 216.947,14.364 C220.009,15.715 221.527,18.157 222.254,21.199 C222.254,21.971 222.254,22.744 222.254,23.517 L222.254,23.517 Z M216.902,22.085 C215.618,22.443 215.714,21.699 215.559,21.139 C214.988,19.083 213.948,18.177 212.313,18.209 C210.788,18.239 209.898,19.241 209.603,20.477 C209.098,22.595 208.854,24.785 208.653,26.958 C208.612,27.397 209.15,28.039 209.589,28.35 C212.842,30.655 217.466,29.725 219.804,26.379 C222.159,23.009 221.078,17.415 216.902,15.815 C216.902,17.941 216.902,20 216.902,22.085 L216.902,22.085 Z M207.757,12.12 C207.193,11.835 206.963,11.618 206.733,11.618 C202.443,11.616 198.141,11.456 193.866,11.717 C190.475,11.924 187.701,15.217 187.921,18.288 C189.624,16.949 191.53,16.429 193.641,16.521 C195.869,16.618 197.436,17.718 198.479,19.743 C201.588,17.189 204.546,14.759 207.757,12.12 L207.757,12.12 Z M197.385,21.407 C197.273,19.358 196.623,18.465 194.886,17.88 C193.031,17.256 191.305,17.674 189.632,18.529 C188.344,19.187 187.619,20.216 187.599,21.68 C187.575,23.444 187.562,25.209 187.585,26.973 C187.6,28.116 188.329,28.949 189.325,29.074 C190.91,29.274 192.539,29.127 194.269,29.127 C192.01,25.312 192.682,23.726 197.385,21.407 L197.385,21.407 Z M205.559,25.469 C203.609,28.52 202.628,29.239 198.682,30.456 C198.682,32.417 198.606,34.442 198.713,36.457 C198.769,37.509 199.86,38.186 200.988,38.093 C202.523,37.966 203.842,37.329 204.977,36.306 C206.287,35.125 207.121,33.684 207.37,31.916 C207.705,29.543 207.452,27.333 205.559,25.469 L205.559,25.469 Z M200.265,10.499 C200.297,10.379 200.33,10.259 200.362,10.139 C198.144,7.929 195.94,5.704 193.693,3.524 C193.352,3.193 192.813,3.067 192.062,2.696 L192.062,7.055 C191.207,7.055 190.55,7.031 189.896,7.06 C188.876,7.105 187.691,7.94 187.636,8.872 C187.531,10.636 187.606,12.411 187.606,14.182 C190.005,11.266 192.998,10.281 196.521,10.487 C197.764,10.56 199.016,10.499 200.265,10.499 L200.265,10.499 Z M209.067,10.498 C208.537,7.508 207.055,5.601 204.475,4.696 C202.073,3.854 199.784,4.134 197.515,6.079 C198.992,7.461 200.335,8.752 201.724,9.989 C202.024,10.256 202.491,10.466 202.886,10.476 C204.856,10.524 206.827,10.498 209.067,10.498 L209.067,10.498 Z M198.784,22.463 L198.784,29.053 C202.275,28.959 205.876,24.778 204.942,21.479 C202.937,21.799 200.942,22.118 198.784,22.463 L198.784,22.463 Z M207.326,25.694 C207.681,23.852 207.884,22.16 208.346,20.541 C209.096,17.911 211.707,15.753 215.059,17.994 C215.181,18.076 215.364,18.065 215.608,18.116 L215.608,15.228 C212.555,14.356 209.611,15.363 207.749,17.843 C206.046,20.109 205.846,23.241 207.326,25.694 L207.326,25.694 Z M205.842,18.837 C207.938,14.737 211.334,13.35 215.601,13.863 L215.601,11.59 C213.908,11.59 212.322,11.574 210.738,11.604 C210.432,11.61 210.073,11.727 209.836,11.916 C208.005,13.379 206.197,14.873 204.384,16.356 C204.679,16.827 204.89,17.149 205.084,17.481 C205.306,17.859 205.512,18.245 205.842,18.837 L205.842,18.837 Z M197.395,22.874 C195.153,23.423 194.09,24.495 194.137,25.999 C194.185,27.54 195.216,28.517 197.395,29.008 L197.395,22.874 L197.395,22.874 Z M203.577,17.005 C201.801,18.469 200.319,19.691 198.594,21.112 C201.852,21.153 203.334,20.829 204.852,19.728 C204.478,18.93 204.081,18.083 203.577,17.005 L203.577,17.005 Z" id="Shape"></path>
                    <path d="M0,32.792 L4.579,32.792 L4.579,44.571 C5.131,43.961 5.442,43.617 5.752,43.273 C8.174,40.592 11.802,39.636 15.083,40.924 C18.348,42.206 20.273,44.637 20.541,48.144 C20.84,52.066 18.969,55.086 15.532,56.659 C15.095,56.859 14.672,57.088 14.243,57.303 L10.268,57.303 C8.145,56.542 6.23,55.473 4.924,53.5 C4.824,53.542 4.723,53.583 4.623,53.625 L4.623,56.972 L-3.55271368e-15,56.972 L-3.55271368e-15,55.978 L2.196,55.978 C2.661,55.48 3.107,55.002 3.573,54.502 L3.573,35.367 C3.074,34.794 2.644,34.299 2.198,33.786 L-3.10862447e-15,33.786 C0,33.454 0,33.123 0,32.792 L0,32.792 Z M19.508,48.839 C19.494,44.819 16.13,41.448 12.127,41.443 C8.17,41.438 4.735,44.851 4.684,48.837 C4.633,52.858 8.11,56.298 12.203,56.275 C16.219,56.251 19.522,52.888 19.508,48.839 L19.508,48.839 Z" id="Shape"></path>
                    <path d="M66.577,57.302 C66.084,57.08 65.584,56.87 65.098,56.633 C63.589,55.897 62.681,54.719 62.622,53.013 C62.564,51.342 63.42,50.006 64.864,49.451 C66.686,48.751 68.668,48.46 70.587,48.02 C71.742,47.756 72.91,47.545 73.922,47.34 C75.14,43.197 72.669,41.171 69.334,41.536 C67.197,41.77 65.398,42.586 64.622,44.845 C64.532,45.108 64.133,45.264 63.62,45.677 C63.574,43.659 64.409,42.546 65.621,41.721 C67.714,40.296 70.033,40.018 72.416,40.807 C73.922,41.306 74.955,42.409 75.22,44.009 C75.407,45.141 75.421,46.309 75.433,47.461 C75.461,50.211 75.442,52.961 75.442,55.808 C76.395,55.902 77.241,55.986 78.118,56.073 C77.712,57.134 77.617,57.154 74.489,56.919 C74.381,56.488 74.265,56.026 74.133,55.499 C73.037,56.107 71.96,56.704 70.883,57.302 C69.447,57.302 68.012,57.302 66.577,57.302 L66.577,57.302 Z M74.216,48.588 C72.269,48.858 70.417,49.045 68.596,49.394 C67.481,49.608 66.328,49.915 65.342,50.456 C63.098,51.687 63.15,54.415 65.45,55.539 C67.758,56.667 70.18,56.724 72.328,55.184 C73.147,54.597 73.909,53.569 74.139,52.608 C74.448,51.321 74.216,49.904 74.216,48.588 L74.216,48.588 Z" id="Shape"></path>
                    <path d="M31.798,57.302 C30.452,56.485 28.928,55.86 27.795,54.812 C24.973,52.202 24.497,48.007 26.406,44.649 C28.314,41.291 32.217,39.696 36.06,40.703 C39.636,41.64 42.216,44.973 42.272,48.739 C42.274,48.891 42.189,49.045 42.101,49.351 L26.51,49.351 C26.553,51.509 27.428,53.096 28.855,54.369 C31.539,56.763 35.129,56.916 38.141,54.847 C38.977,54.272 38.977,54.272 39.734,54.801 C38.768,56.205 37.165,56.59 35.774,57.302 C34.448,57.302 33.123,57.302 31.798,57.302 L31.798,57.302 Z M26.57,48.24 L40.989,48.24 C40.921,44.561 37.569,41.435 33.792,41.446 C29.98,41.458 26.65,44.542 26.57,48.24 L26.57,48.24 Z" id="Shape"></path>
                    <path d="M178.863,57.302 C177.358,56.694 175.853,56.086 174.237,55.433 C174.072,55.957 173.918,56.443 173.765,56.928 C173.631,56.93 173.497,56.933 173.363,56.935 C172.434,55.569 173.127,53.989 172.912,52.529 C173.03,52.438 173.149,52.347 173.267,52.256 C173.631,52.521 174.144,52.705 174.334,53.062 C176.236,56.632 182.067,56.904 184.659,55.34 C186.873,54.004 186.989,51.504 184.662,50.419 C183.059,49.671 181.194,49.474 179.439,49.064 C178.159,48.765 176.828,48.634 175.588,48.222 C173.993,47.692 172.989,46.492 172.961,44.769 C172.935,43.115 173.894,41.941 175.362,41.31 C178.53,39.948 181.651,39.782 184.573,41.999 C184.703,42.097 184.846,42.179 184.989,42.257 C185.028,42.278 185.089,42.26 185.264,42.26 C185.339,41.817 185.418,41.354 185.511,40.808 C185.754,40.796 186.012,40.783 186.33,40.767 L186.33,45.156 C186.217,45.223 186.105,45.29 185.992,45.357 C185.656,45.029 185.203,44.76 185.002,44.364 C183.044,40.494 177.44,40.977 175.117,42.765 C173.605,43.929 173.684,46.003 175.431,46.838 C176.736,47.463 178.253,47.663 179.69,47.988 C181.187,48.327 182.739,48.465 184.198,48.914 C186.066,49.489 187.358,50.731 187.451,52.83 C187.525,54.497 186.255,55.984 184.204,56.774 C183.749,56.949 183.294,57.125 182.839,57.301 C181.513,57.302 180.188,57.302 178.863,57.302 L178.863,57.302 Z" id="Shape"></path>
                    <path d="M117.586,57.302 C116.152,56.424 114.513,55.761 113.325,54.626 C110.635,52.058 110.237,47.989 112.062,44.723 C113.798,41.617 117.488,39.837 120.872,40.474 C124.568,41.169 127.477,44.155 127.882,47.67 C128.328,51.537 126.4,55.088 123.024,56.62 C122.534,56.842 122.048,57.075 121.56,57.302 C120.236,57.302 118.911,57.302 117.586,57.302 L117.586,57.302 Z M126.868,48.827 C126.863,44.836 123.458,41.443 119.46,41.444 C115.488,41.445 112.082,44.853 112.06,48.849 C112.038,52.869 115.38,56.251 119.398,56.275 C123.523,56.299 126.874,52.959 126.868,48.827 L126.868,48.827 Z" id="Shape"></path>
                    <path d="M54.984,57.302 C53.91,56.761 52.75,56.342 51.781,55.654 C49.577,54.091 48.44,51.849 48.387,49.164 C48.313,45.416 48.358,41.665 48.38,37.915 C48.383,37.391 48.098,36.602 49.352,36.626 L49.352,40.706 L57.212,40.706 C56.39,42.303 55.228,41.636 54.369,41.738 C53.337,41.86 52.279,41.767 51.309,41.767 C49.85,42.596 49.239,43.734 49.431,45.359 C49.547,46.338 49.45,47.342 49.453,48.334 C49.463,52.663 51.861,55.522 56.102,56.261 C56.315,56.298 56.531,56.32 56.86,56.365 C56.898,56.682 56.935,56.991 56.972,57.3 C56.309,57.302 55.646,57.302 54.984,57.302 L54.984,57.302 Z" id="Shape"></path>
                    <path d="M95.205,43.866 C96.822,47.465 98.438,51.065 100.22,55.032 C100.685,53.384 101.059,52.07 101.426,50.753 C101.987,48.739 102.547,46.725 103.102,44.709 C103.514,43.214 103.51,43.213 102.661,42.098 C101.89,41.341 100.567,42.444 100.245,40.834 L108.176,40.834 C108.101,41.662 108.101,41.662 105.075,41.851 C103.696,46.792 102.298,51.8 100.909,56.78 C99.82,57.336 99.632,56.51 99.35,55.887 C98.036,52.978 96.734,50.063 95.425,47.152 C95.247,46.756 95.055,46.366 94.771,45.765 C94.483,46.281 94.26,46.621 94.095,46.986 C92.757,49.945 91.437,52.912 90.093,55.869 C89.839,56.428 89.731,57.249 88.559,56.845 C87.189,51.94 85.788,46.923 84.349,41.77 L81.251,41.77 C81.181,41.643 81.112,41.517 81.042,41.39 C81.307,41.166 81.567,40.752 81.836,40.747 C84.198,40.696 86.561,40.717 88.923,40.717 C88.919,41.73 88.919,41.73 87.084,41.825 C86.039,42.565 85.96,43.513 86.314,44.708 C87.298,48.027 88.185,51.375 89.206,55.053 C90.786,51.544 92.214,48.344 93.677,45.158 C93.917,44.635 94.31,44.181 94.632,43.695 C94.822,43.752 95.014,43.809 95.205,43.866 L95.205,43.866 Z" id="Shape"></path>
                    <path d="M152.759,51.393 L152.759,57.057 C151.222,56.97 149.774,56.896 148.33,56.782 C148.274,56.778 148.246,56.408 148.172,56.051 C148.899,55.993 149.537,55.942 150.347,55.877 C150.685,55.478 151.109,54.977 151.71,54.269 L151.71,42.806 C151.71,40.93 151.65,39.051 151.731,37.179 C151.79,35.812 151.597,34.644 150.438,34.101 C149.68,33.47 148.456,34.418 148.165,32.896 L152.727,32.896 L152.727,49.402 C152.843,49.488 152.96,49.574 153.076,49.659 C155.957,47.298 158.838,44.936 162.027,42.322 C161.318,42.038 160.93,41.945 160.618,41.738 C160.378,41.579 160.234,41.277 159.86,40.8 L168.506,40.8 C168.136,41.251 167.952,41.528 167.711,41.74 C167.615,41.824 167.386,41.794 167.227,41.763 C165.038,41.336 163.478,42.4 161.965,43.807 C160.484,45.184 158.851,46.398 157.176,47.773 C159.638,50.562 162,53.238 164.274,55.816 C165.665,56.243 167.18,55.486 168.325,56.323 C168.292,56.509 168.26,56.695 168.227,56.881 L160.243,56.881 C160.179,56.777 160.116,56.674 160.052,56.57 C160.342,56.361 160.625,56.141 160.925,55.946 C161.284,55.713 161.656,55.502 162.199,55.175 C160.144,52.845 158.266,50.716 156.296,48.483 C155.029,49.526 153.893,50.46 152.759,51.393 L152.759,51.393 Z" id="Shape"></path>
                    <path d="M140.081,56.086 C139.625,57.149 139.291,57.187 133.204,57.004 C132.332,56.978 132.332,56.978 131.948,55.942 C132.565,55.942 133.091,55.965 133.614,55.937 C134.768,55.875 135.456,55.248 135.467,54.099 C135.5,50.521 135.479,46.943 135.479,43.2 C135.01,42.776 134.487,42.304 134.084,41.94 C133.338,41.505 132.287,42.23 131.82,40.875 L136.487,40.875 L136.487,44 C136.577,44.061 136.667,44.121 136.756,44.182 C138.65,41.874 140.912,40.364 143.897,40.418 C143.986,40.56 144.074,40.703 144.163,40.845 C143.89,41.055 143.647,41.351 143.338,41.459 C142.512,41.748 141.593,41.829 140.826,42.22 C138.541,43.384 136.963,45.16 136.765,47.828 C136.619,49.801 136.592,51.785 136.58,53.764 C136.571,55.306 137.197,55.868 138.788,55.946 C139.207,55.969 139.624,56.036 140.081,56.086 L140.081,56.086 Z" id="Shape"></path>
                </g>
            </g>
        </g>
    </g>
</svg>