<?xml version="1.0" encoding="UTF-8"?>
<svg width="213px" height="28px" viewBox="0 0 213 28" version="1.1" xmlns="http://www.w3.org/2000/svg" xmlns:xlink="http://www.w3.org/1999/xlink">
    <!-- Generator: Sketch 40.3 (33839) - http://www.bohemiancoding.com/sketch -->
    <title>doberman</title>
    <desc>Created with Sketch.</desc>
    <defs></defs>
    <g id="Page-1" stroke="none" stroke-width="1" fill="none" fill-rule="evenodd">
        <g id="doberman" fill="#000000">
            <g id="Group">
                <g transform="translate(0.000000, 1.000000)" id="Shape">
                    <path d="M138.084,26.264 L134.801,26.264 C132.598,19.557 130.406,12.885 128.215,6.212 C128.151,6.218 128.088,6.224 128.024,6.23 L128.024,26.251 L124.348,26.251 L124.348,0.75 L129.829,0.75 C131.998,7.494 134.168,14.239 136.338,20.985 C136.409,20.986 136.481,20.988 136.552,20.989 C138.719,14.246 140.887,7.504 143.06,0.744 L148.543,0.744 L148.543,26.315 L146.706,26.315 L144.908,26.315 L144.908,6.38 C144.818,6.362 144.729,6.344 144.639,6.325 C142.457,12.965 140.275,19.603 138.084,26.264 L138.084,26.264 Z"></path>
                    <path d="M194.706,19.534 L194.706,0.783 L198.352,0.783 L198.352,26.255 L194.531,26.255 C190.648,19.798 186.733,13.287 182.818,6.775 C182.748,6.795 182.679,6.814 182.609,6.834 L182.609,26.26 L178.998,26.26 L178.998,0.771 L183.19,0.771 C186.938,7.01 190.71,13.288 194.482,19.566 C194.556,19.555 194.631,19.545 194.706,19.534 L194.706,19.534 Z"></path>
                    <path d="M52.031,0.682 L64.21,0.682 C67.273,0.682 69.697,2.501 70.487,4.846 C71.284,7.212 70.445,10.297 67.868,11.788 C67.775,11.842 67.692,11.911 67.547,12.013 C69.752,13.289 71.054,15.074 71.546,17.417 C72.44,21.676 69.006,26.133 64.469,26.291 C60.421,26.432 52.031,26.291 52.031,26.291 L52.031,0.682 L52.031,0.682 Z M55.74,23.53 C55.74,23.53 60.895,23.552 63.18,23.53 C63.584,23.526 64.002,23.435 64.387,23.316 C66.673,22.61 68.044,20.313 67.67,17.854 C67.267,15.205 65.551,13.613 62.941,13.564 C60.769,13.523 55.74,13.564 55.74,13.564 L55.74,23.53 L55.74,23.53 Z M55.719,10.95 L63.696,10.95 C65.847,10.95 67.118,9.157 66.985,6.949 C66.857,4.833 65.505,3.534 63.35,3.513 C61.063,3.49 55.719,3.513 55.719,3.513 L55.719,10.95 L55.719,10.95 Z"></path>
                    <path d="M99.779,0.702 C100.952,0.702 102.055,0.701 103.158,0.702 C105.985,0.706 108.813,0.665 111.639,0.728 C117,0.847 120.518,6.869 117.789,11.467 C116.918,12.934 115.059,14.595 112.386,14.538 L120.747,26.263 L116.482,26.263 L108.121,14.761 L103.429,14.761 L103.429,26.23 L99.78,26.23 C99.779,17.777 99.779,9.318 99.779,0.702 L99.779,0.702 Z M103.488,3.515 L103.488,11.869 C106.174,11.869 108.783,11.937 111.385,11.824 C112.097,11.793 112.908,11.357 113.461,10.867 C115.283,9.255 115.202,5.913 113.319,4.366 C112.799,3.939 112.056,3.576 111.403,3.553 C108.798,3.461 106.188,3.515 103.488,3.515 L103.488,3.515 Z"></path>
                    <path d="M0,0.598 C3.828,0.706 7.597,0.586 11.312,0.978 C15.304,1.399 17.659,4.033 18.65,7.827 C19.634,11.596 19.598,15.409 18.658,19.186 C17.614,23.379 14.841,25.844 10.255,26.209 C6.883,26.478 3.472,26.263 0,26.263 L0,0.598 L0,0.598 Z M3.67,23.544 C5.663,23.544 7.554,23.605 9.441,23.53 C12.246,23.418 13.995,21.895 14.833,19.254 C15.504,17.139 15.544,14.959 15.512,12.775 C15.483,10.838 15.343,8.912 14.581,7.092 C13.647,4.862 11.974,3.627 9.558,3.524 C7.77,3.448 5.978,3.488 4.187,3.486 C4.023,3.486 3.858,3.556 3.67,3.599 L3.67,23.544 L3.67,23.544 Z"></path>
                    <polygon points="94.994 23.493 94.994 26.234 76.742 26.234 76.742 0.792 94.64 0.792 94.64 3.486 80.457 3.486 80.457 11.909 92.134 11.909 92.134 14.709 80.489 14.709 80.489 23.493"></polygon>
                    <path d="M161.437,0.744 L165.412,0.744 C168.474,9.193 171.551,17.684 174.658,26.26 L170.417,26.26 L167.679,19.089 L159.185,19.089 L156.489,26.245 L152.216,26.245 C155.288,17.747 158.345,9.294 161.437,0.744 L161.437,0.744 Z M163.542,5.843 L163.322,5.819 L159.896,16.074 L166.972,16.074 L163.542,5.843 L163.542,5.843 Z"></path>
                </g>
                <g transform="translate(203.000000, 0.000000)" id="Shape">
                    <path d="M9.837,4.553 C9.843,7.08 7.824,9.133 5.325,9.142 C2.816,9.151 0.752,7.073 0.763,4.551 C0.775,2.054 2.807,0.011 5.29,-8.8817842e-16 C7.789,-0.011 9.831,2.033 9.837,4.553 L9.837,4.553 Z M1.73,4.577 C1.773,4.889 1.792,5.207 1.862,5.513 C2.396,7.844 5.008,9.008 7.045,7.828 C8.396,7.046 9.087,5.449 8.783,3.815 C8.403,1.771 6.487,0.504 4.469,0.964 C2.875,1.326 1.743,2.83 1.73,4.577 L1.73,4.577 Z"></path>
                    <path d="M4.324,4.917 L4.324,7.016 L3.419,7.016 L3.419,1.982 L4.264,1.982 C4.739,1.982 5.214,1.976 5.689,1.984 C6.422,1.996 6.997,2.414 7.178,3.055 C7.366,3.722 7.118,4.307 6.468,4.73 C6.438,4.749 6.414,4.777 6.366,4.819 C6.691,5.541 7.018,6.266 7.361,7.027 L6.445,7.027 C6.128,6.333 5.807,5.628 5.484,4.918 C5.109,4.917 4.746,4.917 4.324,4.917 L4.324,4.917 Z M4.346,4.171 C4.833,4.171 5.293,4.189 5.75,4.165 C6.092,4.147 6.299,3.865 6.31,3.477 C6.321,3.077 6.113,2.746 5.776,2.725 C5.308,2.695 4.837,2.717 4.346,2.717 L4.346,4.171 L4.346,4.171 Z"></path>
                </g>
                <path d="M46.476,8.753 C45.109,3.304 41.11,1.014 36.15,1.078 C31.19,1.013 27.191,3.304 25.824,8.753 C24.838,12.685 24.839,16.632 25.896,20.538 C26.86,24.101 29.024,26.719 32.956,27.557 C33.991,27.777 35.076,27.892 36.151,27.903 C37.225,27.892 38.311,27.778 39.346,27.557 C43.278,26.719 45.442,24.102 46.406,20.538 C47.461,16.633 47.462,12.685 46.476,8.753 L46.476,8.753 Z M42.35,20.813 C41.653,22.915 40.338,24.55 37.973,24.999 C37.34,25.119 36.732,25.182 36.15,25.194 C35.567,25.183 34.96,25.12 34.327,24.999 C31.962,24.55 30.648,22.915 29.95,20.813 C29.031,18.043 28.913,15.185 29.184,12.322 C29.318,10.909 29.541,9.468 29.996,8.125 C30.939,5.344 33.399,3.736 36.15,3.76 C38.901,3.736 41.362,5.344 42.304,8.125 C42.76,9.469 42.982,10.909 43.116,12.322 C43.387,15.185 43.269,18.043 42.35,20.813 L42.35,20.813 Z" id="Shape"></path>
            </g>
        </g>
    </g>
</svg>