<?xml version="1.0" encoding="UTF-8"?>
<svg width="91px" height="93px" viewBox="0 0 91 93" version="1.1" xmlns="http://www.w3.org/2000/svg" xmlns:xlink="http://www.w3.org/1999/xlink">
    <!-- Generator: Sketch 40.3 (33839) - http://www.bohemiancoding.com/sketch -->
    <title>dots</title>
    <desc>Created with Sketch.</desc>
    <defs></defs>
    <g id="Page-1" stroke="none" stroke-width="1" fill="none" fill-rule="evenodd">
        <g id="dots">
            <g id="FifUh4_1_">
                <g id="Group">
                    <path d="M1.703,21.088 C1.703,14.807 1.726,8.527 1.687,2.247 C1.677,0.635 2.344,-0.016 3.948,0.011 C9.855,0.113 15.796,-0.218 21.662,0.306 C31.884,1.218 39.682,10.312 39.932,20.966 C40.173,31.248 32.524,40.796 22.412,42.048 C16.948,42.724 11.354,42.382 5.818,42.446 C1.702,42.494 1.702,42.455 1.702,38.379 C1.703,32.615 1.703,26.852 1.703,21.088 L1.703,21.088 Z" id="Shape" fill="#EF5126"></path>
                    <path d="M69.828,42.203 C58.154,42.205 48.748,32.81 48.743,21.141 C48.737,9.549 58.24,0.065 69.863,0.064 C81.495,0.062 91.044,9.569 91.013,21.123 C90.982,32.868 81.602,42.201 69.828,42.203 L69.828,42.203 Z" id="Shape" fill="#B271A2"></path>
                    <path d="M32.539,66.008 C32.497,66.699 32.441,67.203 32.44,67.706 C32.434,75.093 32.413,82.48 32.454,89.867 C32.463,91.508 31.852,92.204 30.169,92.192 C23.447,92.145 16.724,92.174 10.002,92.171 C7.993,92.17 7.553,91.721 7.552,89.678 C7.55,82.365 7.553,75.051 7.548,67.738 C7.548,67.231 7.5,66.724 7.464,66.008 C5.627,66.008 3.87,65.973 2.115,66.019 C0.6,66.059 -0.015,65.374 0,63.879 C0.039,60.001 0.038,56.122 0,52.244 C-0.014,50.82 0.497,50.156 2.007,50.16 C14.048,50.19 26.089,50.187 38.13,50.162 C39.461,50.159 39.994,50.699 39.984,52.012 C39.952,56.038 39.95,60.064 39.985,64.09 C39.997,65.478 39.345,66.027 38.027,66.012 C36.232,65.993 34.436,66.008 32.539,66.008 L32.539,66.008 Z" id="Shape" fill="#FDC255"></path>
                    <path d="M73.2,49.949 C82.344,49.99 89.963,57.011 90.779,66.183 C90.805,66.477 90.882,66.767 90.897,67.061 C91.106,71.095 91.064,71.074 87.725,70.936 C85.879,70.86 85.481,72.002 85.459,73.595 C85.334,82.817 79.442,89.917 70.556,91.624 C59.884,93.674 49.727,85.927 48.969,75.158 C48.696,71.283 48.696,71.283 52.532,71.281 C54.965,71.28 55.472,70.875 55.372,68.485 C54.993,59.479 61.828,51.176 70.995,50.109 C71.727,50.024 72.465,50.001 73.2,49.949 L73.2,49.949 Z" id="Shape" fill="#53BFD5"></path>
                </g>
            </g>
        </g>
    </g>
</svg>