<?xml version="1.0" encoding="UTF-8"?>
<svg width="191px" height="45px" viewBox="0 0 191 45" version="1.1" xmlns="http://www.w3.org/2000/svg" xmlns:xlink="http://www.w3.org/1999/xlink">
    <!-- Generator: Sketch 40.3 (33839) - http://www.bohemiancoding.com/sketch -->
    <title>fairygodboss</title>
    <desc>Created with Sketch.</desc>
    <defs></defs>
    <g id="Page-1" stroke="none" stroke-width="1" fill="none" fill-rule="evenodd">
        <g id="fairygodboss" transform="translate(-1.000000, 0.000000)">
            <g id="Group">
                <g transform="translate(33.000000, 15.000000)" id="Shape" fill="#A332B5">
                    <path d="M105.227,1.124 C107.769,1.124 110.266,0.972 112.735,1.172 C114.704,1.331 116.209,3.007 116.431,5.113 C116.638,7.069 116.626,9.057 116.574,11.028 C116.531,12.677 115.698,13.928 114.078,14.677 C115.283,15.312 116.316,16.023 116.695,17.329 C116.828,17.789 116.934,18.274 116.942,18.75 C116.968,20.503 117.001,22.258 116.933,24.009 C116.805,27.294 114.848,29.146 111.571,29.158 C109.485,29.166 107.399,29.159 105.227,29.159 C105.227,19.749 105.227,10.413 105.227,1.124 L105.227,1.124 Z M108.995,25.475 C109.307,25.5 109.558,25.534 109.809,25.536 C110.367,25.541 110.928,25.568 111.481,25.517 C112.394,25.432 113.014,24.895 113.057,23.932 C113.137,22.115 113.134,20.291 113.072,18.473 C113.04,17.532 112.445,16.832 111.514,16.68 C110.701,16.547 109.848,16.652 108.994,16.652 C108.995,19.658 108.995,22.541 108.995,25.475 L108.995,25.475 Z M108.996,4.724 L108.996,12.971 C109.461,12.971 109.864,12.973 110.267,12.971 C112.129,12.958 112.725,12.398 112.816,10.514 C112.857,9.659 112.839,8.8 112.838,7.943 C112.834,4.913 112.195,4.337 109.167,4.626 C109.134,4.629 109.104,4.66 108.996,4.724 L108.996,4.724 Z"></path>
                    <path d="M91.102,29.093 L91.102,1.059 C91.401,1.024 91.682,0.963 91.963,0.962 C93.714,0.953 95.466,0.94 97.217,0.962 C100.297,1 102.052,2.589 102.427,5.652 C102.477,6.058 102.533,6.468 102.534,6.876 C102.541,12.391 102.55,17.907 102.523,23.422 C102.519,24.157 102.372,24.905 102.19,25.621 C101.691,27.59 100.402,28.895 98.399,29.05 C96.002,29.235 93.579,29.093 91.102,29.093 L91.102,29.093 Z M94.924,4.709 L94.924,25.472 C98.198,25.741 98.731,25.264 98.734,22.133 C98.738,17.401 98.738,12.669 98.734,7.936 C98.732,4.91 98.08,4.327 95.057,4.627 C95.025,4.631 94.996,4.664 94.924,4.709 L94.924,4.709 Z"></path>
                    <path d="M40.722,16.787 C41.861,20.897 42.988,24.967 44.136,29.112 L40.35,29.112 C39.28,25.3 38.208,21.481 37.127,17.63 L35.758,17.63 L35.758,29.084 L32.02,29.084 L32.02,0.884 C34.569,0.966 37.066,0.919 39.534,1.166 C41.521,1.365 43.076,2.991 43.217,5.111 C43.401,7.89 43.348,10.695 43.213,13.479 C43.141,14.968 42.207,16.092 40.722,16.787 L40.722,16.787 Z M35.789,13.884 C36.171,13.91 36.494,13.949 36.819,13.953 C39.038,13.98 39.565,13.477 39.624,11.228 C39.652,10.15 39.634,9.07 39.633,7.991 C39.629,4.925 39.101,4.432 36.019,4.615 C35.955,4.619 35.895,4.681 35.789,4.741 L35.789,13.884 L35.789,13.884 Z"></path>
                    <path d="M76.772,15.033 C76.772,12.312 76.765,9.591 76.777,6.871 C76.78,6.202 76.774,5.519 76.896,4.866 C77.474,1.782 80.278,0.039 83.778,0.55 C86.599,0.961 88.22,2.379 88.282,5.21 C88.426,11.762 88.434,18.323 88.267,24.875 C88.194,27.744 86.024,29.505 83.152,29.6 C82.451,29.623 81.726,29.607 81.045,29.457 C78.424,28.88 76.889,27.109 76.822,24.426 C76.743,21.297 76.804,18.165 76.804,15.035 C76.793,15.033 76.783,15.033 76.772,15.033 L76.772,15.033 Z M80.568,15.258 L80.574,15.258 C80.574,17.682 80.565,20.106 80.58,22.53 C80.584,23.162 80.594,23.807 80.719,24.422 C80.915,25.384 81.63,25.962 82.498,25.992 C83.468,26.025 84.171,25.508 84.43,24.483 C84.557,23.983 84.621,23.453 84.622,22.937 C84.636,17.679 84.639,12.42 84.619,7.162 C84.617,6.575 84.523,5.968 84.35,5.407 C84.105,4.614 83.327,4.086 82.565,4.124 C81.749,4.165 81.108,4.556 80.864,5.346 C80.681,5.939 80.588,6.581 80.581,7.203 C80.551,9.887 80.568,12.573 80.568,15.258 L80.568,15.258 Z"></path>
                    <path d="M119.083,15.044 C119.083,12.323 119.076,9.602 119.088,6.882 C119.091,6.213 119.086,5.531 119.205,4.877 C119.678,2.281 121.494,0.737 124.406,0.534 C125.319,0.47 126.278,0.567 127.169,0.784 C129.214,1.283 130.253,2.752 130.577,4.755 C130.701,5.524 130.74,6.313 130.742,7.093 C130.756,12.423 130.754,17.753 130.743,23.082 C130.742,23.713 130.693,24.348 130.611,24.974 C130.294,27.419 128.898,28.92 126.465,29.466 C123.443,30.145 120.597,28.97 119.611,26.478 C119.239,25.539 119.129,24.453 119.105,23.429 C119.04,20.636 119.083,17.839 119.083,15.044 L119.083,15.044 Z M122.877,15.102 L122.884,15.102 C122.884,17.526 122.877,19.95 122.889,22.374 C122.892,23.007 122.9,23.647 122.998,24.27 C123.16,25.294 123.867,25.941 124.764,25.99 C125.78,26.045 126.493,25.509 126.754,24.417 C126.874,23.915 126.932,23.386 126.933,22.869 C126.946,17.648 126.947,12.427 126.931,7.206 C126.929,6.654 126.854,6.087 126.712,5.553 C126.483,4.694 125.726,4.132 124.918,4.12 C124.104,4.107 123.342,4.636 123.092,5.507 C122.94,6.035 122.89,6.607 122.885,7.159 C122.866,9.806 122.877,12.454 122.877,15.102 L122.877,15.102 Z"></path>
                    <path d="M70.628,18.367 L68.227,18.367 L68.227,14.822 L74.436,14.822 L74.436,16.061 C74.436,18.486 74.445,20.911 74.434,23.336 C74.41,28.262 70.92,30.776 66.158,29.306 C63.992,28.638 62.645,26.941 62.496,24.604 C62.427,23.526 62.448,22.441 62.447,21.36 C62.443,16.585 62.44,11.809 62.451,7.034 C62.453,6.29 62.444,5.53 62.586,4.805 C63.152,1.92 65.488,0.337 68.856,0.495 C72.404,0.661 74.345,2.619 74.424,6.155 C74.457,7.644 74.43,9.135 74.43,10.714 L70.63,10.714 C70.63,9.688 70.642,8.691 70.626,7.694 C70.615,7.061 70.627,6.417 70.512,5.799 C70.318,4.749 69.478,4.11 68.438,4.115 C67.391,4.12 66.583,4.76 66.366,5.808 C66.276,6.242 66.245,6.696 66.245,7.141 C66.24,12.252 66.243,17.363 66.252,22.475 C66.253,23.033 66.266,23.598 66.344,24.149 C66.513,25.344 67.308,26.01 68.479,25.998 C69.587,25.987 70.371,25.325 70.543,24.194 C70.621,23.68 70.623,23.153 70.627,22.631 C70.635,21.258 70.628,19.887 70.628,18.367 L70.628,18.367 Z"></path>
                    <path d="M14.212,1.016 L19.784,1.016 C21.056,10.38 22.322,19.699 23.598,29.092 L19.814,29.092 C19.555,27.019 19.303,25.003 19.046,22.954 L14.977,22.954 C14.728,24.996 14.482,27.017 14.229,29.093 L10.441,29.093 C11.7,19.72 12.951,10.407 14.212,1.016 L14.212,1.016 Z M18.612,19.23 C18.086,14.806 17.578,10.528 17.069,6.249 C17.016,6.255 16.964,6.26 16.911,6.266 C16.409,10.569 15.906,14.872 15.398,19.23 L18.612,19.23 L18.612,19.23 Z"></path>
                    <path d="M158.09,10.779 L154.378,10.779 C154.378,9.682 154.391,8.617 154.373,7.552 C154.363,6.958 154.357,6.354 154.25,5.773 C154.071,4.8 153.276,4.129 152.402,4.116 C151.504,4.103 150.705,4.704 150.515,5.712 C149.98,8.559 150.113,11.217 152.757,13.135 C153.781,13.878 154.748,14.703 155.707,15.53 C157.371,16.966 158.361,18.706 158.186,21.003 C158.096,22.19 158.191,23.39 158.127,24.58 C157.97,27.485 156.031,29.423 153.135,29.594 C152.505,29.631 151.86,29.643 151.237,29.559 C148.572,29.196 146.907,27.573 146.654,24.879 C146.499,23.226 146.625,21.547 146.625,19.796 L150.315,19.796 C150.315,20.528 150.292,21.292 150.321,22.053 C150.351,22.832 150.362,23.622 150.505,24.384 C150.705,25.445 151.387,25.982 152.348,25.995 C153.267,26.007 154.107,25.421 154.217,24.415 C154.358,23.129 154.391,21.808 154.255,20.524 C154.192,19.928 153.716,19.293 153.265,18.837 C152.245,17.806 151.108,16.892 150.051,15.896 C149.347,15.233 148.658,14.546 148.037,13.807 C147.182,12.79 146.596,11.617 146.58,10.257 C146.56,8.584 146.495,6.898 146.656,5.238 C146.902,2.7 148.459,1.053 150.973,0.685 C152.124,0.516 153.364,0.551 154.503,0.786 C156.649,1.228 157.854,2.761 158.05,4.871 C158.23,6.784 158.09,8.728 158.09,10.779 L158.09,10.779 Z"></path>
                    <path d="M132.853,19.769 L136.661,19.769 C136.661,20.743 136.638,21.665 136.669,22.584 C136.69,23.214 136.725,23.855 136.863,24.466 C137.093,25.486 137.812,26.017 138.779,25.993 C139.645,25.972 140.455,25.399 140.556,24.44 C140.695,23.117 140.728,21.759 140.587,20.44 C140.524,19.849 140.013,19.23 139.556,18.774 C138.53,17.748 137.394,16.833 136.335,15.839 C135.657,15.203 134.997,14.539 134.401,13.828 C133.548,12.81 132.961,11.645 132.929,10.283 C132.894,8.795 132.824,7.3 132.916,5.817 C133.183,1.5 136.491,0.231 139.507,0.533 C142.857,0.868 144.4,2.572 144.495,5.956 C144.539,7.517 144.503,9.081 144.503,10.733 L140.797,10.733 C140.773,10.335 140.737,9.908 140.724,9.481 C140.687,8.291 140.723,7.094 140.607,5.911 C140.504,4.858 139.688,4.147 138.774,4.118 C137.84,4.088 137.048,4.716 136.843,5.794 C136.289,8.708 136.564,11.361 139.25,13.263 C140.281,13.993 141.246,14.825 142.195,15.663 C143.749,17.035 144.669,18.699 144.53,20.862 C144.451,22.088 144.536,23.323 144.474,24.551 C144.341,27.205 142.88,29.015 140.271,29.431 C139.024,29.63 137.653,29.55 136.424,29.248 C134.478,28.77 133.417,27.291 133.032,25.35 C132.924,24.805 132.872,24.241 132.861,23.685 C132.836,22.424 132.853,21.161 132.853,19.769 L132.853,19.769 Z"></path>
                    <path d="M52.62,29.122 L48.907,29.122 C48.873,28.824 48.818,28.543 48.814,28.262 C48.801,27.479 48.754,26.691 48.818,25.913 C49.206,21.194 48.259,16.669 46.985,12.164 C45.954,8.517 45.099,4.821 44.139,1.044 L47.963,1.044 C48.838,5.055 49.722,9.104 50.605,13.153 C50.665,13.148 50.725,13.143 50.785,13.138 C51.688,9.098 52.592,5.058 53.499,1.002 L57.308,1.002 C56.917,2.554 56.547,4.058 56.16,5.557 C55.034,9.916 53.895,14.271 52.783,18.634 C52.656,19.132 52.629,19.665 52.625,20.183 C52.61,22.719 52.618,25.255 52.618,27.792 C52.62,28.195 52.62,28.598 52.62,29.122 L52.62,29.122 Z"></path>
                    <path d="M3.944,16.749 L3.944,29.081 L0.235,29.081 L0.235,1.018 L10.19,1.018 L10.19,4.547 L4.01,4.547 L4.01,13.121 L9.904,13.121 L9.904,16.748 C7.957,16.749 6.031,16.749 3.944,16.749 L3.944,16.749 Z"></path>
                    <path d="M28.935,29.115 L25.31,29.115 L25.31,1.025 L28.935,1.025 L28.935,29.115 L28.935,29.115 Z"></path>
                </g>
                <path d="M29,21.717 C28.99,21.808 28.988,21.903 28.888,21.957 C28.762,21.998 28.682,21.915 28.594,21.845 C28.403,21.693 28.208,21.546 28.017,21.394 C27.77,21.197 27.507,21.016 27.286,20.793 C26.868,20.372 26.367,20.088 25.847,19.819 C25.579,19.967 25.35,20.15 25.142,20.393 C25.063,20.346 24.988,20.316 24.931,20.265 C24.098,19.528 23.261,18.795 22.439,18.045 C22.207,17.833 22.012,17.579 21.815,17.332 C21.585,17.043 21.323,16.792 21.011,16.565 C20.941,16.742 20.878,16.903 20.799,17.104 C20.81,17.138 20.833,17.216 20.863,17.291 C20.976,17.579 21.022,17.879 21.043,18.187 C21.055,18.367 21.098,18.544 21.118,18.671 C21.138,18.963 21.154,19.204 21.173,19.446 C21.179,19.527 21.206,19.608 21.203,19.688 C21.173,20.485 21.381,21.246 21.553,22.011 C21.705,22.687 21.881,23.358 22.043,24.032 C22.071,24.149 22.088,24.269 22.112,24.399 C21.929,24.447 21.772,24.424 21.614,24.371 C21.552,24.496 21.585,24.612 21.616,24.731 C21.816,25.522 22.014,26.313 22.212,27.104 C22.222,27.143 22.244,27.185 22.239,27.222 C22.176,27.658 22.359,28.035 22.516,28.419 C22.531,28.457 22.552,28.493 22.572,28.528 C22.874,29.052 22.96,29.624 22.903,30.213 C22.838,30.889 22.859,31.557 22.972,32.225 C23.116,33.077 23.084,33.935 23.031,34.791 C22.975,35.684 23.061,36.564 23.209,37.442 C23.25,37.683 23.286,37.927 23.355,38.161 C23.544,38.807 23.965,39.229 24.62,39.41 C24.777,39.453 24.93,39.507 25.085,39.557 C25.376,39.65 25.662,39.763 25.959,39.828 C26.121,39.863 26.306,39.84 26.472,39.802 C26.75,39.739 27.02,39.643 27.294,39.564 C27.421,39.527 27.549,39.492 27.679,39.468 C27.916,39.424 27.946,39.445 28.072,39.719 C28.009,39.785 27.946,39.864 27.869,39.928 C27.226,40.464 26.572,40.985 25.857,41.426 C25.672,41.54 25.485,41.585 25.276,41.556 C25.084,41.529 24.893,41.497 24.702,41.466 C24.324,41.403 23.949,41.413 23.581,41.522 C23.506,41.544 23.434,41.58 23.329,41.621 C23.545,41.944 23.802,42.206 24.014,42.53 C23.803,42.883 23.436,43.01 23.089,43.196 C23.044,43.114 23.01,43.053 22.977,42.992 C22.737,42.539 22.435,42.132 22.086,41.759 C22.038,41.707 21.989,41.65 21.962,41.586 C21.79,41.19 21.666,40.794 21.753,40.345 C21.832,39.941 21.761,39.53 21.682,39.129 C21.645,38.94 21.577,38.757 21.516,38.574 C21.426,38.303 21.327,38.035 21.236,37.765 C21.038,37.176 20.864,36.577 20.64,35.997 C20.204,34.866 20.079,33.705 20.221,32.508 C20.257,32.204 20.286,31.899 20.328,31.596 C20.367,31.308 20.345,31.022 20.275,30.745 C20.02,29.738 19.49,28.87 18.894,28.052 C18.638,28.016 18.382,28.056 18.07,28.177 C17.953,28.379 17.907,28.609 17.863,28.839 C17.741,29.484 17.551,30.104 17.223,30.677 C17.137,30.826 17.073,30.988 16.999,31.144 C16.968,31.208 16.946,31.279 16.904,31.335 C16.639,31.69 16.527,32.105 16.454,32.527 C16.304,33.386 16.034,34.206 15.729,35.02 C15.359,36.007 15.113,37.028 14.993,38.077 C14.928,38.641 14.979,39.192 15.154,39.739 C15.237,39.998 15.355,40.22 15.518,40.432 C15.678,40.641 15.797,40.883 15.956,41.093 C16.127,41.32 16.309,41.543 16.515,41.736 C16.619,41.834 16.784,41.876 16.929,41.919 C17.183,41.995 17.443,42.048 17.698,42.12 C17.815,42.153 17.931,42.199 18.036,42.259 C18.204,42.353 18.215,42.409 18.151,42.644 C18.001,42.75 17.82,42.728 17.651,42.744 C17.194,42.788 16.737,42.838 16.279,42.852 C15.66,42.871 15.126,42.632 14.661,42.233 C14.467,42.067 14.281,41.892 14.078,41.738 C13.85,41.565 13.594,41.446 13.27,41.411 C13.264,41.842 13.258,42.257 13.252,42.697 C12.856,42.667 12.493,42.597 12.13,42.491 C12.168,42.205 12.222,41.935 12.236,41.664 C12.251,41.371 12.228,41.075 12.224,40.781 C12.223,40.69 12.219,40.596 12.235,40.507 C12.288,40.206 12.572,39.7 12.796,39.482 C12.89,39.204 13,38.939 13.068,38.663 C13.131,38.407 13.17,38.142 13.182,37.879 C13.232,36.737 13.263,35.594 13.312,34.453 C13.331,34.015 13.348,33.574 13.421,33.144 C13.536,32.467 13.8,31.833 14.082,31.209 C14.141,31.079 14.202,30.949 14.274,30.826 C14.694,30.114 14.912,29.328 15.117,28.537 C15.16,28.369 15.188,28.206 15.112,28.03 C15.068,27.928 15.092,27.797 15.082,27.628 C14.985,27.737 14.931,27.818 14.858,27.874 C14.781,27.935 14.686,27.973 14.596,28.022 C14.518,27.906 14.582,27.811 14.6,27.716 C14.649,27.467 14.707,27.219 14.756,26.969 C14.86,26.439 14.962,25.908 15.063,25.377 C15.093,25.217 15.136,25.055 15.137,24.894 C15.138,24.704 15.099,24.514 15.077,24.319 C14.889,24.267 14.718,24.22 14.537,24.17 C14.562,23.942 14.59,23.742 14.607,23.541 C14.69,22.545 14.745,21.546 14.903,20.557 C14.989,20.021 15.122,19.498 15.319,18.993 C15.391,18.81 15.436,18.625 15.44,18.428 C15.449,18.049 15.519,17.68 15.594,17.308 C15.644,17.063 15.629,16.806 15.645,16.51 C15.365,16.639 15.128,16.748 14.87,16.867 C14.684,17.361 14.494,17.866 14.305,18.371 C14.212,18.619 14.135,18.874 14.031,19.117 C13.773,19.718 13.549,20.33 13.412,20.971 C13.397,21.04 13.372,21.108 13.347,21.175 C13.337,21.203 13.313,21.225 13.28,21.273 C12.961,21.307 12.632,21.18 12.271,21.219 C12.244,21.332 12.217,21.448 12.188,21.563 C12.104,21.891 12.064,22.223 12.085,22.563 C12.097,22.756 12.093,22.952 12.072,23.144 C12.054,23.314 12.011,23.483 11.963,23.648 C11.897,23.873 11.821,24.093 11.845,24.335 C11.872,24.612 11.748,24.853 11.625,25.088 C11.596,25.144 11.52,25.176 11.46,25.223 C11.493,25.329 11.527,25.44 11.568,25.574 C11.762,25.725 11.971,25.888 12.181,26.049 C12.213,26.074 12.247,26.107 12.284,26.113 C12.569,26.165 12.726,26.38 12.897,26.58 C12.949,26.641 13.018,26.688 13.082,26.737 C13.472,27.033 13.864,27.327 14.254,27.623 C14.457,27.778 14.478,27.871 14.363,28.091 C14.33,28.154 14.29,28.214 14.249,28.272 C13.408,29.49 12.567,30.707 11.726,31.924 C11.505,32.243 11.277,32.557 11.061,32.878 C10.822,33.233 10.586,33.591 10.36,33.954 C10.233,34.159 10.091,34.302 9.822,34.272 C9.732,34.262 9.632,34.323 9.539,34.36 C9.474,34.385 9.414,34.424 9.329,34.468 C9.145,34.329 8.96,34.19 8.773,34.049 C8.692,34.065 8.615,34.08 8.512,34.1 L8.512,33.796 C6.282,32.049 4.034,30.288 1.792,28.532 C1.696,28.552 1.62,28.568 1.518,28.59 C1.534,28.216 1.181,28.13 0.998,27.884 C1.019,27.812 1.033,27.734 1.064,27.662 C1.092,27.598 1.138,27.541 1.179,27.482 C2.308,25.831 3.439,24.181 4.566,22.529 C4.756,22.251 4.939,21.968 5.117,21.682 C5.23,21.5 5.36,21.395 5.594,21.457 C5.729,21.493 5.878,21.481 6.021,21.481 C6.192,21.482 6.331,21.538 6.465,21.65 C6.801,21.932 7.15,22.199 7.494,22.47 C7.534,22.501 7.576,22.549 7.62,22.552 C7.887,22.571 8.008,22.795 8.183,22.941 C8.338,23.071 8.479,23.217 8.606,23.338 L8.966,23.338 C9.09,22.892 9.432,22.678 10.11,22.635 C10.165,22.545 10.226,22.441 10.293,22.341 C10.389,22.198 10.491,22.058 10.59,21.917 C10.631,21.859 10.686,21.805 10.707,21.74 C10.809,21.424 10.941,21.123 10.96,20.775 C10.979,20.419 11.02,20.062 11.132,19.707 C11.28,19.234 11.43,18.759 11.554,18.278 C11.612,18.053 11.717,17.838 11.818,17.627 C11.991,17.265 12.078,16.877 12.184,16.501 C12.102,16.401 11.994,16.408 11.897,16.389 C11.381,16.29 10.897,16.108 10.441,15.848 C10.398,15.824 10.358,15.794 10.275,15.739 C10.631,15.673 10.942,15.606 11.229,15.46 C11.509,15.317 11.782,15.164 12.064,14.941 C11.85,14.88 11.672,14.874 11.494,14.858 C11.108,14.822 10.72,14.795 10.339,14.731 C9.786,14.638 9.329,14.361 8.965,13.933 C8.929,13.89 8.904,13.838 8.855,13.762 C9.376,13.886 9.863,13.837 10.344,13.744 C10.984,13.621 11.619,13.475 12.311,13.327 C12.214,13.26 12.166,13.217 12.11,13.189 C11.543,12.91 10.973,12.636 10.406,12.354 C10.004,12.154 9.6,11.958 9.211,11.734 C8.974,11.598 8.758,11.422 8.547,11.247 C8.392,11.119 8.377,11.066 8.309,10.852 C9.005,10.987 9.563,10.694 10.13,10.286 C9.855,10.156 9.601,10.058 9.371,9.921 C9.149,9.787 8.929,9.631 8.738,9.45 C8.54,9.262 8.37,9.041 8.205,8.822 C8.046,8.611 7.92,8.378 7.802,8.107 C7.927,8.107 8.025,8.115 8.121,8.105 C8.315,8.086 8.425,7.985 8.43,7.791 C8.434,7.641 8.424,7.479 8.371,7.341 C8.24,6.999 8.105,6.654 7.926,6.337 C7.627,5.805 7.479,5.245 7.492,4.639 C7.498,4.326 7.503,4.013 7.51,3.651 C7.82,3.878 7.931,4.259 8.314,4.364 C8.325,4.29 8.352,4.23 8.338,4.182 C8.297,4.045 8.242,3.913 8.189,3.78 C8.034,3.392 7.86,3.01 7.726,2.615 C7.631,2.337 7.579,2.043 7.525,1.753 C7.492,1.575 7.492,1.391 7.586,1.189 C7.707,1.613 8.009,1.856 8.319,2.155 C8.212,1.766 8.104,1.431 8.028,1.089 C7.954,0.754 7.909,0.412 7.956,0 C8.012,0.101 8.04,0.148 8.064,0.197 C8.178,0.436 8.275,0.686 8.407,0.914 C9.02,1.973 9.601,3.05 10.36,4.02 C11.173,5.06 12.039,6.05 13.01,6.943 C13.701,7.578 14.419,8.183 15.126,8.801 C15.156,8.827 15.193,8.845 15.24,8.875 C15.585,8.467 15.926,8.065 16.27,7.658 C16.147,7.482 16.015,7.304 15.894,7.118 C15.661,6.759 15.52,6.369 15.55,5.935 C15.559,5.808 15.606,5.683 15.636,5.557 L15.64,5.563 C15.715,5.407 15.859,5.327 15.997,5.241 C16.1,5.176 16.208,5.12 16.328,5.052 L16.328,4.793 C16.402,4.76 16.465,4.733 16.546,4.698 C16.524,4.503 16.504,4.312 16.481,4.122 C16.466,3.991 16.447,3.86 16.431,3.729 C16.336,2.959 16.622,2.315 17.085,1.727 C17.317,1.433 17.626,1.27 17.987,1.2 C18.196,1.159 18.41,1.14 18.619,1.102 C18.755,1.077 18.881,1.088 19.005,1.147 L19.017,1.148 L18.999,1.144 C19.035,1.136 19.079,1.111 19.105,1.123 C19.26,1.201 19.423,1.258 19.594,1.251 C20.147,1.229 21.035,1.902 21.233,2.473 C21.324,2.737 21.297,2.983 21.164,3.208 C21.013,3.461 21.063,3.671 21.235,3.877 C21.307,3.963 21.387,4.043 21.458,4.129 C21.521,4.206 21.578,4.288 21.62,4.345 C21.606,4.584 21.391,4.599 21.301,4.719 L21.301,5.3 C21.284,5.328 21.254,5.379 21.223,5.431 C21.231,5.464 21.234,5.494 21.246,5.522 C21.266,5.569 21.294,5.612 21.314,5.659 C21.442,5.964 21.326,6.175 20.99,6.228 C20.82,6.255 20.644,6.277 20.473,6.268 C20.198,6.253 20.028,6.378 19.919,6.614 C19.83,6.808 19.736,7 19.652,7.197 C19.568,7.393 19.494,7.594 19.409,7.812 C19.454,7.897 19.499,7.999 19.559,8.093 C19.712,8.335 19.847,8.584 19.937,8.858 C19.961,8.93 20.017,8.999 20.076,9.05 C20.191,9.15 20.318,9.235 20.49,9.365 C20.522,9.29 20.554,9.216 20.58,9.153 C20.641,9.192 20.668,9.199 20.672,9.213 C20.697,9.3 20.712,9.391 20.74,9.477 C20.774,9.582 20.798,9.699 20.861,9.786 C21.105,10.123 21.202,10.503 21.207,10.908 C21.21,11.167 21.246,11.407 21.357,11.646 C21.427,11.798 21.453,11.979 21.46,12.149 C21.472,12.442 21.539,12.706 21.708,12.95 C21.774,13.045 21.816,13.17 21.83,13.286 C21.854,13.49 21.949,13.647 22.08,13.793 C22.146,13.867 22.21,13.947 22.258,14.033 C22.366,14.228 22.465,14.429 22.565,14.628 C22.606,14.709 22.641,14.793 22.689,14.898 C22.723,14.916 22.773,14.95 22.829,14.972 C22.97,15.029 23.059,15.132 23.124,15.266 C23.218,15.458 23.316,15.634 23.534,15.737 C23.683,15.807 23.808,15.949 23.918,16.08 C24.045,16.23 24.183,16.357 24.348,16.462 C24.432,16.515 24.499,16.598 24.564,16.676 C24.669,16.8 24.763,16.935 24.869,17.058 C25.048,17.265 25.208,17.491 25.457,17.629 C25.543,17.677 25.607,17.766 25.681,17.836 C25.926,18.066 26.188,18.281 26.413,18.529 C26.698,18.843 27.063,19.05 27.386,19.311 C27.571,19.461 27.779,19.56 28.002,19.64 C28.346,19.765 28.685,19.903 29.023,20.043 C29.194,20.114 29.329,20.237 29.459,20.372 C29.643,20.563 29.844,20.736 30.022,20.902 C30.045,21.062 30.073,21.182 30.076,21.302 C30.08,21.46 29.989,21.541 29.816,21.567 C29.78,21.572 29.73,21.577 29.714,21.6 C29.648,21.696 29.557,21.715 29.449,21.722 C29.395,21.726 29.344,21.771 29.29,21.794 C29.236,21.817 29.181,21.837 29.122,21.859 C29.074,21.807 29.034,21.764 28.993,21.721 C28.992,21.712 28.993,21.703 28.989,21.695 C28.987,21.691 28.977,21.691 28.97,21.69 C28.981,21.7 28.99,21.709 29,21.717 L29,21.717 Z M10.077,23.796 C9.829,23.66 9.816,23.634 9.847,23.402 C9.856,23.336 9.857,23.27 9.863,23.199 C9.555,23.15 9.434,23.378 9.265,23.528 L9.265,23.805 C9.802,24.211 10.336,24.614 10.869,25.017 C10.966,25.005 11.062,24.992 11.16,24.98 C11.2,24.907 11.249,24.839 11.274,24.763 C11.289,24.717 11.267,24.659 11.263,24.615 C11.129,24.622 11.006,24.663 10.917,24.625 C10.831,24.587 10.781,24.468 10.702,24.368 C10.534,24.374 10.424,24.274 10.404,24.089 C10.19,24.094 10.071,24.012 10.077,23.796 L10.077,23.796 Z M17.524,6.102 C17.382,5.958 17.252,5.874 17.197,5.756 C17.143,5.639 17.166,5.487 17.154,5.337 C17.006,5.401 16.879,5.456 16.742,5.515 C16.658,5.686 16.625,5.871 16.664,6.07 C16.708,6.293 16.773,6.515 16.727,6.748 C16.719,6.791 16.749,6.841 16.762,6.889 C16.816,6.893 16.856,6.896 16.916,6.901 C17.013,6.716 17.111,6.53 17.21,6.341 L17.486,6.341 C17.501,6.244 17.515,6.157 17.524,6.102 L17.524,6.102 Z M28.775,21.528 C28.788,21.519 28.801,21.51 28.815,21.501 C28.79,21.463 28.766,21.426 28.741,21.388 C28.726,21.398 28.711,21.409 28.696,21.419 C28.723,21.455 28.749,21.491 28.775,21.528 L28.775,21.528 Z M29.079,21.193 L29.092,21.203 L29.095,21.188 L29.079,21.193 L29.079,21.193 Z" id="Shape" fill="#000000"></path>
            </g>
        </g>
    </g>
</svg>