<?xml version="1.0" encoding="UTF-8"?>
<svg width="185px" height="40px" viewBox="0 0 185 40" version="1.1" xmlns="http://www.w3.org/2000/svg" xmlns:xlink="http://www.w3.org/1999/xlink">
    <!-- Generator: Sketch 40.3 (33839) - http://www.bohemiancoding.com/sketch -->
    <title>veryday</title>
    <desc>Created with Sketch.</desc>
    <defs>
        <linearGradient x1="0.00200220242%" y1="50%" x2="99.9979978%" y2="50%" id="linearGradient-1">
            <stop stop-color="#8B5E3C" offset="0%"></stop>
            <stop stop-color="#926542" offset="6.13%"></stop>
            <stop stop-color="#AD8259" offset="33.77%"></stop>
            <stop stop-color="#BE9467" offset="57.77%"></stop>
            <stop stop-color="#C49A6C" offset="75.29%"></stop>
        </linearGradient>
    </defs>
    <g id="Page-1" stroke="none" stroke-width="1" fill="none" fill-rule="evenodd">
        <g id="veryday">
            <g id="Group">
                <g id="hiAZts.tif_1_" transform="translate(46.000000, 2.000000)" fill="#7D6A55">
                    <g id="Group">
                        <path d="M120.541,37.285 L120.541,33.824 C121.406,33.824 121.937,33.816 122.651,33.816 C123.795,33.816 124.802,33.141 125.31,31.816 C125.563,31.157 125.775,30.51 126.063,29.712 C124.304,29.554 123.806,28.311 123.317,26.987 C121.289,21.497 119.22,16.023 117.168,10.542 C116.995,10.079 116.843,9.85 116.604,9.158 L120.003,9.158 C120.855,9.158 121.288,9.607 121.556,10.388 C122.212,12.296 122.909,14.19 123.585,16.091 C124.514,18.705 125.435,21.322 126.368,23.935 C126.569,24.498 126.812,25.046 127.011,25.543 C127.903,25.852 128.041,25.269 128.235,24.738 C129.222,22.037 130.215,19.338 131.207,16.639 C132.112,14.178 133.02,11.717 133.963,9.158 L138.236,9.158 C138.142,9.529 132.164,25.236 129.269,32.771 C128.616,34.47 127.653,35.838 126.039,36.551 C125.762,36.673 125.251,36.905 124.902,37 C124.553,37.095 124.055,37.286 122.643,37.286 C122.048,37.285 121.451,37.285 120.541,37.285 L120.541,37.285 Z" id="Shape"></path>
                        <path d="M59.22,37.285 L59.22,33.824 C60.085,33.824 60.616,33.816 61.33,33.816 C62.474,33.816 63.481,33.141 63.989,31.816 C64.242,31.157 64.454,30.51 64.742,29.712 C62.983,29.554 62.485,28.311 61.996,26.987 C59.968,21.497 57.899,16.023 55.847,10.542 C55.674,10.079 55.522,9.85 55.283,9.158 L58.682,9.158 C59.534,9.158 59.967,9.607 60.235,10.388 C60.891,12.296 61.588,14.19 62.264,16.091 C63.193,18.705 64.114,21.322 65.047,23.935 C65.248,24.498 65.491,25.046 65.69,25.543 C66.582,25.852 66.72,25.269 66.914,24.738 C67.901,22.037 68.894,19.338 69.886,16.639 C70.791,14.178 71.699,11.717 72.642,9.158 L76.915,9.158 C76.821,9.529 70.843,25.236 67.948,32.771 C67.295,34.47 66.332,35.838 64.718,36.551 C64.441,36.673 63.93,36.905 63.581,37 C63.232,37.095 62.734,37.286 61.322,37.286 C60.727,37.285 60.13,37.285 59.22,37.285 L59.22,37.285 Z" id="Shape"></path>
                        <path d="M96.191,0.336 L96.191,29.099 C96.191,29.099 94.673,29.238 93.936,28.876 C93.216,28.522 93.125,28.081 92.707,27.395 C89.555,29.948 85.979,29.975 82.326,29.361 C79.911,28.955 78.203,27.519 77.259,25.262 C76.912,24.433 76.667,23.54 76.521,22.652 C76.074,19.941 76.06,17.215 76.68,14.532 C77.498,10.997 79.796,8.961 83.63,8.63 C85.462,8.472 87.378,8.583 89.187,8.984 C90.505,9.276 91.15,9.655 92.04,10.281 C92.04,9.787 92.038,9.46 92.04,9.095 C92.052,6.772 92.036,4.449 92.051,2.126 C92.061,0.564 92.263,0.369 93.794,0.339 C94.544,0.324 96.191,0.336 96.191,0.336 L96.191,0.336 Z M80.361,19.108 C80.361,20.096 80.595,21.344 80.87,22.405 C81.341,24.221 82.552,25.45 84.424,25.666 C85.746,25.819 87.138,25.719 88.454,25.483 C90.201,25.17 91.242,23.933 91.679,22.247 C92.219,20.167 92.233,18.059 91.731,15.97 C91.333,14.317 90.297,13.197 88.628,12.801 C87.204,12.463 85.761,12.342 84.29,12.649 C82.476,13.028 81.295,14.07 80.85,15.839 C80.582,16.902 80.361,18.12 80.361,19.108 L80.361,19.108 Z" id="Shape"></path>
                        <path d="M112.207,15.984 C112.061,13.645 111.576,13.025 109.649,12.607 C107.505,12.141 105.363,12.368 103.335,13.123 C102.701,13.359 102.236,13.559 101.497,13.919 C100.824,12.901 100.131,11.882 99.462,10.87 C99.987,10.56 100.383,10.274 100.819,10.076 C104.384,8.461 108.102,8.098 111.917,8.872 C114.157,9.327 115.618,10.668 115.995,12.991 C116.156,13.983 116.26,14.993 116.277,15.996 C116.317,18.42 116.3,20.845 116.3,23.27 C116.3,24.305 116.317,24.946 116.549,25.238 C116.89,25.668 117.534,25.617 118.043,25.617 L118.043,29.256 C115.983,29.441 114.071,29.622 112.9,27.506 C109.581,30.059 105.845,30.011 102.067,29.276 C99.598,28.796 98.285,27.075 98.09,24.567 C98.082,24.466 98.071,24.366 98.066,24.265 C97.83,19.822 98.976,17.218 104.761,16.424 C106.703,16.158 108.685,16.178 110.648,16.068 C111.138,16.04 111.628,16.015 112.207,15.984 L112.207,15.984 Z M112.127,19.55 C109.74,19.448 107.469,19.545 105.195,19.9 C104.654,19.984 104.106,20.133 103.606,20.354 C102.346,20.913 101.852,21.977 102.016,23.615 C102.137,24.818 102.763,25.606 104.122,25.806 C105.347,25.987 106.638,26.074 107.853,25.891 C111.276,25.377 112.7,23.261 112.127,19.55 L112.127,19.55 Z" id="Shape"></path>
                        <path d="M17.089,29.506 C15.384,29.506 13.777,29.536 12.173,29.497 C10.782,29.463 10.012,28.644 9.55,27.373 C8.171,23.581 6.737,19.809 5.33,16.027 C3.783,11.867 2.242,7.704 0.701,3.542 C0.564,3.173 0.444,2.798 0.266,2.277 C1.493,2.277 2.588,2.202 3.667,2.298 C4.763,2.395 5.245,3.233 5.589,4.195 C6.775,7.52 7.994,10.834 9.196,14.154 C10.431,17.569 11.648,20.991 12.906,24.398 C13.093,24.906 13.083,25.68 14.169,25.621 C15.335,23.215 16.07,20.553 17.04,17.988 C18.021,15.394 18.932,12.773 19.872,10.163 C20.811,7.556 21.747,4.947 22.702,2.289 L27.221,2.289 C26.256,5.462 24.997,8.399 23.893,11.388 C22.775,14.416 21.62,17.432 20.485,20.454 C19.35,23.472 18.22,26.491 17.089,29.506 L17.089,29.506 Z" id="Shape"></path>
                        <path d="M28.124,20.833 C28.236,23.851 29.418,25.36 32.033,25.886 C34.308,26.344 36.555,26.177 38.693,25.197 C40.567,24.339 40.737,24.366 41.928,25.968 C42.165,26.286 42.375,26.625 42.63,27.002 C41.681,27.966 40.562,28.528 39.369,28.908 C36.269,29.897 33.121,29.974 29.968,29.185 C26.935,28.426 25.105,26.458 24.402,23.43 C23.766,20.687 23.737,17.928 24.316,15.178 C25.089,11.508 27.35,9.323 31.067,8.789 C32.554,8.576 34.09,8.465 35.582,8.579 C39.513,8.878 41.572,10.788 42.411,14.671 C42.75,16.242 42.826,19.563 42.504,20.833 C37.786,20.833 33.019,20.833 28.124,20.833 L28.124,20.833 Z M28.144,17.273 C31.708,17.27 35.157,17.316 38.582,17.245 C38.883,14.114 37.841,12.67 35.055,12.307 C34.124,12.186 33.143,12.25 32.209,12.388 C29.621,12.77 28.319,14.303 28.144,17.273 L28.144,17.273 Z" id="Shape"></path>
                        <path d="M54.361,9.131 C54.852,10.417 55.3,11.589 55.777,12.836 C54.749,13.004 53.81,13.103 52.899,13.316 C50.409,13.898 49.193,15.228 48.848,17.778 C48.727,18.673 48.743,19.59 48.737,20.498 C48.723,22.873 48.732,25.248 48.732,27.623 L48.732,29.204 L44.677,29.204 L44.677,9.22 C46.597,9.22 47.595,9.94 48.22,11.158 C49.856,9.397 51.926,8.921 54.361,9.131 L54.361,9.131 Z" id="Shape"></path>
                    </g>
                </g>
                <g id="Shape">
                    <polygon fill="#662D91" points="0 8.261 0 21.856 20.039 38.694 20.039 25.172"></polygon>
                    <polygon fill="#ED217C" points="20.039 8.245 9.775 0 0 8.261 0 8.261 20.039 25.172"></polygon>
                    <polygon fill="#C49A6C" points="30.529 0 20.137 8.324 20.039 8.245 20.039 25.172 20.039 25.172 20.039 38.694 20.066 38.716 40.017 21.856 40.017 8.261"></polygon>
                </g>
                <polygon id="Shape" fill="url(#linearGradient-1)" points="30.529 0 20.137 8.324 20.039 8.245 20.039 25.172 20.039 25.172 20.039 38.694 20.066 38.716 40.017 21.856 40.017 8.261"></polygon>
            </g>
        </g>
    </g>
</svg>