<svg id="Basics" xmlns="http://www.w3.org/2000/svg" viewBox="0 0 75 75"><title>Artboard 27 copy 6</title><path d="M57.88,64.58H17.13a2.5,2.5,0,0,1-2.5-2.5V15.67a2.5,2.5,0,0,1,2.5-2.5H57.88a2.5,2.5,0,0,1,2.5,2.5V62.08A2.5,2.5,0,0,1,57.88,64.58Zm-38.25-5H55.38V18.17H19.63Z" style="fill:#989cd7"/><path d="M63.45,64.58H11.55a2.5,2.5,0,1,1,0-5H63.45a2.5,2.5,0,0,1,0,5Z" style="fill:#989cd7"/><rect x="24.02" y="22.46" width="4.41" height="4.41" style="fill:#989cd7"/><rect x="31.54" y="22.46" width="4.41" height="4.41" style="fill:#989cd7"/><rect x="39.05" y="22.46" width="4.41" height="4.41" style="fill:#989cd7"/><rect x="46.57" y="22.46" width="4.41" height="4.41" style="fill:#989cd7"/><rect x="24.02" y="29.74" width="4.41" height="4.41" style="fill:#989cd7"/><rect x="31.54" y="29.74" width="4.41" height="4.41" style="fill:#989cd7"/><rect x="39.05" y="29.74" width="4.41" height="4.41" style="fill:#989cd7"/><rect x="46.57" y="29.74" width="4.41" height="4.41" style="fill:#989cd7"/><rect x="24.02" y="37.01" width="4.41" height="4.41" style="fill:#989cd7"/><rect x="31.54" y="37.01" width="4.41" height="4.41" style="fill:#989cd7"/><rect x="39.05" y="37.01" width="4.41" height="4.41" style="fill:#989cd7"/><rect x="46.57" y="37.01" width="4.41" height="4.41" style="fill:#989cd7"/><rect x="31.54" y="49.24" width="11.92" height="11.92" style="fill:#989cd7"/></svg>