<?xml version="1.0" standalone="no"?>
<!DOCTYPE svg PUBLIC "-//W3C//DTD SVG 20010904//EN"
 "http://www.w3.org/TR/2001/REC-SVG-20010904/DTD/svg10.dtd">
<svg version="1.0" xmlns="http://www.w3.org/2000/svg"
 width="1023.000000pt" height="1023.000000pt" viewBox="0 0 1023.000000 1023.000000"
 preserveAspectRatio="xMidYMid meet">
<metadata>
Created by potrace 1.11, written by Peter Selinger 2001-2013
</metadata>
<g transform="translate(0.000000,1023.000000) scale(0.100000,-0.100000)"
fill="#000000" stroke="none">
<path d="M6409 10226 c-2 -2 -29 -6 -59 -9 -127 -14 -394 -87 -437 -120 -7 -5
-13 -7 -13 -4 0 9 -201 -98 -268 -143 -72 -47 -202 -151 -247 -195 -38 -39
-135 -145 -160 -176 -57 -71 -205 -307 -205 -328 0 -4 -11 -29 -24 -57 -21
-45 -64 -159 -71 -194 -2 -8 -13 -51 -24 -95 -41 -165 -58 -402 -40 -545 4
-30 10 -78 13 -106 3 -28 19 -103 35 -166 55 -219 146 -410 284 -598 63 -85
196 -226 287 -306 176 -152 535 -322 755 -358 17 -2 46 -7 65 -10 115 -19 159
-22 290 -20 884 11 1598 665 1695 1551 8 70 8 240 -1 330 -5 65 -42 259 -58
313 -12 39 -67 193 -75 208 -5 9 -15 31 -22 47 -30 66 -125 224 -178 295 -67
91 -232 260 -321 328 -214 164 -461 278 -705 326 -44 9 -93 18 -110 22 -33 7
-400 16 -406 10z"/>
<path d="M6888 6505 c-2 -1 -39 -5 -83 -9 -44 -3 -91 -8 -105 -11 -14 -3 -52
-9 -85 -15 -101 -16 -263 -69 -373 -122 -76 -36 -227 -127 -257 -155 -11 -10
-33 -29 -50 -42 -201 -155 -446 -491 -561 -767 -43 -104 -256 -746 -279 -844
-15 -61 -111 -346 -147 -440 -46 -117 -147 -333 -178 -380 -124 -189 -163
-242 -238 -320 -166 -177 -351 -298 -587 -387 -98 -36 -337 -97 -425 -108 -30
-4 -64 -9 -75 -11 -119 -24 -423 -24 -545 -1 -133 25 -142 27 -159 36 -9 5
-31 11 -49 14 -129 25 -451 192 -587 305 -257 212 -432 453 -535 734 -33 90
-69 221 -76 277 -5 41 -43 81 -78 81 -44 0 -69 -46 -91 -165 -34 -181 -30
-423 10 -620 105 -517 526 -1132 1005 -1467 209 -146 489 -283 751 -366 113
-36 240 -71 289 -78 19 -3 42 -7 50 -9 36 -10 100 -18 245 -32 135 -12 456 -6
610 12 49 6 110 13 173 21 26 3 54 7 62 9 8 2 31 7 50 10 91 15 269 62 399
107 391 133 749 331 1086 602 39 31 80 56 91 56 36 0 67 -33 67 -70 0 -29 -11
-44 -79 -109 -44 -42 -107 -98 -139 -126 -33 -27 -66 -56 -74 -63 -69 -66
-320 -237 -466 -319 -312 -175 -729 -321 -1050 -368 -22 -4 -50 -8 -61 -10
-12 -2 -48 -7 -80 -10 -33 -4 -68 -9 -79 -11 -11 -2 -83 -7 -160 -10 -77 -3
-151 -11 -164 -17 -29 -14 -43 -50 -32 -80 5 -12 267 -281 582 -598 451 -452
585 -581 624 -600 43 -20 64 -24 145 -23 87 0 102 4 178 37 375 166 737 353
1042 540 682 419 1263 934 1672 1485 39 53 83 113 97 132 14 19 28 39 31 45 3
5 31 49 63 97 118 179 267 454 347 638 18 41 41 94 51 117 11 23 19 48 19 55
0 8 4 18 9 23 24 26 152 453 175 585 2 14 9 52 15 85 5 33 13 87 17 120 3 33
10 89 14 125 14 113 5 562 -14 685 -85 547 -235 884 -520 1167 -177 176 -366
304 -609 413 -117 52 -348 116 -467 130 -30 3 -63 9 -74 12 -18 5 -332 13
-338 8z"/>
<path d="M3042 6058 c-264 -30 -472 -105 -679 -242 -94 -62 -144 -105 -245
-208 -183 -187 -315 -430 -373 -681 -2 -10 -6 -26 -9 -35 -27 -93 -38 -323
-22 -475 47 -434 301 -839 681 -1082 277 -177 621 -257 950 -221 422 46 799
270 1050 622 121 169 219 405 249 599 44 284 11 586 -89 810 -80 180 -129 261
-241 395 -105 126 -258 255 -384 323 -19 11 -53 30 -76 42 -98 55 -298 121
-419 140 -128 19 -293 25 -393 13z"/>
</g>
</svg>
