<svg id="Basics" xmlns="http://www.w3.org/2000/svg" viewBox="0 0 75 75"><title>Artboard 27 copy</title><path d="M38.5,67.27c-18.85,0-27.76-46.16-28.71-51.43A2.5,2.5,0,0,1,14,13.59c1.73,1.63,7.15,5.88,11.4,5.88,3.57,0,8.7-5.33,11.09-8.69a2.5,2.5,0,0,1,4,0c2.71,3.63,8,8.74,11.12,8.74,4,0,9.62-4.28,11.45-5.92a2.5,2.5,0,0,1,4.15,2.24A164,164,0,0,1,61,40.9C55,58.4,47.41,67.27,38.5,67.27ZM16,21.34c4.1,18,12.62,40.93,22.48,40.93,4.49,0,11.21-4,17.73-22.94a155.1,155.1,0,0,0,4.89-18.14c-2.76,1.69-6.21,3.28-9.49,3.28-5,0-10.25-5-13.09-8.25-2.76,3.22-7.91,8.25-13.16,8.25C22.07,24.47,18.71,23,16,21.34Z" style="fill:#989cd7"/><rect x="28.99" y="34.53" width="20.08" height="5" style="fill:#989cd7"/><rect x="36.53" y="26.99" width="5" height="20.08" style="fill:#989cd7"/></svg>