<?xml version="1.0" encoding="UTF-8" standalone="no"?>
<svg width="40px" height="40px" viewBox="0 0 40 40" version="1.1" xmlns="http://www.w3.org/2000/svg" xmlns:xlink="http://www.w3.org/1999/xlink">
    <!-- Generator: Sketch 3.8.3 (29802) - http://www.bohemiancoding.com/sketch -->
    <title>Group 3</title>
    <desc>Created with Sketch.</desc>
    <defs></defs>
    <g id="Page-1" stroke="none" stroke-width="1" fill="none" fill-rule="evenodd">
        <g id="Group-3">
            <path d="M31.227,14.042 C30.446,14.388 29.607,14.623 28.726,14.728 C29.625,14.189 30.315,13.335 30.641,12.318 C29.799,12.817 28.867,13.18 27.875,13.375 C27.081,12.529 25.949,12 24.696,12 C22.291,12 20.341,13.95 20.341,16.355 C20.341,16.696 20.38,17.029 20.454,17.347 C16.834,17.166 13.625,15.432 11.477,12.797 C11.103,13.44 10.888,14.188 10.888,14.986 C10.888,16.497 11.657,17.83 12.825,18.611 C12.111,18.589 11.44,18.393 10.853,18.067 C10.852,18.085 10.852,18.103 10.852,18.121 C10.852,20.231 12.353,21.992 14.346,22.392 C13.98,22.491 13.596,22.544 13.198,22.544 C12.918,22.544 12.645,22.517 12.379,22.466 C12.933,24.197 14.542,25.456 16.447,25.491 C14.957,26.659 13.079,27.355 11.039,27.355 C10.687,27.355 10.34,27.334 10,27.294 C11.927,28.53 14.216,29.251 16.676,29.251 C24.686,29.251 29.067,22.615 29.067,16.86 C29.067,16.671 29.062,16.483 29.054,16.296 C29.905,15.682 30.643,14.915 31.227,14.042" id="Fill-3" fill="#FFFFFF"></path>
        </g>
    </g>
</svg>
