<svg xmlns="http://www.w3.org/2000/svg" viewBox="0 0 75 75"><title>Artboard 27 copy 7</title><g id="icons"><path d="M57.5,66.2h-40A2.5,2.5,0,0,1,15,63.7V11.3a2.5,2.5,0,0,1,2.5-2.5h40A2.5,2.5,0,0,1,60,11.3V63.7A2.5,2.5,0,0,1,57.5,66.2ZM20,61.2H55V13.8H20Z" style="fill:#989cd7"/><path d="M47.42,27.8H27.58a2.5,2.5,0,0,1,0-5H47.42a2.5,2.5,0,0,1,0,5Z" style="fill:#989cd7"/><path d="M47.42,40H27.58a2.5,2.5,0,1,1,0-5H47.42a2.5,2.5,0,0,1,0,5Z" style="fill:#989cd7"/><path d="M47.42,52.2H27.58a2.5,2.5,0,1,1,0-5H47.42a2.5,2.5,0,0,1,0,5Z" style="fill:#989cd7"/></g></svg>