<svg xmlns="http://www.w3.org/2000/svg" viewBox="0 0 75 75"><title>Artboard 27 copy 8</title><g id="icons"><path d="M63.67,63.7H12.24a2.5,2.5,0,0,1-2.5-2.5V16a2.5,2.5,0,0,1,2.5-2.5H63.67a2.5,2.5,0,0,1,2.5,2.5V61.2A2.5,2.5,0,0,1,63.67,63.7Zm-48.93-5H61.17V18.5H14.74Z" style="fill:#989cd7"/><path d="M51.11,28.1a2.48,2.48,0,0,0-2-1.1H39a2.5,2.5,0,0,0,0,5h4.67l-12,14.08-5.09-4.36a2.5,2.5,0,0,0-3.64.42L10.21,59.62a2.5,2.5,0,1,0,4,3L25.42,47.28l4.95,4.24a2.5,2.5,0,0,0,3.53-.28L47,35.8V40a2.5,2.5,0,0,0,5,0V30A2.48,2.48,0,0,0,51.11,28.1Z" style="fill:#989cd7"/></g></svg>