<svg id="Basics" xmlns="http://www.w3.org/2000/svg" viewBox="0 0 75 75"><title>Artboard 27 copy 2</title><path d="M57,21H52V19.83C52,15.69,47.88,12,43.75,12H28.59C24.46,12,22,15.69,22,19.83V21H15.85C11.71,21,9,24.49,9,28.63v25.5A6.46,6.46,0,0,0,15.85,61H57c4.14,0,8-2.73,8-6.87V28.63C65,24.49,61.11,21,57,21ZM27,19.83c0-1.38.22-2.83,1.59-2.83H43.75C45.13,17,47,18.45,47,19.83V21H27Zm33,34.3C60,55.51,58.35,56,57,56H15.85C14.47,56,14,55.51,14,54.13V43.41C19,46.15,27.26,50,36.68,50A45.64,45.64,0,0,0,60,43Zm0-17C58,38.91,47.6,45,36.68,45,26.51,45,18,39.71,14,37.57V28.63c0-1.38.47-2.63,1.85-2.63H57c1.38,0,3,1.25,3,2.63Z" style="fill:#989cd7"/></svg>