<?xml version="1.0" encoding="utf-8"?>
<!-- Generator: Adobe Illustrator 18.0.0, SVG Export Plug-In . SVG Version: 6.00 Build 0)  -->
<!DOCTYPE svg PUBLIC "-//W3C//DTD SVG 1.1//EN" "http://www.w3.org/Graphics/SVG/1.1/DTD/svg11.dtd">
<svg version="1.1" id="Layer_1" xmlns="http://www.w3.org/2000/svg" xmlns:xlink="http://www.w3.org/1999/xlink" x="0px" y="0px"
	 viewBox="0 0 106.015 106.015" style="enable-background:new 0 0 106.015 106.015;" xml:space="preserve">
<style type="text/css">
	.st0{fill:#62C3B0;}
	.st1{fill:#EF5126;}
	.st2{fill:#B271A2;}
	.st3{fill:#FDC255;}
	.st4{fill:#53BFD5;}
	.st5{fill:#187FB8;}
	.st6{fill:#24A9E6;}
	.st7{fill:#E9F0F5;}
	.st8{fill:#4BCBB5;}
	.st9{fill:#231F20;}
	.st10{fill:#7D6A55;}
	.st11{fill:#662D91;}
	.st12{fill:#ED217C;}
	.st13{fill:#C49A6C;}
	.st14{fill:url(#SVGID_1_);}
	.st15{fill:#A332B5;}
	.st16{fill:#0546B3;}
	.st17{fill:#3580ED;}
	.st18{fill:#C6CBCF;}
	.st19{fill:#E03D3E;}
	.st20{fill:#FFFFFF;}
	.st21{fill:#F37321;}
</style>
<g id="m1tQ8V_1_">
	<g>
		<path class="st20" d="M6.596,0c0,6.5,0,13.001,0,19.725c2.236,0,4.242,0,6.451,0c0,2.279,0,4.34,0,6.7c-2.014,0-4.083,0-6.272,0
			c0,4.495,0,8.697,0,13.238c2.087,0,4.151,0,6.342,0c0,2.336,0,4.335,0,6.647c-2.115,0-4.184,0-6.357,0c0,4.523,0,8.738,0,13.259
			c2.053,0,4.118,0,6.335,0c0,2.307,0,4.312,0,6.647c-2.048,0-4.112,0-6.312,0c0,4.534,0,8.743,0,13.245c2.045,0,4.112,0,6.322,0
			c0,2.354,0,4.418,0,6.7c-2.129,0-4.14,0-6.303,0c0,4.417,0,8.622,0,13.209c0.833,0,1.735,0,2.637,0c31.25,0,62.5,0,93.75,0.002
			c0.942,0,1.883,0.03,2.825,0.046c0,2.199,0,4.398,0,6.596c-35.338,0-70.676,0-106.015,0C0,70.676,0,35.338,0,0
			C2.199,0,4.398,0,6.596,0z"/>
		<path class="st20" d="M39.925,29.894c4.371,0,8.506,0,12.844,0c0,24.271,0,38.468,0,62.786c-4.245,0-8.447,0-12.844,0
			C39.925,68.494,39.925,54.287,39.925,29.894z"/>
		<path class="st20" d="M72.717,92.74c-4.368,0-8.511,0-12.848,0c0-17.618,0-25.177,0-42.872c4.231,0,8.434,0,12.848,0
			C72.717,67.445,72.717,74.995,72.717,92.74z"/>
		<path class="st20" d="M92.715,69.815c0,11.055,0,11.882,0,22.847c-4.371,0-8.632,0-13.038,0c0-10.929,0-11.817,0-22.847
			C84.008,69.815,88.27,69.815,92.715,69.815z"/>
	</g>
</g>
<rect x="19.789" y="9.973" class="st20" width="13.306" height="82.671"/>
</svg>
