<?xml version="1.0" encoding="utf-8"?>
<!-- Generator: Adobe Illustrator 18.0.0, SVG Export Plug-In . SVG Version: 6.00 Build 0)  -->
<!DOCTYPE svg PUBLIC "-//W3C//DTD SVG 1.1//EN" "http://www.w3.org/Graphics/SVG/1.1/DTD/svg11.dtd">
<svg version="1.1" id="Layer_1" xmlns="http://www.w3.org/2000/svg" xmlns:xlink="http://www.w3.org/1999/xlink" x="0px" y="0px"
	 viewBox="0 0 88 80" style="enable-background:new 0 0 88 80;" xml:space="preserve">
<style type="text/css">
	.st0{fill:#62C3B0;}
	.st1{fill:#EF5126;}
	.st2{fill:#B271A2;}
	.st3{fill:#FDC255;}
	.st4{fill:#53BFD5;}
	.st5{fill:#6F6F6F;}
	.st6{fill:#FFFFFF;}
	.st7{fill:#4BCBB5;}
</style>
<g id="LinkedIn">
	<rect x="2.219" y="25.654" class="st6" width="17.152" height="54.346"/>
	<path class="st6" d="M66.233,25.132c-9.825,0-15.982,5.322-17.121,9.052v-8.529H29.844c0.248,4.528,0,54.346,0,54.346h19.268
		V50.591c0-1.634-0.077-3.268,0.419-4.441c1.325-3.268,4.17-6.659,9.287-6.659c6.69,0,9.732,5.025,9.732,12.386V80H88V49.782
		C88,32.949,78.423,25.132,66.233,25.132z"/>
	<path class="st6" d="M10.477,0C4.144,0,0,4.067,0,9.436c0,5.266,4.025,9.42,10.234,9.42h0.124c6.447,0,10.462-4.17,10.462-9.436
		C20.696,4.057,16.805,0,10.477,0z"/>
</g>
</svg>
