<?xml version="1.0" encoding="utf-8"?>
<!-- Generator: Adobe Illustrator 18.0.0, SVG Export Plug-In . SVG Version: 6.00 Build 0)  -->
<!DOCTYPE svg PUBLIC "-//W3C//DTD SVG 1.1//EN" "http://www.w3.org/Graphics/SVG/1.1/DTD/svg11.dtd">
<svg version="1.1" id="Layer_1" xmlns="http://www.w3.org/2000/svg" xmlns:xlink="http://www.w3.org/1999/xlink" x="0px" y="0px"
	 viewBox="0 0 115.787 155.443" style="enable-background:new 0 0 115.787 155.443;" xml:space="preserve">
<style type="text/css">
	.st0{fill:#62C3B0;}
	.st1{fill:#EF5126;}
	.st2{fill:#B271A2;}
	.st3{fill:#FDC255;}
	.st4{fill:#53BFD5;}
	.st5{fill:#6F6F6F;}
	.st6{fill:#FFFFFF;}
	.st7{fill:#4BCBB5;}
</style>
<g>
	<path class="st6" d="M28.637,108.228c12.39,0,22.469-10.08,22.469-22.469s-10.08-22.469-22.469-22.469s-22.47,10.08-22.47,22.469
		S16.247,108.228,28.637,108.228z"/>
	<path class="st6" d="M80.119,52.192c-14.389,0-26.095-11.707-26.095-26.096S65.73,0,80.119,0s26.096,11.707,26.096,26.096
		S94.508,52.192,80.119,52.192z"/>
	<path class="st6" d="M110.359,68.488c-5.349-7.364-14.117-11.902-23.573-11.902c-11.177,0-18.851,5.025-24.39,15.945
		c-1.441,2.84-5.677,17.177-6.23,18.717c-4.133,11.495-10.066,19.676-27.603,20.605c-11.593,0-23.411-8.184-25.699-21.405
		c-0.198-1.145-1.808-1.23-2.103-0.106c-3.587,13.681,6.455,25.341,10.204,29.243c2.543,2.647,8.339,7.512,18.227,10.269
		c6.14,1.712,11.847,1.475,17.437,0.869c10.227-1.109,19.829-6.384,26.11-11.647c0.062-0.052,0.125-0.105,0.187-0.157
		c1.053-0.892,2.438,0.589,1.468,1.57c-2.322,2.35-4.888,4.506-7.655,6.406c-5.063,3.477-11.201,6.095-17.072,7.346
		c-4.294,0.915-7.511,1.134-10.229,1.172c-0.949,0.013-1.412,1.159-0.742,1.832c3.732,3.743,12.247,12.28,16.663,16.706
		c1.463,1.465,3.672,1.898,5.576,1.085c29.813-12.724,45.428-31.35,51.896-49.355C119.055,88.358,114.087,73.621,110.359,68.488z"/>
</g>
</svg>
