<?xml version="1.0" encoding="utf-8"?>
<!-- Generator: Adobe Illustrator 18.0.0, SVG Export Plug-In . SVG Version: 6.00 Build 0)  -->
<!DOCTYPE svg PUBLIC "-//W3C//DTD SVG 1.1//EN" "http://www.w3.org/Graphics/SVG/1.1/DTD/svg11.dtd">
<svg version="1.1" id="Layer_1" xmlns="http://www.w3.org/2000/svg" xmlns:xlink="http://www.w3.org/1999/xlink" x="0px" y="0px"
	 viewBox="0 0 96 80" style="enable-background:new 0 0 96 80;" xml:space="preserve">
<style type="text/css">
	.st0{fill:#62C3B0;}
	.st1{fill:#EF5126;}
	.st2{fill:#B271A2;}
	.st3{fill:#FDC255;}
	.st4{fill:#53BFD5;}
	.st5{fill:#6F6F6F;}
	.st6{fill:#FFFFFF;}
	.st7{fill:#4BCBB5;}
</style>
<path id="Twitter" class="st6" d="M93.352,1.479c-3.809,2.311-8.018,3.993-12.515,4.894C77.253,2.45,72.131,0,66.462,0
	c-10.87,0-19.688,9.043-19.688,20.195c0,1.583,0.169,3.12,0.507,4.599C30.912,23.951,16.403,15.919,6.683,3.686
	C4.987,6.68,4.018,10.152,4.018,13.85c0,7.003,3.477,13.186,8.762,16.809c-3.223-0.098-6.266-1.017-8.925-2.519v0.248
	c0,9.789,6.79,17.953,15.806,19.802c-1.651,0.474-3.392,0.711-5.19,0.711c-1.268,0-2.507-0.121-3.708-0.358
	c2.507,8.02,9.776,13.862,18.397,14.018c-6.739,5.42-15.236,8.65-24.46,8.65c-1.589,0-3.161-0.093-4.699-0.278
	C8.717,76.654,19.074,80,30.191,80c36.232,0,56.038-30.769,56.038-57.459c0-0.878-0.017-1.757-0.051-2.618
	c3.848-2.849,7.19-6.403,9.821-10.453c-3.527,1.606-7.325,2.693-11.309,3.178C88.759,10.152,91.881,6.194,93.352,1.479z"/>
</svg>
