<svg xmlns="http://www.w3.org/2000/svg" viewBox="0 0 75 75"><path d="M57 21h-5v-1.17c0-4.14-4.12-7.83-8.25-7.83H28.59C24.46 12 22 15.69 22 19.83V21h-6.15C11.71 21 9 24.49 9 28.63v25.5A6.46 6.46 0 0 0 15.85 61H57c4.14 0 8-2.73 8-6.87v-25.5c0-4.14-3.89-7.63-8-7.63zm-30-1.17c0-1.38.22-2.83 1.59-2.83h15.16c1.38 0 3.25 1.45 3.25 2.83V21H27zm33 34.3c0 1.38-1.65 1.87-3 1.87H15.85c-1.38 0-1.85-.49-1.85-1.87V43.41C19 46.15 27.26 50 36.68 50A45.64 45.64 0 0 0 60 43zm0-17C58 38.91 47.6 45 36.68 45 26.51 45 18 39.71 14 37.57v-8.94c0-1.38.47-2.63 1.85-2.63H57c1.38 0 3 1.25 3 2.63z" fill="#989cd7"/></svg>