<svg xmlns="http://www.w3.org/2000/svg" viewBox="0 0 75 75"><path d="M69.25 36.42c-.41-.85-10.25-20.75-30.94-20.75S7.78 35.57 7.37 36.42l-.52 1.08.52 1.08c.41.85 10.23 20.75 30.94 20.75s30.53-19.9 30.94-20.75l.52-1.08zM38.31 52.31A14.81 14.81 0 1 1 53.12 37.5a14.82 14.82 0 0 1-14.81 14.81zM12.47 37.5a39.23 39.23 0 0 1 9.28-10.82 19.7 19.7 0 0 0 0 21.6 39.56 39.56 0 0 1-9.28-10.78zm42.44 10.78a19.69 19.69 0 0 0 0-21.55 39.58 39.58 0 0 1 9.24 10.77 39.57 39.57 0 0 1-9.24 10.78z" fill="#989cd7"/><circle cx="38.31" cy="37.5" r="6.26" fill="#989cd7"/></svg>