<svg xmlns="http://www.w3.org/2000/svg" viewBox="0 0 75 75"><path d="M37.5 67.25A29.75 29.75 0 1 1 67.25 37.5 29.78 29.78 0 0 1 37.5 67.25zm0-53.82A24.07 24.07 0 1 0 61.57 37.5 24.1 24.1 0 0 0 37.5 13.43z" fill="#989cd7"/><path d="M29.54 43.17c1.9 1.77 4.83 3.46 7.47 3.46 1.73 0 3.88-1 3.88-3 0-2.31-3.22-2.72-6.48-3.92s-6.47-3.05-6.47-8.08c0-4.87 3.38-9.36 8.41-9.69v-5h3.84v5a16.76 16.76 0 0 1 7.5 2.39l-3.05 6a8.56 8.56 0 0 0-5.28-2c-1.81 0-3.5.66-3.5 2.31 0 1.9 2.6 2.72 4 3.22 4.7 1.57 8.95 3.3 8.95 9s-3.3 8.74-8.66 10.06v5.15h-3.8v-4.92a14.87 14.87 0 0 1-5.32-1 14.5 14.5 0 0 1-4.87-2.72z" fill="#989cd7"/></svg>