<svg width="160" height="160" xmlns="http://www.w3.org/2000/svg">
  <g>
    <g stroke="null" fill="#989cd7">
      <path d="M55.62 105.423c10.325 0 18.724-8.4 18.724-18.724s-8.4-18.725-18.724-18.725-18.725 8.4-18.725 18.725 8.4 18.724 18.725 18.724zm42.901-46.697c-11.99 0-21.745-9.756-21.745-21.747s9.755-21.746 21.745-21.746 21.747 9.756 21.747 21.746-9.756 21.747-21.747 21.747z"/>
      <path d="M123.721 72.306c-4.457-6.137-11.764-9.918-19.644-9.918-9.314 0-15.709 4.187-20.325 13.287-1.2 2.367-4.73 14.314-5.191 15.598-3.444 9.58-8.389 16.396-23.003 17.171-9.66 0-19.509-6.82-21.416-17.838-.165-.954-1.506-1.025-1.752-.088-2.989 11.401 5.379 21.117 8.503 24.37 2.119 2.205 6.949 6.26 15.189 8.556 5.117 1.427 9.873 1.23 14.531.725 8.523-.925 16.524-5.32 21.758-9.706l.156-.13c.878-.744 2.032.49 1.224 1.307a43.98 43.98 0 0 1-6.38 5.34c-4.219 2.896-9.334 5.078-14.226 6.12-3.578.763-6.259.945-8.524.977-.791.011-1.177.966-.619 1.527l13.886 13.921a4.225 4.225 0 0 0 4.647.904c24.844-10.603 37.856-26.125 43.246-41.129 5.187-14.436 1.047-26.716-2.06-30.994z"/>
    </g>
  </g>
</svg>
