<svg xmlns="http://www.w3.org/2000/svg" viewBox="0 0 75 75"><path d="M38.5 67.27c-18.85 0-27.76-46.16-28.71-51.43A2.5 2.5 0 0 1 14 13.59c1.73 1.63 7.15 5.88 11.4 5.88 3.57 0 8.7-5.33 11.09-8.69a2.5 2.5 0 0 1 4 0c2.71 3.63 8 8.74 11.12 8.74 4 0 9.62-4.28 11.45-5.92a2.5 2.5 0 0 1 4.15 2.24A164 164 0 0 1 61 40.9c-6 17.5-13.59 26.37-22.5 26.37zM16 21.34c4.1 18 12.62 40.93 22.48 40.93 4.49 0 11.21-4 17.73-22.94a155.1 155.1 0 0 0 4.89-18.14c-2.76 1.69-6.21 3.28-9.49 3.28-5 0-10.25-5-13.09-8.25-2.76 3.22-7.91 8.25-13.16 8.25-3.29 0-6.65-1.47-9.36-3.13z" fill="#989cd7"/><path fill="#989cd7" d="M28.99 34.53h20.08v5H28.99z"/><path fill="#989cd7" d="M36.53 26.99h5v20.08h-5z"/></svg>