<?xml version="1.0" encoding="utf-8"?>
<!-- Generator: Adobe Illustrator 18.0.0, SVG Export Plug-In . SVG Version: 6.00 Build 0)  -->
<!DOCTYPE svg PUBLIC "-//W3C//DTD SVG 1.1//EN" "http://www.w3.org/Graphics/SVG/1.1/DTD/svg11.dtd">
<svg version="1.1" id="Layer_1" xmlns="http://www.w3.org/2000/svg" xmlns:xlink="http://www.w3.org/1999/xlink" x="0px" y="0px"
	 viewBox="0 0 141.04 117.477" style="enable-background:new 0 0 141.04 117.477;" xml:space="preserve">
<style type="text/css">
	.st0{fill:#62C3B0;}
	.st1{fill:#EF5126;}
	.st2{fill:#B271A2;}
	.st3{fill:#FDC255;}
	.st4{fill:#53BFD5;}
	.st5{fill:#6F6F6F;}
	.st6{fill:#FFFFFF;}
	.st7{fill:#4BCBB5;}
</style>
<g>
	<path class="st6" d="M87.145,0c8.606,27.337,16.927,53.769,25.536,81.115c-19.591-4.777-38.583-6.876-58.188-3.66
		c-4.332-13.739-8.586-27.232-12.94-41.041C59.512,27.941,73.853,15.267,87.145,0z"/>
	<path class="st6" d="M37.29,37.673l12.883,40.842c0,0-4.713,1.837-5.774,2.176c-5.298,1.691-10.598,3.377-15.919,4.995
		C16.63,89.289,4.719,83.27,1.07,71.873c-3.675-11.478,2.376-23.16,14.222-27.185C21.631,42.534,37.29,37.673,37.29,37.673z"/>
	<path class="st6" d="M26.556,90.672l21.821-6.889c0,0,5.167,7.411,7.044,10.143c3.133,4.561,5.849,9.365,11.328,11.878
		c3.016,1.383,2.506,5.427-0.737,6.616c-4.967,1.822-10.051,3.356-15.149,4.781c-2.682,0.75-5.277-0.033-6.955-2.325
		C38.643,107.69,26.556,90.672,26.556,90.672z"/>
	<path class="st6" d="M135.47,64.393c-1.922-0.96-3.648-1.796-5.348-2.683c-0.904-0.472-1.761-1.031-2.898-1.704
		c4.272-9.338,5.518-18.846,2.385-28.709c-3.13-9.852-9.51-17.019-18.563-22.306c1.487-2.861,2.835-5.457,4.174-8.033
		C136.13,9.429,149.023,40.057,135.47,64.393z"/>
	<path class="st6" d="M120.914,56.817c-2.551-1.307-5.137-2.633-7.865-4.031c4.785-12.415,1.785-22.24-9.36-29.67
		c1.393-2.664,2.742-5.245,4.076-7.797C123.351,21.641,129.425,43.598,120.914,56.817z"/>
</g>
</svg>
