<?xml version="1.0" encoding="UTF-8"?>
<svg width="192px" height="44px" viewBox="0 0 192 44" version="1.1" xmlns="http://www.w3.org/2000/svg" xmlns:xlink="http://www.w3.org/1999/xlink">
    <!-- Generator: Sketch 40.3 (33839) - http://www.bohemiancoding.com/sketch -->
    <title>ideo</title>
    <desc>Created with Sketch.</desc>
    <defs></defs>
    <g id="Page-1" stroke="none" stroke-width="1" fill="none" fill-rule="evenodd">
        <g id="ideo" fill="#000000">
            <g id="_x36_A5Mcs.tif_1_">
                <g id="Group">
                    <path d="M192,24.386 C191.716,25.676 191.546,27.004 191.131,28.25 C188.327,36.676 182.565,41.944 173.847,43.577 C164.324,45.36 155.605,41.161 150.865,33.469 C142.932,20.596 149.964,3.924 164.924,0.49 C165.76,0.298 166.609,0.163 167.452,0.001 L172.167,0.001 C172.346,0.049 172.522,0.119 172.704,0.141 C181.553,1.19 189.122,7.792 191.35,16.43 C191.612,17.445 191.786,18.483 192.001,19.51 C192,21.135 192,22.76 192,24.386 L192,24.386 Z M169.806,36.3 C177.746,36.305 184.295,29.918 184.31,22.154 C184.326,14.094 177.9,7.66 169.838,7.633 C162.317,7.608 155.344,13.503 155.34,21.958 C155.337,30.532 162.435,36.376 169.806,36.3 L169.806,36.3 Z" id="Shape"></path>
                    <polygon id="Shape" points="0 1.788 0.889 1.741 39.411 1.739 40.365 1.739 40.365 8.921 23.943 8.921 23.943 34.988 40.361 34.988 40.361 42.172 39.25 42.221 1.134 42.225 0 42.269 0 34.953 0.484 34.997 15.844 34.996 16.472 34.92 16.472 8.942 0 8.942"></polygon>
                    <polygon id="Shape" points="141.115 1.806 141.115 8.897 107.828 8.897 107.828 18.335 133.772 18.335 133.772 25.52 107.838 25.52 107.838 35.068 141.115 35.068 141.115 42.166 100.421 42.166 100.421 1.806"></polygon>
                    <path d="M51.092,1.739 L52.003,1.739 C58.126,1.739 64.249,1.722 70.372,1.744 C75.328,1.762 79.907,3.051 83.895,6.069 C88.209,9.334 90.702,13.703 91.396,19.063 C92.04,24.039 91.181,28.73 88.409,32.968 C85.191,37.889 80.542,40.69 74.833,41.759 C73.194,42.066 71.5,42.187 69.83,42.202 C63.924,42.254 58.018,42.222 52.111,42.222 L51.091,42.222 C51.092,28.724 51.092,15.302 51.092,1.739 L51.092,1.739 Z M58.413,8.818 L58.413,35.162 L59.42,35.162 C62.94,35.162 66.46,35.177 69.98,35.152 C70.95,35.145 71.933,35.095 72.888,34.934 C76.934,34.25 80.095,32.237 82.079,28.572 C83.225,26.454 83.632,24.161 83.617,21.762 C83.573,14.495 78.325,9.004 71.072,8.812 C66.986,8.704 62.896,8.782 58.807,8.777 C58.701,8.778 58.595,8.799 58.413,8.818 L58.413,8.818 Z" id="Shape"></path>
                </g>
            </g>
        </g>
    </g>
</svg>