<?xml version="1.0" encoding="UTF-8"?>
<svg width="207px" height="25px" viewBox="0 0 207 25" version="1.1" xmlns="http://www.w3.org/2000/svg" xmlns:xlink="http://www.w3.org/1999/xlink">
    <!-- Generator: Sketch 40.3 (33839) - http://www.bohemiancoding.com/sketch -->
    <title>moment</title>
    <desc>Created with Sketch.</desc>
    <defs></defs>
    <g id="Page-1" stroke="none" stroke-width="1" fill="none" fill-rule="evenodd">
        <g id="moment" fill="#231F20">
            <g id="Group">
                <path d="M2.092,4.484 L2.092,23.816 L0,23.816 L0,0.819 L2.971,0.819 C6.191,7.68 9.426,14.572 12.757,21.668 C16.022,14.594 19.197,7.715 22.384,0.812 L25.236,0.812 L25.236,23.784 C24.943,23.814 24.617,23.865 24.29,23.876 C23.993,23.886 23.695,23.853 23.282,23.834 L23.282,4.033 C23.198,4.012 23.113,3.991 23.029,3.97 C19.989,10.566 16.95,17.161 13.886,23.81 L11.498,23.81 C8.477,17.359 5.449,10.894 2.42,4.428 C2.311,4.447 2.202,4.466 2.092,4.484 L2.092,4.484 Z" id="Shape"></path>
                <path d="M101.645,23.831 L99.666,23.831 L99.666,4.033 C99.586,4.015 99.506,3.996 99.425,3.978 C96.384,10.577 93.344,17.176 90.283,23.817 L87.907,23.817 C84.902,17.405 81.858,10.911 78.814,4.418 C78.721,4.433 78.627,4.448 78.534,4.463 L78.534,23.808 L76.394,23.808 L76.394,0.86 L79.392,0.86 C82.584,7.665 85.805,14.53 89.153,21.666 C92.426,14.58 95.605,7.7 98.79,0.805 L101.644,0.805 C101.645,8.455 101.645,16.077 101.645,23.831 L101.645,23.831 Z" id="Shape"></path>
                <path d="M117.606,2.686 L117.606,10.744 L126.66,10.744 L135.816,10.744 L135.816,12.752 L126.789,12.752 L117.64,12.752 L117.64,21.867 L138.243,21.867 L138.243,23.772 L115.313,23.772 L115.313,0.83 L137.321,0.83 L137.321,2.686 C130.744,2.686 124.202,2.686 117.606,2.686 L117.606,2.686 Z" id="Shape"></path>
                <path d="M50.631,24.482 C48.319,24.466 46.081,24.071 43.983,23.072 C39.691,21.028 37.41,17.547 37.187,12.867 C36.965,8.19 38.873,4.481 42.974,2.06 C48.096,-0.964 55.38,-0.615 59.858,2.82 C66.564,7.963 65.816,18.444 58.447,22.573 C56.108,23.883 53.502,24.52 50.631,24.482 L50.631,24.482 Z M39.683,12.236 C39.645,17.035 42.325,20.643 46.895,21.93 C49.489,22.66 52.11,22.711 54.694,21.969 C58.654,20.832 60.946,18.102 61.677,14.109 C62.402,10.147 61.408,6.715 58.059,4.241 C55.583,2.41 52.7,1.935 49.699,2.12 C43.765,2.487 39.728,6.586 39.683,12.236 L39.683,12.236 Z" id="Shape"></path>
                <path d="M152.808,4.277 L152.808,23.825 L150.755,23.825 L150.755,0.847 C151.07,0.815 151.396,0.768 151.723,0.752 C152.066,0.735 152.411,0.748 152.779,0.748 C159.281,7.401 165.767,14.038 172.44,20.865 L172.44,0.855 L174.558,0.855 L174.558,23.789 L172.428,23.789 C166.046,17.295 159.604,10.738 153.161,4.181 C153.043,4.213 152.925,4.245 152.808,4.277 L152.808,4.277 Z" id="Shape"></path>
                <path d="M184.18,2.734 L184.18,0.82 L206.543,0.82 L206.543,2.667 L196.692,2.667 L196.692,23.812 L194.515,23.812 L194.515,2.734 C191.025,2.734 187.671,2.734 184.18,2.734 L184.18,2.734 Z" id="Shape"></path>
            </g>
        </g>
    </g>
</svg>