<?xml version="1.0" encoding="UTF-8"?>
<svg width="144px" height="42px" viewBox="0 0 144 42" version="1.1" xmlns="http://www.w3.org/2000/svg" xmlns:xlink="http://www.w3.org/1999/xlink">
    <!-- Generator: Sketch 40.3 (33839) - http://www.bohemiancoding.com/sketch -->
    <title>ustwo</title>
    <desc>Created with Sketch.</desc>
    <defs></defs>
    <g id="Page-1" stroke="none" stroke-width="1" fill="none" fill-rule="evenodd">
        <g id="ustwo" fill="#000000">
            <g id="VZDwEI_1_">
                <g id="Group">
                    <path d="M27.12,0 L108,0 C109.669,1.132 111.667,5.112 111.122,6.527 L69.369,6.527 C69.901,7.057 70.466,7.353 71.015,7.673 C72.389,8.474 72.765,9.336 72.422,10.881 C72.353,11.192 72.257,11.499 72.159,11.803 C70.848,15.87 69.531,19.935 68.223,24.003 C67.469,26.349 66.728,28.699 65.981,31.047 C66.461,30.864 66.759,30.57 67.037,30.258 C71.3,25.489 75.557,20.714 79.823,15.948 C81.129,14.489 82.416,13.009 83.786,11.611 C84.875,10.5 85.927,10.408 87.255,11.222 C88.104,11.742 88.905,12.349 89.687,12.967 C91.031,14.029 91.403,15.332 90.814,17.006 C89.714,20.132 88.725,23.298 87.695,26.448 C87.572,26.823 87.481,27.209 87.316,27.802 C87.652,27.573 87.759,27.518 87.844,27.439 C91.845,23.7 95.851,19.967 99.838,16.213 C100.787,15.32 101.827,14.526 102.385,13.247 C102.749,12.412 103.472,12.248 104.316,12.673 C105.131,13.083 105.901,13.6 106.641,14.139 C108.457,15.462 108.724,16.474 108.017,18.584 C107.027,21.536 106.085,24.504 105.129,27.468 C105.055,27.697 105.036,27.945 104.957,28.374 C105.315,28.046 105.531,27.871 105.721,27.672 C109.388,23.822 113.049,19.967 116.717,16.118 C118.04,14.73 119.319,13.292 120.727,11.994 C122.398,10.454 124.558,10.271 126.238,11.413 C127.196,12.064 128.128,12.762 129.014,13.507 C130.514,14.769 130.766,16.3 129.815,18.006 C129.465,18.634 129.082,19.244 128.715,19.862 C127.1,22.582 125.58,25.355 124.753,28.428 C124.404,29.726 124.121,31.091 124.125,32.424 C124.132,34.74 125.977,35.968 128.072,34.994 C129.376,34.388 130.602,33.453 131.621,32.425 C134.19,29.836 135.657,26.591 136.534,23.095 C136.881,21.711 136.966,20.259 137.147,18.836 C137.23,18.182 136.963,17.709 136.376,17.35 C135.457,16.787 134.571,16.166 133.692,15.54 C132.741,14.864 132.703,14.318 133.636,13.702 C134.768,12.954 135.922,12.216 137.138,11.621 C139.527,10.451 141.64,11.13 142.927,13.454 C143.381,14.275 143.648,15.2 144.001,16.077 L144.001,20.877 C143.913,21.221 143.802,21.561 143.742,21.91 C143.09,25.691 141.859,29.258 139.772,32.494 C136.992,36.804 133.332,39.886 128.083,40.679 C126.07,40.983 124.089,40.804 122.178,40.114 C119.177,39.031 117.474,36.307 117.362,32.528 C117.218,27.683 118.764,23.343 121.299,19.297 C121.289,19.304 121.279,19.312 121.268,19.319 C120.96,19.523 120.598,19.677 120.352,19.939 C117.674,22.796 115.014,25.671 112.348,28.54 C109.029,32.111 105.713,35.685 102.387,39.25 C101.132,40.596 100.388,40.683 98.829,39.693 C98.222,39.308 97.632,38.895 97.042,38.484 C95.117,37.143 94.931,36.558 95.723,34.362 C95.831,34.062 95.949,33.765 96.069,33.468 C97.027,31.099 97.99,28.731 98.943,26.36 C99.046,26.105 99.097,25.83 99.248,25.297 C95.697,28.673 92.371,31.839 89.04,35.001 C87.417,36.542 85.808,38.097 84.152,39.602 C83.073,40.583 82.489,40.586 81.266,39.775 C80.367,39.178 79.498,38.536 78.587,37.959 C77.697,37.394 77.356,36.627 77.586,35.611 C77.701,35.105 77.835,34.602 78,34.11 C79.228,30.436 80.48,26.771 81.696,23.093 C82.333,21.165 82.911,19.219 83.516,17.28 C83.536,17.224 83.555,17.168 83.575,17.112 C83.564,17.175 83.552,17.238 83.541,17.3 C83.221,17.572 82.86,17.809 82.588,18.123 C78.264,23.103 73.954,28.096 69.635,33.08 C67.777,35.224 65.936,37.385 64.025,39.482 C63.061,40.54 62.266,40.605 61.014,39.942 C60.486,39.662 59.987,39.325 59.489,38.992 C56.374,36.907 56.174,36.42 57.3,32.866 C59.965,24.455 62.663,16.054 65.343,7.647 C65.456,7.294 65.53,6.929 65.647,6.476 L64.165,6.476 C53.169,6.476 42.173,6.462 31.176,6.495 C29.892,6.499 29.037,6.056 28.498,4.909 C27.971,3.789 27.417,2.681 26.864,1.574 C26.566,0.983 26.51,0.442 27.12,0 L27.12,0 Z" id="Shape"></path>
                    <path d="M0,35.04 C0.752,32.942 1.52,30.85 2.251,28.744 C3.52,25.09 4.765,21.428 6.05,17.682 C4.974,16.943 3.922,16.232 2.884,15.503 C1.759,14.712 1.743,14.15 2.891,13.449 C4.219,12.637 5.578,11.871 6.948,11.132 C7.975,10.578 9.008,10.594 10.001,11.286 C10.919,11.926 11.869,12.518 12.78,13.167 C14.034,14.061 14.255,14.742 13.726,16.275 C12.581,19.596 11.402,22.906 10.239,26.221 C10.072,26.698 9.917,27.18 9.944,27.777 C11.11,26.773 12.279,25.774 13.441,24.765 C16.549,22.067 19.611,19.313 22.781,16.689 C24.084,15.61 24.761,14.224 25.414,12.77 C26.538,10.264 27.128,10.104 29.419,11.712 C32.069,13.573 32.298,14.248 31.228,17.332 C29.723,21.669 28.042,25.948 27.039,30.445 C26.981,30.703 26.947,30.967 27.049,31.311 C27.88,30.406 28.717,29.507 29.542,28.597 C34.371,23.267 39.196,17.933 44.024,12.602 C45.927,10.5 47.722,10.204 50.224,11.573 C50.399,11.669 50.564,11.787 50.747,11.866 C52.942,12.812 53.721,14.495 53.67,16.846 C53.537,22.919 53.516,28.995 53.497,35.07 C53.492,36.686 52.855,37.805 51.422,38.542 C49.865,39.343 48.34,40.206 46.801,41.042 L45.601,41.042 C44.514,40.565 43.429,40.084 42.339,39.614 C40.906,38.996 40.185,37.868 40.086,36.356 C40.016,35.282 40.021,34.199 40.06,33.123 C40.103,31.938 40.559,31.627 41.683,31.953 C42.064,32.063 42.425,32.244 42.793,32.397 C43.625,32.742 44.455,33.09 45.467,33.513 L45.467,16.46 C45.244,16.666 45.117,16.764 45.013,16.882 C40.07,22.476 35.13,28.075 30.19,33.674 C28.552,35.53 26.934,37.405 25.27,39.238 C23.995,40.643 22.959,40.741 21.375,39.688 C20.644,39.202 19.947,38.663 19.207,38.189 C17.806,37.292 17.346,36.036 17.798,34.472 C18.174,33.171 18.636,31.896 19.062,30.609 C19.422,29.521 19.783,28.435 20.144,27.347 C20.186,27.323 20.229,27.299 20.218,27.305 C20.226,27.295 20.196,27.333 20.166,27.371 C19.734,27.706 19.273,28.01 18.873,28.38 C14.9,32.061 10.937,35.754 6.97,39.442 C5.652,40.667 5.27,40.708 3.765,39.667 C2.495,38.789 1.254,37.864 0,36.96 L0,35.04 L0,35.04 Z" id="Shape"></path>
                </g>
            </g>
        </g>
    </g>
</svg>