<?xml version="1.0" encoding="UTF-8"?>
<svg width="223px" height="27px" viewBox="0 0 223 27" version="1.1" xmlns="http://www.w3.org/2000/svg" xmlns:xlink="http://www.w3.org/1999/xlink">
    <!-- Generator: Sketch 40.3 (33839) - http://www.bohemiancoding.com/sketch -->
    <title>wolffolins</title>
    <desc>Created with Sketch.</desc>
    <defs></defs>
    <g id="Page-1" stroke="none" stroke-width="1" fill="none" fill-rule="evenodd">
        <g id="wolffolins" transform="translate(0.000000, -1.000000)" fill="#000000">
            <g id="Group">
                <polygon id="Shape" points="24.696 26.581 20.126 26.581 14.881 9.256 9.637 26.581 5.067 26.581 0 1.461 4.358 1.461 7.865 18.929 13.038 1.852 16.865 1.852 21.932 18.929 25.51 1.461 29.691 1.461"></polygon>
                <path d="M49.248,24.208 C47.335,26.121 44.713,27.042 42.02,27.042 C39.328,27.042 36.705,26.121 34.792,24.208 C32.063,21.48 31.603,18.149 31.603,14.039 C31.603,9.929 32.064,6.563 34.792,3.835 C36.705,1.921 39.328,1 42.02,1 C44.713,1 47.335,1.921 49.248,3.834 C51.976,6.562 52.437,9.928 52.437,14.038 C52.437,18.149 51.976,21.479 49.248,24.208 L49.248,24.208 Z M45.988,6.811 C44.996,5.748 43.472,5.146 42.02,5.146 C40.567,5.146 39.044,5.748 38.052,6.811 C36.316,8.618 36.245,11.736 36.245,14.039 C36.245,16.342 36.316,19.425 38.052,21.232 C39.044,22.295 40.568,22.897 42.02,22.897 C43.473,22.897 44.997,22.294 45.988,21.232 C47.724,19.425 47.795,16.343 47.795,14.039 C47.795,11.736 47.725,8.618 45.988,6.811 L45.988,6.811 Z" id="Shape"></path>
                <polygon id="Shape" points="56.865 26.581 56.865 1.461 61.435 1.461 61.435 22.259 73.092 22.259 73.092 26.582 56.865 26.582"></polygon>
                <polygon id="Shape" points="80.921 5.606 80.921 12.338 92.33 12.338 92.33 16.484 80.921 16.484 80.921 26.582 76.351 26.582 76.351 1.461 93.712 1.461 93.712 5.607 80.921 5.607"></polygon>
                <polygon id="Shape" points="101.754 5.606 101.754 12.338 113.163 12.338 113.163 16.484 101.754 16.484 101.754 26.582 97.184 26.582 97.184 1.461 114.545 1.461 114.545 5.607 101.754 5.607"></polygon>
                <path d="M141.081,24.208 C139.168,26.121 136.546,27.042 133.853,27.042 C131.161,27.042 128.538,26.121 126.625,24.208 C123.896,21.48 123.436,18.149 123.436,14.039 C123.436,9.929 123.897,6.563 126.625,3.835 C128.538,1.921 131.16,1 133.853,1 C136.546,1 139.168,1.921 141.081,3.834 C143.809,6.562 144.27,9.928 144.27,14.038 C144.27,18.149 143.809,21.479 141.081,24.208 L141.081,24.208 Z M137.821,6.811 C136.829,5.748 135.305,5.146 133.853,5.146 C132.4,5.146 130.877,5.748 129.885,6.811 C128.149,8.618 128.078,11.736 128.078,14.039 C128.078,16.342 128.149,19.425 129.885,21.232 C130.877,22.295 132.401,22.897 133.853,22.897 C135.306,22.897 136.83,22.294 137.821,21.232 C139.557,19.425 139.628,16.343 139.628,14.039 C139.628,11.736 139.558,8.618 137.821,6.811 L137.821,6.811 Z" id="Shape"></path>
                <polygon id="Shape" points="148.697 26.581 148.697 1.461 153.267 1.461 153.267 22.259 164.924 22.259 164.924 26.582 148.697 26.582"></polygon>
                <polygon id="Shape" points="168.183 26.581 168.183 1.461 172.824 1.461 172.824 26.582 168.183 26.582"></polygon>
                <polygon id="Shape" points="194.083 26.581 183.205 9.327 183.205 26.582 178.706 26.582 178.706 1.461 183.56 1.461 194.295 18.468 194.295 1.461 198.795 1.461 198.795 26.582 194.083 26.582"></polygon>
                <path d="M220.867,24.349 C218.954,26.262 216.013,27.042 212.93,27.042 C210.273,27.042 207.474,26.333 205.419,24.455 C203.931,23.109 202.797,20.983 202.797,18.609 L207.474,18.609 C207.474,19.849 208.041,20.947 208.785,21.691 C209.848,22.754 211.549,23.037 213.002,23.037 C214.738,23.037 216.403,22.683 217.36,21.691 C217.927,21.089 218.352,20.486 218.352,19.282 C218.352,17.439 216.935,16.589 215.376,16.305 C213.675,15.987 211.478,15.915 209.813,15.632 C206.341,15.065 203.435,12.798 203.435,8.617 C203.435,6.633 204.321,4.967 205.632,3.657 C207.297,2.027 210.061,0.999 213.002,0.999 C215.694,0.999 218.317,1.85 220.017,3.444 C221.505,4.861 222.533,6.704 222.568,8.794 L217.891,8.794 C217.855,7.908 217.395,6.952 216.792,6.314 C215.977,5.464 214.312,4.968 212.965,4.968 C211.548,4.968 209.918,5.287 208.89,6.35 C208.359,6.917 208.04,7.554 208.04,8.476 C208.04,10.106 209.103,10.956 210.591,11.204 C212.185,11.452 214.418,11.629 216.048,11.842 C219.804,12.374 222.957,14.818 222.957,19.105 C222.957,21.444 222.107,23.109 220.867,24.349 L220.867,24.349 Z" id="Shape"></path>
            </g>
        </g>
    </g>
</svg>