<?xml version="1.0" encoding="UTF-8"?>
<svg width="117px" height="47px" viewBox="0 0 117 47" version="1.1" xmlns="http://www.w3.org/2000/svg" xmlns:xlink="http://www.w3.org/1999/xlink">
    <!-- Generator: Sketch 40.3 (33839) - http://www.bohemiancoding.com/sketch -->
    <title>co</title>
    <desc>Created with Sketch.</desc>
    <defs></defs>
    <g id="Page-1" stroke="none" stroke-width="1" fill="none" fill-rule="evenodd">
        <g id="co" fill="#62C3B0">
            <g id="Zep3so_1_">
                <g id="Group">
                    <path d="M70.8,46.8 L65.76,46.8 C65.412,46.72 65.067,46.617 64.715,46.563 C59.426,45.756 54.88,43.422 51.26,39.534 C46.041,33.929 43.989,27.222 45.166,19.636 C46.677,9.897 54.111,2.288 63.788,0.41 C64.294,0.313 64.783,0.139 65.28,0 L71.04,0 C71.698,0.152 72.353,0.318 73.013,0.455 C85.13,2.978 92.95,14.437 91.49,26.146 C90.27,35.924 83.461,43.698 73.952,46.121 C72.911,46.386 71.851,46.575 70.8,46.8 L70.8,46.8 Z M57.856,23.446 C57.874,29.141 62.575,33.822 68.273,33.818 C74.002,33.814 78.754,29.102 78.654,23.293 C78.55,17.309 73.837,12.977 68.18,12.988 C62.463,13 57.838,17.713 57.856,23.446 L57.856,23.446 Z" id="Shape"></path>
                    <path d="M25.92,0 C26.699,0.163 27.478,0.327 28.257,0.489 C31.968,1.262 35.285,2.86 38.209,5.266 C38.758,5.718 39.254,6.235 39.735,6.685 C39.335,7.619 32.391,14.741 30.731,15.951 C27.724,13.333 24.236,12.232 20.266,13.478 C18.034,14.179 16.21,15.496 14.861,17.451 C12.098,21.456 12.351,26.509 15.627,30.311 C17.577,32.575 20.127,33.714 23.116,33.814 C26.06,33.912 28.538,32.727 30.581,30.962 C33.702,33.994 36.723,36.929 39.893,40.009 C39.054,40.745 38.295,41.492 37.455,42.133 C34.409,44.458 30.957,45.862 27.198,46.54 C26.848,46.603 26.506,46.713 26.161,46.801 L20.641,46.801 C20.257,46.705 19.877,46.586 19.489,46.516 C9.548,44.724 2.203,37.45 0.343,27.551 C0.24,27.005 0.115,26.463 0,25.92 L0,20.64 C0.13,20.099 0.27,19.561 0.388,19.018 C2.297,10.24 7.433,4.26 15.906,1.23 C17.435,0.683 19.06,0.403 20.64,0 L25.92,0 L25.92,0 Z" id="Shape"></path>
                    <path d="M116.88,39.6 C116.353,40.756 115.999,42.039 115.266,43.044 C113.134,45.969 110.13,47.048 106.612,46.413 C102.955,45.752 100.595,43.527 99.748,39.893 C98.794,35.798 101.362,31.604 105.542,30.224 C110.057,28.733 114.784,31.02 116.45,35.495 C116.575,35.83 116.736,36.152 116.88,36.48 L116.88,39.6 L116.88,39.6 Z" id="Shape"></path>
                    <path d="M116.88,11.52 C116.71,11.923 116.529,12.322 116.371,12.73 C114.895,16.547 111.538,18.585 107.249,18.262 C103.624,17.989 100.459,15.174 99.72,11.567 C98.97,7.905 100.93,4.122 104.374,2.424 C109.407,-0.058 115.196,2.787 116.548,7.504 C116.636,7.809 116.768,8.102 116.88,8.4 L116.88,11.52 L116.88,11.52 Z" id="Shape"></path>
                </g>
            </g>
        </g>
    </g>
</svg>