<?xml version="1.0" encoding="UTF-8"?>
<svg width="196px" height="42px" viewBox="0 0 196 42" version="1.1" xmlns="http://www.w3.org/2000/svg" xmlns:xlink="http://www.w3.org/1999/xlink">
    <!-- Generator: Sketch 40.3 (33839) - http://www.bohemiancoding.com/sketch -->
    <title>garysguide</title>
    <desc>Created with Sketch.</desc>
    <defs></defs>
    <g id="Page-1" stroke="none" stroke-width="1" fill="none" fill-rule="evenodd">
        <g id="garysguide">
            <g id="Group">
                <rect id="Rectangle-path" fill="#E03D3E" x="0" y="0" width="195.978" height="41.995"></rect>
                <g transform="translate(14.000000, 12.000000)" id="Shape" fill="#FFFFFF">
                    <path d="M10.339,12.388 L10.339,9.175 L18.637,9.175 L18.637,16.77 C17.83,17.55 16.662,18.238 15.132,18.831 C13.602,19.425 12.051,19.722 10.483,19.722 C8.488,19.722 6.75,19.304 5.268,18.467 C3.786,17.63 2.671,16.434 1.926,14.877 C1.18,13.321 0.808,11.628 0.808,9.798 C0.808,7.813 1.224,6.048 2.056,4.505 C2.889,2.962 4.107,1.778 5.711,0.955 C6.933,0.322 8.455,0.006 10.276,0.006 C12.643,0.006 14.492,0.502 15.823,1.495 C17.154,2.487 18.01,3.86 18.392,5.611 L14.568,6.326 C14.299,5.39 13.794,4.651 13.053,4.109 C12.311,3.567 11.386,3.296 10.276,3.296 C8.594,3.296 7.257,3.829 6.264,4.895 C5.271,5.961 4.775,7.544 4.775,9.642 C4.775,11.905 5.278,13.602 6.284,14.734 C7.289,15.865 8.607,16.431 10.237,16.431 C11.044,16.431 11.852,16.273 12.663,15.956 C13.474,15.64 14.169,15.256 14.75,14.806 L14.75,12.387 L10.339,12.387 L10.339,12.388 Z"></path>
                    <path d="M37.649,19.397 L33.461,19.397 L31.797,15.066 L24.176,15.066 L22.603,19.397 L18.519,19.397 L25.945,0.332 L30.015,0.332 L37.649,19.397 L37.649,19.397 Z M30.561,11.854 L27.934,4.78 L25.359,11.854 L30.561,11.854 L30.561,11.854 Z"></path>
                    <path d="M39.73,19.397 L39.73,0.332 L47.832,0.332 C49.87,0.332 51.35,0.503 52.273,0.845 C53.196,1.188 53.935,1.797 54.49,2.673 C55.045,3.549 55.323,4.55 55.323,5.677 C55.323,7.108 54.902,8.289 54.061,9.221 C53.22,10.153 51.963,10.74 50.289,10.983 C51.122,11.468 51.808,12.001 52.35,12.582 C52.892,13.163 53.623,14.194 54.541,15.677 L56.869,19.397 L52.266,19.397 L49.483,15.248 C48.495,13.765 47.818,12.832 47.454,12.446 C47.09,12.06 46.704,11.796 46.296,11.653 C45.889,11.509 45.243,11.438 44.358,11.438 L43.578,11.438 L43.578,19.397 L39.73,19.397 L39.73,19.397 Z M43.58,8.395 L46.428,8.395 C48.274,8.395 49.427,8.317 49.887,8.161 C50.346,8.005 50.706,7.737 50.966,7.354 C51.226,6.973 51.356,6.496 51.356,5.923 C51.356,5.282 51.184,4.764 50.842,4.369 C50.5,3.975 50.016,3.725 49.392,3.621 C49.08,3.577 48.143,3.555 46.583,3.555 L43.58,3.555 L43.58,8.395 L43.58,8.395 Z"></path>
                    <polygon points="62.997 19.397 62.997 11.372 56.013 0.331 60.526 0.331 65.013 7.874 69.409 0.331 73.844 0.331 66.833 11.4 66.833 19.398 62.997 19.398"></polygon>
                    <path d="M74.22,13.194 L77.966,12.83 C78.192,14.088 78.649,15.011 79.338,15.6 C80.028,16.19 80.957,16.484 82.127,16.484 C83.367,16.484 84.301,16.222 84.93,15.697 C85.558,15.173 85.873,14.559 85.873,13.857 C85.873,13.406 85.741,13.022 85.477,12.706 C85.212,12.39 84.75,12.114 84.092,11.88 C83.641,11.723 82.614,11.446 81.009,11.047 C78.945,10.536 77.498,9.907 76.665,9.161 C75.495,8.112 74.91,6.833 74.91,5.324 C74.91,4.353 75.185,3.445 75.736,2.599 C76.286,1.753 77.08,1.11 78.116,0.667 C79.152,0.225 80.402,0.004 81.868,0.004 C84.261,0.004 86.062,0.529 87.272,1.577 C88.481,2.626 89.116,4.027 89.177,5.778 L85.327,5.947 C85.162,4.968 84.809,4.263 84.267,3.834 C83.726,3.405 82.912,3.191 81.829,3.191 C80.711,3.191 79.834,3.421 79.202,3.88 C78.795,4.175 78.591,4.569 78.591,5.064 C78.591,5.514 78.782,5.901 79.163,6.221 C79.649,6.628 80.828,7.054 82.701,7.496 C84.574,7.938 85.959,8.396 86.856,8.868 C87.753,9.34 88.455,9.986 88.963,10.806 C89.471,11.626 89.724,12.638 89.724,13.843 C89.724,14.935 89.421,15.958 88.814,16.912 C88.207,17.866 87.349,18.574 86.239,19.038 C85.129,19.501 83.746,19.734 82.09,19.734 C79.68,19.734 77.829,19.177 76.537,18.063 C75.243,16.95 74.471,15.327 74.22,13.194 L74.22,13.194 Z"></path>
                    <path d="M101.271,12.388 L101.271,9.175 L109.568,9.175 L109.568,16.77 C108.761,17.55 107.593,18.238 106.063,18.831 C104.533,19.425 102.983,19.722 101.414,19.722 C99.42,19.722 97.682,19.304 96.199,18.467 C94.716,17.63 93.602,16.434 92.857,14.877 C92.111,13.321 91.738,11.628 91.738,9.798 C91.738,7.813 92.154,6.048 92.987,4.505 C93.82,2.962 95.038,1.778 96.641,0.955 C97.864,0.322 99.385,0.006 101.206,0.006 C103.573,0.006 105.421,0.502 106.753,1.495 C108.084,2.487 108.94,3.86 109.322,5.611 L105.498,6.326 C105.229,5.39 104.724,4.651 103.983,4.109 C103.242,3.567 102.316,3.296 101.207,3.296 C99.525,3.296 98.187,3.829 97.195,4.895 C96.203,5.961 95.706,7.544 95.706,9.642 C95.706,11.905 96.208,13.602 97.215,14.734 C98.22,15.865 99.538,16.431 101.168,16.431 C101.974,16.431 102.782,16.273 103.593,15.956 C104.404,15.64 105.099,15.256 105.68,14.806 L105.68,12.387 L101.271,12.387 L101.271,12.388 Z"></path>
                    <path d="M111.92,0.332 L115.77,0.332 L115.77,10.658 C115.77,12.296 115.817,13.359 115.913,13.845 C116.078,14.625 116.47,15.252 117.09,15.724 C117.71,16.196 118.558,16.433 119.633,16.433 C120.725,16.433 121.549,16.209 122.104,15.763 C122.658,15.317 122.993,14.768 123.105,14.118 C123.217,13.468 123.274,12.389 123.274,10.879 L123.274,0.332 L127.124,0.332 L127.124,10.346 C127.124,12.635 127.02,14.252 126.812,15.197 C126.604,16.142 126.221,16.94 125.661,17.59 C125.102,18.241 124.354,18.759 123.418,19.144 C122.482,19.53 121.259,19.723 119.751,19.723 C117.93,19.723 116.549,19.512 115.609,19.092 C114.668,18.672 113.925,18.126 113.379,17.453 C112.833,16.782 112.473,16.077 112.299,15.34 C112.047,14.247 111.922,12.635 111.922,10.502 L111.922,0.332 L111.92,0.332 Z"></path>
                    <polygon points="129.892 19.397 129.892 0.332 133.742 0.332 133.742 19.397 129.892 19.397"></polygon>
                    <path d="M136.224,0.332 L143.26,0.332 C144.846,0.332 146.056,0.454 146.888,0.696 C148.006,1.025 148.965,1.611 149.762,2.451 C150.56,3.292 151.167,4.322 151.583,5.54 C151.999,6.758 152.207,8.26 152.207,10.046 C152.207,11.615 152.012,12.968 151.622,14.103 C151.145,15.491 150.465,16.613 149.58,17.471 C148.912,18.121 148.011,18.628 146.875,18.993 C146.025,19.262 144.889,19.396 143.468,19.396 L136.224,19.396 L136.224,0.332 L136.224,0.332 Z M140.073,3.557 L140.073,16.185 L142.947,16.185 C144.022,16.185 144.798,16.125 145.275,16.003 C145.899,15.847 146.417,15.583 146.829,15.209 C147.24,14.836 147.577,14.223 147.837,13.369 C148.097,12.515 148.227,11.351 148.227,9.877 C148.227,8.403 148.097,7.272 147.837,6.483 C147.577,5.694 147.213,5.079 146.745,4.637 C146.277,4.195 145.683,3.895 144.963,3.74 C144.426,3.618 143.372,3.558 141.803,3.558 L140.073,3.558 L140.073,3.557 Z"></path>
                    <polygon points="154.299 19.397 154.299 0.332 168.436 0.332 168.436 3.557 158.149 3.557 158.149 7.784 167.721 7.784 167.721 10.997 158.149 10.997 158.149 16.186 168.8 16.186 168.8 19.399 154.299 19.399"></polygon>
                </g>
            </g>
        </g>
    </g>
</svg>