<?xml version="1.0" encoding="UTF-8"?>
<svg width="173px" height="46px" viewBox="0 0 173 46" version="1.1" xmlns="http://www.w3.org/2000/svg" xmlns:xlink="http://www.w3.org/1999/xlink">
    <!-- Generator: Sketch 40.3 (33839) - http://www.bohemiancoding.com/sketch -->
    <title>rooneypc</title>
    <desc>Created with Sketch.</desc>
    <defs></defs>
    <g id="Page-1" stroke="none" stroke-width="1" fill="none" fill-rule="evenodd">
        <g id="rooneypc">
            <g id="Group">
                <g id="Shape">
                    <g>
                        <path d="M0,24.137 L0,0.405 L10.086,0.405 C12.622,0.405 14.464,0.618 15.614,1.044 C16.764,1.47 17.684,2.228 18.375,3.319 C19.065,4.409 19.41,5.656 19.41,7.058 C19.41,8.839 18.887,10.309 17.84,11.469 C16.793,12.63 15.228,13.361 13.146,13.662 C14.181,14.267 15.037,14.93 15.712,15.653 C16.386,16.376 17.295,17.661 18.44,19.506 L21.337,24.136 L15.606,24.136 L12.141,18.972 C10.911,17.127 10.069,15.964 9.616,15.483 C9.163,15.004 8.682,14.674 8.176,14.496 C7.668,14.318 6.864,14.229 5.764,14.229 L4.792,14.229 L4.792,24.136 L0,24.136 L0,24.137 Z M4.792,10.442 L8.337,10.442 C10.636,10.442 12.071,10.345 12.644,10.151 C13.215,9.957 13.664,9.622 13.987,9.147 C14.311,8.672 14.473,8.079 14.473,7.366 C14.473,6.567 14.259,5.923 13.833,5.432 C13.407,4.941 12.805,4.63 12.028,4.5 C11.639,4.447 10.474,4.42 8.531,4.42 L4.792,4.42 L4.792,10.442 L4.792,10.442 Z" fill="#0546B3"></path>
                        <path d="M22.842,15.298 C22.842,13.787 23.215,12.324 23.96,10.911 C24.704,9.497 25.759,8.418 27.125,7.673 C28.49,6.928 30.015,6.555 31.698,6.555 C34.299,6.555 36.431,7.4 38.093,9.089 C39.755,10.778 40.586,12.912 40.586,15.492 C40.586,18.092 39.747,20.248 38.069,21.959 C36.391,23.669 34.278,24.525 31.731,24.525 C30.155,24.525 28.652,24.168 27.222,23.457 C25.792,22.745 24.705,21.7 23.96,20.324 C23.215,18.949 22.842,17.273 22.842,15.298 L22.842,15.298 Z M27.504,15.541 C27.504,17.246 27.909,18.552 28.718,19.458 C29.527,20.365 30.526,20.818 31.713,20.818 C32.9,20.818 33.896,20.365 34.7,19.458 C35.503,18.552 35.906,17.236 35.906,15.508 C35.906,13.825 35.504,12.53 34.7,11.624 C33.896,10.717 32.9,10.264 31.713,10.264 C30.526,10.264 29.527,10.717 28.718,11.624 C27.909,12.53 27.504,13.836 27.504,15.541 L27.504,15.541 Z" fill="#0546B3"></path>
                        <path d="M43.094,15.298 C43.094,13.787 43.467,12.324 44.212,10.911 C44.956,9.497 46.011,8.418 47.377,7.673 C48.742,6.928 50.267,6.555 51.95,6.555 C54.551,6.555 56.683,7.4 58.345,9.089 C60.007,10.778 60.838,12.912 60.838,15.492 C60.838,18.092 59.999,20.248 58.321,21.959 C56.643,23.669 54.53,24.525 51.983,24.525 C50.407,24.525 48.904,24.168 47.474,23.457 C46.044,22.745 44.957,21.7 44.212,20.324 C43.467,18.949 43.094,17.273 43.094,15.298 L43.094,15.298 Z M47.756,15.541 C47.756,17.246 48.161,18.552 48.97,19.458 C49.779,20.365 50.778,20.818 51.965,20.818 C53.152,20.818 54.148,20.365 54.952,19.458 C55.755,18.552 56.158,17.236 56.158,15.508 C56.158,13.825 55.756,12.53 54.952,11.624 C54.148,10.717 53.152,10.264 51.965,10.264 C50.778,10.264 49.779,10.717 48.97,11.624 C48.161,12.53 47.756,13.836 47.756,15.541 L47.756,15.541 Z" fill="#0546B3"></path>
                        <path d="M80.036,24.137 L75.488,24.137 L75.488,15.363 C75.488,13.507 75.39,12.306 75.196,11.761 C75.002,11.216 74.687,10.792 74.25,10.49 C73.813,10.188 73.286,10.037 72.671,10.037 C71.883,10.037 71.176,10.254 70.55,10.685 C69.925,11.117 69.495,11.688 69.263,12.401 C69.031,13.113 68.915,14.43 68.915,16.351 L68.915,24.138 L64.366,24.138 L64.366,6.945 L68.592,6.945 L68.592,9.47 C70.092,7.528 71.98,6.556 74.258,6.556 C75.261,6.556 76.179,6.737 77.01,7.098 C77.84,7.46 78.47,7.921 78.896,8.482 C79.322,9.043 79.619,9.68 79.786,10.392 C79.953,11.104 80.036,12.124 80.036,13.452 L80.036,24.137 L80.036,24.137 Z" fill="#0546B3"></path>
                        <path d="M94.606,18.665 L99.138,19.426 C98.556,21.088 97.636,22.353 96.378,23.222 C95.121,24.091 93.547,24.525 91.659,24.525 C88.669,24.525 86.457,23.549 85.021,21.595 C83.888,20.03 83.322,18.055 83.322,15.67 C83.322,12.821 84.066,10.59 85.556,8.976 C87.045,7.363 88.928,6.555 91.206,6.555 C93.764,6.555 95.781,7.4 97.261,9.089 C98.739,10.778 99.447,13.366 99.382,16.851 L87.985,16.851 C88.017,18.201 88.383,19.25 89.085,20 C89.787,20.751 90.661,21.125 91.708,21.125 C92.42,21.125 93.019,20.931 93.505,20.542 C93.99,20.155 94.358,19.529 94.606,18.665 L94.606,18.665 Z M94.864,14.068 C94.832,12.751 94.492,11.751 93.844,11.065 C93.197,10.38 92.409,10.036 91.481,10.036 C90.487,10.036 89.667,10.399 89.02,11.121 C88.372,11.844 88.054,12.826 88.065,14.068 L94.864,14.068 L94.864,14.068 Z" fill="#0546B3"></path>
                        <path d="M100.935,6.945 L105.775,6.945 L109.887,19.151 L113.902,6.945 L118.613,6.945 L112.542,23.489 L111.457,26.484 C111.058,27.487 110.677,28.254 110.315,28.783 C109.953,29.312 109.539,29.741 109.069,30.07 C108.599,30.4 108.022,30.656 107.337,30.84 C106.652,31.023 105.877,31.115 105.014,31.115 C104.14,31.115 103.282,31.023 102.441,30.84 L102.036,27.279 C102.748,27.419 103.39,27.489 103.963,27.489 C105.021,27.489 105.803,27.179 106.31,26.558 C106.817,25.937 107.205,25.148 107.475,24.187 L100.935,6.945 L100.935,6.945 Z" fill="#0546B3"></path>
                        <path d="M130.77,24.137 L130.77,0.405 L138.46,0.405 C141.374,0.405 143.273,0.524 144.158,0.761 C145.518,1.117 146.656,1.892 147.574,3.084 C148.49,4.277 148.95,5.818 148.95,7.706 C148.95,9.163 148.685,10.388 148.156,11.381 C147.627,12.375 146.955,13.154 146.14,13.72 C145.325,14.286 144.498,14.662 143.656,14.845 C142.512,15.071 140.855,15.185 138.686,15.185 L135.562,15.185 L135.562,24.137 L130.77,24.137 L130.77,24.137 Z M135.562,4.42 L135.562,11.154 L138.185,11.154 C140.073,11.154 141.337,11.03 141.973,10.782 C142.61,10.534 143.109,10.145 143.47,9.616 C143.832,9.087 144.012,8.472 144.012,7.771 C144.012,6.908 143.759,6.195 143.251,5.635 C142.744,5.073 142.102,4.722 141.325,4.582 C140.753,4.475 139.603,4.421 137.877,4.421 L135.562,4.421 L135.562,4.42 Z" fill="#3580ED"></path>
                        <path d="M168.069,15.411 L172.715,16.884 C172.003,19.474 170.818,21.398 169.161,22.655 C167.504,23.912 165.402,24.541 162.856,24.541 C159.704,24.541 157.115,23.464 155.085,21.311 C153.056,19.158 152.042,16.214 152.042,12.48 C152.042,8.53 153.062,5.463 155.102,3.277 C157.143,1.092 159.824,0 163.148,0 C166.051,0 168.41,0.858 170.222,2.574 C171.301,3.588 172.111,5.045 172.65,6.945 L167.906,8.078 C167.626,6.847 167.041,5.877 166.15,5.164 C165.259,4.451 164.177,4.096 162.904,4.096 C161.145,4.096 159.718,4.727 158.622,5.99 C157.527,7.253 156.979,9.298 156.979,12.126 C156.979,15.126 157.518,17.263 158.598,18.536 C159.677,19.809 161.08,20.446 162.807,20.446 C164.08,20.446 165.175,20.041 166.093,19.232 C167.012,18.423 167.67,17.15 168.069,15.411 L168.069,15.411 Z" fill="#3580ED"></path>
                    </g>
                    <g transform="translate(23.000000, 36.000000)" fill="#C6CBCF">
                        <polygon points="0.431 9.414 0.431 0.527 1.637 0.527 6.304 7.505 6.304 0.527 7.431 0.527 7.431 9.414 6.225 9.414 1.558 2.43 1.558 9.414"></polygon>
                        <polygon points="8.85 9.414 8.85 0.527 15.275 0.527 15.275 1.576 10.026 1.576 10.026 4.298 14.943 4.298 14.943 5.34 10.026 5.34 10.026 8.365 15.482 8.365 15.482 9.414"></polygon>
                        <path d="M18.074,9.414 L15.716,0.527 L16.922,0.527 L18.274,6.352 C18.42,6.963 18.545,7.569 18.65,8.171 C18.876,7.221 19.01,6.674 19.05,6.528 L20.741,0.527 L22.159,0.527 L23.432,5.025 C23.752,6.141 23.982,7.189 24.123,8.172 C24.236,7.61 24.384,6.966 24.566,6.238 L25.96,0.528 L27.142,0.528 L24.705,9.415 L23.572,9.415 L21.698,2.644 C21.54,2.078 21.447,1.73 21.42,1.601 C21.326,2.01 21.24,2.357 21.159,2.644 L19.274,9.415 L18.074,9.415 L18.074,9.414 Z"></path>
                        <path d="M32.801,9.414 L32.801,5.65 L29.377,0.527 L30.808,0.527 L32.56,3.207 C32.883,3.708 33.185,4.209 33.463,4.71 C33.73,4.245 34.053,3.722 34.434,3.14 L36.155,0.527 L37.526,0.527 L33.979,5.65 L33.979,9.414 L32.801,9.414 L32.801,9.414 Z"></path>
                        <path d="M37.638,5.086 C37.638,3.611 38.033,2.456 38.826,1.621 C39.618,0.787 40.641,0.369 41.892,0.369 C42.714,0.369 43.452,0.565 44.112,0.958 C44.77,1.35 45.272,1.897 45.618,2.598 C45.964,3.299 46.136,4.094 46.136,4.983 C46.136,5.884 45.954,6.69 45.591,7.402 C45.228,8.114 44.711,8.652 44.045,9.017 C43.378,9.383 42.659,9.566 41.886,9.566 C41.05,9.566 40.303,9.364 39.643,8.96 C38.985,8.556 38.485,8.004 38.147,7.305 C37.807,6.605 37.638,5.866 37.638,5.086 L37.638,5.086 Z M38.85,5.104 C38.85,6.174 39.138,7.018 39.713,7.635 C40.289,8.251 41.012,8.559 41.88,8.559 C42.766,8.559 43.493,8.248 44.065,7.625 C44.637,7.002 44.923,6.12 44.923,4.976 C44.923,4.253 44.801,3.621 44.556,3.081 C44.312,2.542 43.955,2.124 43.484,1.826 C43.013,1.529 42.484,1.38 41.899,1.38 C41.067,1.38 40.35,1.666 39.75,2.238 C39.151,2.811 38.85,3.766 38.85,5.104 L38.85,5.104 Z"></path>
                        <path d="M47.086,9.414 L47.086,0.527 L51.026,0.527 C51.818,0.527 52.42,0.607 52.833,0.767 C53.245,0.927 53.574,1.209 53.821,1.613 C54.067,2.017 54.19,2.464 54.19,2.953 C54.19,3.583 53.986,4.114 53.578,4.547 C53.169,4.979 52.539,5.254 51.686,5.372 C51.997,5.521 52.234,5.669 52.396,5.814 C52.74,6.129 53.065,6.524 53.372,6.996 L54.917,9.415 L53.438,9.415 L52.262,7.566 C51.919,7.033 51.636,6.624 51.413,6.342 C51.191,6.059 50.992,5.861 50.816,5.747 C50.641,5.634 50.462,5.556 50.28,5.511 C50.147,5.483 49.928,5.468 49.625,5.468 L48.262,5.468 L48.262,9.414 L47.086,9.414 L47.086,9.414 Z M48.263,4.449 L50.79,4.449 C51.327,4.449 51.748,4.394 52.051,4.283 C52.355,4.172 52.585,3.994 52.743,3.749 C52.9,3.504 52.979,3.239 52.979,2.952 C52.979,2.531 52.826,2.185 52.521,1.915 C52.216,1.644 51.734,1.509 51.076,1.509 L48.264,1.509 L48.264,4.449 L48.263,4.449 Z"></path>
                        <polygon points="55.401 9.414 55.401 0.527 56.578 0.527 56.578 4.934 60.991 0.527 62.585 0.527 58.857 4.128 62.748 9.414 61.197 9.414 58.032 4.916 56.577 6.335 56.577 9.414"></polygon>
                        <polygon points="83.159 9.414 83.159 0.527 84.335 0.527 84.335 8.365 88.711 8.365 88.711 9.414"></polygon>
                        <path d="M89.171,5.086 C89.171,3.611 89.567,2.456 90.359,1.621 C91.151,0.787 92.174,0.369 93.426,0.369 C94.246,0.369 94.986,0.565 95.645,0.958 C96.303,1.35 96.806,1.897 97.151,2.598 C97.496,3.299 97.669,4.094 97.669,4.983 C97.669,5.884 97.487,6.69 97.124,7.402 C96.76,8.114 96.245,8.652 95.578,9.017 C94.911,9.383 94.192,9.566 93.42,9.566 C92.583,9.566 91.835,9.364 91.177,8.96 C90.518,8.556 90.019,8.004 89.679,7.305 C89.341,6.605 89.171,5.866 89.171,5.086 L89.171,5.086 Z M90.383,5.104 C90.383,6.174 90.671,7.018 91.247,7.635 C91.822,8.251 92.544,8.559 93.413,8.559 C94.298,8.559 95.026,8.248 95.599,7.625 C96.17,7.002 96.456,6.12 96.456,4.976 C96.456,4.253 96.333,3.621 96.09,3.081 C95.844,2.542 95.487,2.124 95.017,1.826 C94.545,1.529 94.017,1.38 93.432,1.38 C92.6,1.38 91.883,1.666 91.283,2.238 C90.683,2.811 90.383,3.766 90.383,5.104 L90.383,5.104 Z"></path>
                        <polygon points="98.588 9.414 98.588 0.527 99.794 0.527 104.462 7.505 104.462 0.527 105.589 0.527 105.589 9.414 104.383 9.414 99.715 2.43 99.715 9.414"></polygon>
                        <path d="M106.983,9.414 L106.983,0.527 L110.044,0.527 C110.735,0.527 111.263,0.57 111.627,0.655 C112.136,0.772 112.571,0.985 112.93,1.291 C113.399,1.687 113.749,2.194 113.982,2.81 C114.215,3.427 114.331,4.131 114.331,4.923 C114.331,5.598 114.252,6.195 114.094,6.717 C113.936,7.238 113.734,7.669 113.488,8.01 C113.241,8.352 112.972,8.621 112.679,8.816 C112.386,9.012 112.032,9.161 111.619,9.262 C111.204,9.364 110.729,9.414 110.191,9.414 L106.983,9.414 L106.983,9.414 Z M108.159,8.365 L110.057,8.365 C110.643,8.365 111.102,8.311 111.437,8.202 C111.77,8.093 112.035,7.939 112.234,7.741 C112.512,7.463 112.73,7.087 112.886,6.617 C113.042,6.146 113.12,5.576 113.12,4.905 C113.12,3.975 112.967,3.261 112.662,2.762 C112.357,2.263 111.986,1.929 111.55,1.759 C111.235,1.638 110.727,1.577 110.028,1.577 L108.16,1.577 L108.16,8.365 L108.159,8.365 Z"></path>
                        <path d="M115.007,5.086 C115.007,3.611 115.403,2.456 116.196,1.621 C116.987,0.787 118.01,0.369 119.262,0.369 C120.083,0.369 120.822,0.565 121.482,0.958 C122.139,1.35 122.642,1.897 122.988,2.598 C123.333,3.299 123.506,4.094 123.506,4.983 C123.506,5.884 123.324,6.69 122.961,7.402 C122.597,8.114 122.081,8.652 121.414,9.017 C120.747,9.383 120.028,9.566 119.256,9.566 C118.419,9.566 117.672,9.364 117.013,8.96 C116.354,8.556 115.855,8.004 115.516,7.305 C115.177,6.605 115.007,5.866 115.007,5.086 L115.007,5.086 Z M116.22,5.104 C116.22,6.174 116.508,7.018 117.084,7.635 C117.66,8.251 118.382,8.559 119.251,8.559 C120.136,8.559 120.863,8.248 121.436,7.625 C122.008,7.002 122.294,6.12 122.294,4.976 C122.294,4.253 122.171,3.621 121.927,3.081 C121.682,2.542 121.325,2.124 120.854,1.826 C120.383,1.529 119.854,1.38 119.269,1.38 C118.438,1.38 117.72,1.666 117.121,2.238 C116.52,2.811 116.22,3.766 116.22,5.104 L116.22,5.104 Z"></path>
                        <polygon points="124.426 9.414 124.426 0.527 125.632 0.527 130.3 7.505 130.3 0.527 131.427 0.527 131.427 9.414 130.221 9.414 125.554 2.43 125.554 9.414"></polygon>
                    </g>
                </g>
                <circle id="Oval" fill="#C6CBCF" cx="95.409" cy="40.464" r="1.897"></circle>
            </g>
        </g>
    </g>
</svg>