<?xml version="1.0" encoding="UTF-8"?>
<svg width="200px" height="37px" viewBox="0 0 200 37" version="1.1" xmlns="http://www.w3.org/2000/svg" xmlns:xlink="http://www.w3.org/1999/xlink">
    <!-- Generator: Sketch 40.3 (33839) - http://www.bohemiancoding.com/sketch -->
    <title>shesays</title>
    <desc>Created with Sketch.</desc>
    <defs></defs>
    <g id="Page-1" stroke="none" stroke-width="1" fill="none" fill-rule="evenodd">
        <g id="shesays" fill="#000000">
            <g id="uOByLJ.tif_1_">
                <g id="Group">
                    <path d="M199.353,17.607 C199.253,17.941 199.142,18.271 199.056,18.608 C198.278,21.675 196.5,24.077 194.114,26.082 C192.179,27.708 189.984,28.889 187.615,29.858 C187.365,32.524 186.506,34.861 183.861,36.425 C184.135,34.537 184.623,32.802 184.066,31.12 C182.072,31.36 180.14,31.68 178.195,31.809 C173.049,32.148 168.078,31.358 163.364,29.205 C160.363,27.834 157.715,25.978 155.71,23.312 C152.042,18.434 152.29,12.465 156.324,7.873 C158.668,5.205 161.59,3.397 164.868,2.124 C167.787,0.99 170.815,0.344 173.942,0.161 C174.255,0.143 174.564,0.055 174.874,-2.19269047e-15 L177.665,-2.19269047e-15 C178.751,0.135 179.839,0.256 180.923,0.408 C184.666,0.933 188.213,2.045 191.464,4.005 C194.357,5.749 196.791,7.962 198.227,11.083 C198.711,12.134 198.983,13.283 199.352,14.387 C199.353,15.46 199.353,16.534 199.353,17.607 L199.353,17.607 Z" id="Shape"></path>
                    <path d="M25.271,32.623 L20.295,32.623 L20.295,5.211 L25.207,5.211 C25.266,6.362 25.226,7.564 25.233,8.762 C25.24,10.014 25.235,11.266 25.235,12.518 L25.235,16.197 L36.729,16.197 C36.761,14.379 36.74,12.571 36.744,10.764 C36.748,8.942 36.745,7.12 36.745,5.215 L41.714,5.215 L41.714,32.602 L36.758,32.602 L36.758,20.686 L25.271,20.686 C25.271,24.631 25.271,28.579 25.271,32.623 L25.271,32.623 Z" id="Shape"></path>
                    <path d="M51.489,9.27 L51.489,16.291 C54.842,16.306 58.219,16.289 61.715,16.3 C61.846,17.647 61.747,18.952 61.78,20.363 L51.51,20.363 L51.51,28.477 L62.967,28.477 L62.967,32.527 C62.154,32.75 49.092,32.844 46.604,32.647 C46.359,31.911 46.252,7.333 46.485,5.261 C47.265,5.044 61.109,5.001 62.327,5.223 L62.327,9.27 L51.489,9.27 L51.489,9.27 Z" id="Shape"></path>
                    <path d="M0,31.408 C0.387,29.959 0.75,28.598 1.093,27.311 C2.61,27.786 3.981,28.291 5.39,28.635 C6.638,28.94 7.934,29.058 9.217,28.761 C9.735,28.641 10.269,28.516 10.742,28.284 C13.069,27.148 13.455,24.095 11.397,22.524 C10.45,21.801 9.308,21.297 8.196,20.831 C6.546,20.138 4.908,19.459 3.441,18.398 C-0.77,15.357 -0.371,9.214 3.752,6.433 C5.21,5.45 6.837,4.914 8.563,4.751 C10.748,4.544 12.923,4.667 15.033,5.353 C15.605,5.539 16.159,5.78 16.824,6.036 C16.412,7.421 16.02,8.736 15.599,10.15 C15.234,10.017 14.945,9.921 14.663,9.809 C12.772,9.057 10.83,8.68 8.793,9.025 C7.929,9.169 7.145,9.49 6.513,10.122 C5.334,11.301 5.275,13.107 6.496,14.237 C7.138,14.832 7.927,15.305 8.717,15.695 C9.964,16.31 11.277,16.791 12.546,17.363 C13.826,17.94 15.014,18.676 15.977,19.711 C19.339,23.327 18.252,29.344 13.812,31.714 C12.077,32.641 10.211,33.035 8.249,33.1 C5.859,33.179 3.546,32.851 1.309,32.008 C0.885,31.848 0.483,31.631 0,31.408 L0,31.408 Z" id="Shape"></path>
                    <path d="M95.292,4.958 L99.76,4.958 C102.895,14.115 106.035,23.289 109.236,32.642 C107.866,32.671 106.61,32.664 105.28,32.642 C104.288,29.717 103.306,26.818 102.316,23.899 L92.572,23.899 C91.621,26.789 90.675,29.663 89.712,32.589 L85.879,32.589 C89.028,23.347 92.144,14.199 95.292,4.958 L95.292,4.958 Z M101.488,20.986 C100.096,16.772 98.746,12.686 97.427,8.692 C96.109,12.723 94.766,16.829 93.406,20.986 L101.488,20.986 L101.488,20.986 Z" id="Shape"></path>
                    <path d="M67.733,31.319 C68.055,30.272 68.347,29.322 68.671,28.268 C69.112,28.479 69.484,28.667 69.865,28.838 C72.167,29.874 74.549,30.396 77.062,29.821 C79.893,29.173 81.361,26.703 80.585,23.967 C80.288,22.92 79.659,22.077 78.745,21.543 C77.609,20.88 76.414,20.306 75.203,19.787 C73.786,19.18 72.379,18.573 71.152,17.619 C69.905,16.649 68.979,15.452 68.565,13.903 C67.741,10.818 68.961,7.71 71.657,5.973 C72.885,5.182 74.239,4.721 75.67,4.567 C78.082,4.307 80.455,4.52 82.729,5.44 C82.952,5.53 83.156,5.669 83.43,5.819 C83.094,6.821 82.77,7.786 82.47,8.679 C81.152,8.315 79.934,7.918 78.688,7.651 C77.562,7.41 76.41,7.45 75.287,7.763 C73.597,8.235 72.431,9.263 72.127,11.037 C71.84,12.711 72.452,14.119 73.861,15.025 C75.023,15.773 76.299,16.362 77.568,16.922 C79.142,17.617 80.709,18.302 82.031,19.437 C83.61,20.793 84.438,22.502 84.502,24.587 C84.538,25.778 84.443,26.943 83.983,28.059 C82.978,30.495 81.093,31.942 78.627,32.611 C75.193,33.542 71.826,33.19 68.565,31.788 C68.307,31.678 68.073,31.513 67.733,31.319 L67.733,31.319 Z" id="Shape"></path>
                    <path d="M130.854,31.336 C131.184,30.266 131.476,29.317 131.8,28.267 C132.243,28.479 132.616,28.669 132.998,28.84 C135.266,29.855 137.61,30.385 140.09,29.836 C142.075,29.397 143.463,28.27 143.826,26.187 C144.182,24.146 143.453,22.497 141.689,21.421 C140.629,20.775 139.475,20.268 138.327,19.783 C136.907,19.183 135.52,18.545 134.273,17.62 C130.21,14.607 130.636,8.487 134.881,5.91 C136.031,5.212 137.269,4.768 138.595,4.602 C141.12,4.286 143.589,4.506 145.961,5.488 C146.151,5.567 146.322,5.688 146.56,5.822 C146.223,6.824 145.899,7.788 145.574,8.753 C144.649,8.438 143.822,8.108 142.968,7.876 C141.502,7.478 140.012,7.36 138.517,7.743 C136.771,8.19 135.572,9.224 135.257,11.043 C134.958,12.767 135.635,14.18 137.079,15.097 C138.216,15.819 139.464,16.383 140.703,16.925 C142.28,17.615 143.845,18.304 145.166,19.441 C146.744,20.799 147.57,22.508 147.632,24.593 C147.667,25.785 147.573,26.95 147.11,28.065 C146.083,30.539 144.161,31.981 141.647,32.639 C138.281,33.52 134.984,33.186 131.79,31.823 C131.498,31.7 131.226,31.532 130.854,31.336 L130.854,31.336 Z" id="Shape"></path>
                    <path d="M108.32,4.968 L112.529,4.968 C114.733,9.32 116.94,13.679 119.14,18.024 C121.39,13.669 123.647,9.302 125.891,4.957 L130.107,4.957 C129.852,5.417 129.66,5.782 129.452,6.138 C126.761,10.732 124.079,15.332 121.362,19.911 C120.942,20.618 120.763,21.315 120.772,22.133 C120.805,25.209 120.785,28.286 120.785,31.362 L120.785,32.591 L117.091,32.591 L117.091,31.434 C117.091,28.214 117.083,24.995 117.099,21.775 C117.102,21.22 116.973,20.742 116.704,20.255 C114.072,15.504 111.458,10.744 108.841,5.985 C108.673,5.678 108.522,5.363 108.32,4.968 L108.32,4.968 Z" id="Shape"></path>
                </g>
            </g>
        </g>
    </g>
</svg>