<?xml version="1.0" encoding="UTF-8"?>
<svg width="222px" height="46px" viewBox="0 0 222 46" version="1.1" xmlns="http://www.w3.org/2000/svg" xmlns:xlink="http://www.w3.org/1999/xlink">
    <!-- Generator: Sketch 40.3 (33839) - http://www.bohemiancoding.com/sketch -->
    <title>smart-design</title>
    <desc>Created with Sketch.</desc>
    <defs></defs>
    <g id="Page-1" stroke="none" stroke-width="1" fill="none" fill-rule="evenodd">
        <g id="smart-design" fill="#F37321">
            <g id="Group">
                <path d="M39.086,26.326 C37.854,24.422 36.663,22.582 35.472,20.741 C35.4,20.759 35.328,20.777 35.256,20.795 L35.256,29.916 L32.715,29.916 L32.715,15.986 L35.404,15.986 C36.597,17.879 37.832,19.839 39.099,21.851 C40.372,19.843 41.613,17.887 42.84,15.95 L45.49,15.95 L45.49,29.894 L42.975,29.894 L42.975,20.842 C42.894,20.801 42.813,20.76 42.731,20.719 C41.535,22.56 40.337,24.402 39.086,26.326 L39.086,26.326 Z" id="Shape"></path>
                <path d="M209.601,15.938 L212.443,15.938 C214.405,18.829 216.355,21.701 218.304,24.573 C218.388,24.559 218.472,24.544 218.555,24.53 L218.555,15.98 L221.468,15.98 L221.468,29.906 L218.609,29.906 C216.666,27.06 214.696,24.175 212.726,21.289 C212.636,21.313 212.545,21.337 212.455,21.361 L212.455,29.921 L209.6,29.921 C209.601,25.275 209.601,20.666 209.601,15.938 L209.601,15.938 Z" id="Shape"></path>
                <path d="M128.739,15.798 C131.087,15.91 133.357,15.85 135.575,16.164 C138.804,16.62 140.764,18.849 140.916,22.093 C140.976,23.364 140.845,24.721 140.447,25.921 C139.548,28.625 137.284,29.665 134.661,29.882 C132.727,30.042 130.769,29.913 128.739,29.913 C128.739,25.276 128.739,20.666 128.739,15.798 L128.739,15.798 Z M131.77,27.381 C133.842,27.45 135.939,27.739 137.165,25.656 C138.204,23.891 138.226,21.964 137.145,20.208 C135.897,18.179 133.836,18.368 131.77,18.504 L131.77,27.381 L131.77,27.381 Z" id="Shape"></path>
                <path d="M74.557,24.794 L74.557,27.363 L74.557,29.867 L71.553,29.867 L71.553,15.823 L78.506,15.823 C81.299,15.823 82.728,17.714 82.995,19.43 C83.344,21.672 82.399,23.336 80.848,24.092 C80.782,24.124 80.171,24.358 79.914,24.421 L83.146,29.861 L79.861,29.861 L77.002,24.794 L74.557,24.794 L74.557,24.794 Z M74.611,22.392 L77.086,22.392 C77.468,22.392 78.095,22.367 78.466,22.318 C79.458,22.186 80.028,21.312 79.979,20.322 C79.933,19.381 79.329,18.571 78.392,18.498 C77.156,18.401 75.906,18.474 74.61,18.474 C74.611,19.824 74.611,22.392 74.611,22.392 L74.611,22.392 Z" id="Shape"></path>
                <path d="M199.893,24.243 L196.828,24.243 L196.828,22.188 L202.634,22.188 L202.634,28.503 C200.077,30.86 194.816,30.762 192.224,28.28 C189.636,25.801 189.38,20.924 191.694,18.19 C194.26,15.158 199.072,14.794 202.589,17.446 C202.088,18.095 201.587,18.744 201.043,19.449 C199.51,18.559 197.937,17.864 196.229,18.505 C195.45,18.798 194.659,19.349 194.144,19.997 C192.794,21.696 192.975,24.667 194.378,26.304 C195.553,27.675 197.791,27.976 199.893,26.968 L199.893,25.676 C199.893,25.257 199.893,24.837 199.893,24.243 L199.893,24.243 Z" id="Shape"></path>
                <path d="M150.429,27.285 L157.574,27.285 L157.574,29.904 L147.369,29.904 L147.369,15.969 L157.433,15.969 L157.433,18.597 L150.419,18.597 L150.419,21.603 L156.698,21.603 L156.698,23.972 L150.429,23.972 C150.429,25.089 150.429,26.096 150.429,27.285 L150.429,27.285 Z" id="Shape"></path>
                <path d="M56.669,15.936 L60.178,15.936 C61.846,20.55 63.513,25.163 65.222,29.889 L61.959,29.889 C61.674,29.104 61.379,28.291 61.069,27.434 L55.793,27.434 C55.517,28.215 55.228,29.032 54.92,29.903 L51.638,29.903 C53.325,25.218 54.984,20.614 56.669,15.936 L56.669,15.936 Z M58.528,19.71 C58.444,19.723 58.36,19.736 58.276,19.749 C57.729,21.431 57.183,23.113 56.619,24.849 L60.231,24.849 C59.641,23.07 59.084,21.39 58.528,19.71 L58.528,19.71 Z" id="Shape"></path>
                <path d="M16.673,28.682 C17.234,27.774 17.69,27.036 18.053,26.448 C19.418,26.814 20.652,27.207 21.915,27.453 C22.446,27.556 23.057,27.412 23.597,27.26 C24.142,27.106 24.595,26.678 24.463,26.076 C24.37,25.651 24.071,25.147 23.712,24.932 C23.136,24.587 22.437,24.445 21.785,24.231 C21.024,23.981 20.237,23.798 19.499,23.494 C17.895,22.835 17,21.641 17.009,19.865 C17.018,18.1 17.918,16.901 19.487,16.2 C21.213,15.428 23.005,15.561 24.779,15.988 C25.586,16.182 26.357,16.521 27.246,16.829 C26.839,17.684 26.488,18.422 26.179,19.071 C24.825,18.834 23.604,18.563 22.369,18.431 C21.872,18.378 21.28,18.52 20.841,18.768 C19.962,19.265 19.968,20.28 20.835,20.798 C21.317,21.086 21.889,21.229 22.43,21.407 C23.409,21.728 24.429,21.946 25.37,22.351 C27.015,23.059 27.799,24.366 27.725,26.178 C27.659,27.8 26.719,29.141 25.086,29.72 C22.176,30.752 19.462,30.061 16.673,28.682 L16.673,28.682 Z" id="Shape"></path>
                <path d="M174.021,16.839 C173.618,17.683 173.275,18.401 172.896,19.196 C172.532,19.086 172.224,18.946 171.902,18.903 C170.701,18.74 169.499,18.537 168.292,18.495 C167.654,18.473 167.117,18.938 166.998,19.608 C166.872,20.321 167.327,20.765 167.956,20.987 C168.674,21.24 169.416,21.424 170.142,21.656 C170.833,21.877 171.544,22.06 172.197,22.365 C173.822,23.123 174.607,24.426 174.494,26.232 C174.388,27.941 173.471,29.086 171.92,29.705 C170.107,30.428 168.239,30.342 166.397,29.832 C165.423,29.562 164.491,29.143 163.43,28.75 C163.983,27.825 164.43,27.08 164.818,26.432 C166.144,26.795 167.369,27.201 168.627,27.442 C169.193,27.55 169.875,27.447 170.405,27.214 C170.779,27.05 171.186,26.519 171.211,26.128 C171.235,25.742 170.892,25.168 170.541,24.96 C169.931,24.599 169.193,24.454 168.507,24.222 C167.677,23.94 166.82,23.721 166.022,23.368 C164.553,22.718 163.803,21.543 163.783,19.928 C163.763,18.318 164.501,17.126 165.898,16.38 C167.73,15.402 169.672,15.53 171.604,16.006 C172.407,16.202 173.176,16.542 174.021,16.839 L174.021,16.839 Z" id="Shape"></path>
                <path d="M100.74,18.682 L96.165,18.682 L96.165,29.907 L93.08,29.907 L93.08,18.72 L88.496,18.72 L88.496,16.001 L100.739,16.001 C100.74,16.846 100.74,17.671 100.74,18.682 L100.74,18.682 Z" id="Shape"></path>
                <path d="M180.974,15.945 L183.875,15.945 L183.875,29.889 L180.974,29.889 L180.974,15.945 L180.974,15.945 Z" id="Shape"></path>
                <path d="M112.954,4.583 L112.954,41.25 L4.583,41.25 L4.583,4.583 L112.954,4.583 L112.954,4.583 Z M117.537,0 L0,0 L0,45.834 L117.537,45.834 L117.537,0 L117.537,0 L117.537,0 Z" id="Shape"></path>
            </g>
        </g>
    </g>
</svg>