<svg id="Basics" xmlns="http://www.w3.org/2000/svg" viewBox="0 0 75 75"><title>Artboard 27 copy 3</title><path d="M69.25,36.42C68.84,35.57,59,15.67,38.31,15.67S7.78,35.57,7.37,36.42L6.85,37.5l.52,1.08c.41.85,10.23,20.75,30.94,20.75s30.53-19.9,30.94-20.75l.52-1.08ZM38.31,52.31A14.81,14.81,0,1,1,53.12,37.5,14.82,14.82,0,0,1,38.31,52.31ZM12.47,37.5a39.23,39.23,0,0,1,9.28-10.82,19.7,19.7,0,0,0,0,21.6A39.56,39.56,0,0,1,12.47,37.5ZM54.91,48.28a19.69,19.69,0,0,0,0-21.55A39.58,39.58,0,0,1,64.15,37.5,39.57,39.57,0,0,1,54.91,48.28Z" style="fill:#989cd7"/><circle cx="38.31" cy="37.5" r="6.26" style="fill:#989cd7"/></svg>