<svg xmlns="http://www.w3.org/2000/svg" viewBox="0 0 75 75"><title>Artboard 27 copy 4</title><g id="icons"><path d="M31,66v-.5c0,1.39,2.06,3.5,4.36,3.5h4A3.78,3.78,0,0,0,43,65.5V66Z" style="fill:#989cd7"/><path d="M37.52,24.46C46,24.46,50,30.85,50,34.92,50,41,45.7,46,43.53,49h-12c-2.19-3-6.48-8.18-6.48-14,0-4.11,4-10.57,12.45-10.57m0-5c-11.29,0-17.45,8.77-17.45,15.57,0,10.19,9.39,19,9.39,19H45.58S55,45.46,55,34.92c0-6.8-6.15-15.46-17.45-15.46Z" style="fill:#989cd7"/><path d="M42.81,63.58H32.25a1.5,1.5,0,1,1,0-3H42.81a1.5,1.5,0,0,1,0,3Z" style="fill:#989cd7"/><path d="M42.81,58.58H32.25a1.5,1.5,0,1,1,0-3H42.81a1.5,1.5,0,0,1,0,3Z" style="fill:#989cd7"/><path d="M37.47,14.42a1.5,1.5,0,0,1-1.5-1.5v-5a1.5,1.5,0,0,1,3,0v5A1.5,1.5,0,0,1,37.47,14.42Z" style="fill:#989cd7"/><path d="M15.36,44.25h-5a1.5,1.5,0,0,1,0-3h5a1.5,1.5,0,0,1,0,3Z" style="fill:#989cd7"/><path d="M22.82,17.79a1.5,1.5,0,0,1-1.33-.8l-2.34-4.42a1.5,1.5,0,0,1,2.65-1.41l2.34,4.42a1.5,1.5,0,0,1-1.32,2.2Z" style="fill:#989cd7"/><path d="M14.11,28.87a1.49,1.49,0,0,1-.65-.15L9,26.54a1.5,1.5,0,1,1,1.31-2.7L14.77,26a1.5,1.5,0,0,1-.65,2.85Z" style="fill:#989cd7"/><path d="M64.64,44.25h-5a1.5,1.5,0,0,1,0-3h5a1.5,1.5,0,0,1,0,3Z" style="fill:#989cd7"/><path d="M52.18,17.79a1.5,1.5,0,0,1-1.32-2.2l2.34-4.42a1.5,1.5,0,0,1,2.65,1.41L53.51,17A1.5,1.5,0,0,1,52.18,17.79Z" style="fill:#989cd7"/><path d="M60.89,28.87A1.5,1.5,0,0,1,60.24,26l4.5-2.18A1.5,1.5,0,1,1,66,26.54l-4.5,2.18A1.49,1.49,0,0,1,60.89,28.87Z" style="fill:#989cd7"/></g></svg>