<svg xmlns="http://www.w3.org/2000/svg" viewBox="0 0 75 75"><title>Artboard 27 copy 5</title><g id="icons"><path d="M28.58,14.6a5.48,5.48,0,1,1-5.48,5.48,5.49,5.49,0,0,1,5.48-5.48m0-5A10.48,10.48,0,1,0,39.07,20.09,10.48,10.48,0,0,0,28.58,9.6Z" style="fill:#989cd7"/><path d="M28.58,38.08c7.82,0,10.83,5.37,12.42,9.41a35.57,35.57,0,0,1,2.2,11.25A2,2,0,0,1,41,60.4H16.16A2,2,0,0,1,14,58.75a35.56,35.56,0,0,1,2.2-11.26c1.58-4,4.6-9.41,12.42-9.41m0-5C9,33.08,9,58.73,9,58.73a7,7,0,0,0,7.2,6.66H41a7,7,0,0,0,7.2-6.66s0-25.65-19.62-25.65Z" style="fill:#989cd7"/><circle cx="51.36" cy="31.5" r="7.84" style="fill:#989cd7"/><path d="M60.65,65.4H42.07a5.21,5.21,0,0,1-5.39-5s0-19.19,14.68-19.19S66,60.41,66,60.41A5.21,5.21,0,0,1,60.65,65.4Z" style="fill:#989cd7"/></g></svg>