<svg xmlns="http://www.w3.org/2000/svg" viewBox="0 0 75 75"><title>Artboard 27 copy 9</title><g id="icons"><path d="M67.28,24.31C67,23.22,66.25,22,65.37,22H59.57l6.9-5.71a2.61,2.61,0,0,0,.8-2.67A1.92,1.92,0,0,0,65.37,12H32a1.6,1.6,0,0,0-1.11.33l-20,17.13a2.83,2.83,0,0,0-.8,2.8A2,2,0,0,0,12,34h5.95l-7,6a3.23,3.23,0,0,0-.82,3c.25,1.09,1,2,1.92,2h5.35L10.9,50.28a2.28,2.28,0,0,0-.82,2.47c.25,1.09,1,1.24,1.92,1.24h6.26L10.9,60.37a3,3,0,0,0-.82,2.89A2,2,0,0,0,12,65H45.37a1.53,1.53,0,0,0,1.09-.21l20-16.5a2.63,2.63,0,0,0,.83-2.69A1.89,1.89,0,0,0,65.37,44h-6l7.09-5.95a3.24,3.24,0,0,0,.83-3c-.25-1.09-1-2-1.92-2H59.85l6.61-5.61A3.33,3.33,0,0,0,67.28,24.31ZM32.61,17H58.77l-14,12H18.59ZM45.37,34a1.57,1.57,0,0,0,1.11-.28L52.15,29h6.47L44.77,39H18.69L25,34s.08,0,.12,0ZM54,49h4.62L44.77,61H18.69L25,55.11c.24-.2.43-.11.58-1.11H45.37c.39,0,.77.35,1.09.08L52.88,49Zm0-11h4.62L44.77,50H18.69l6.18-5h20.5a1.94,1.94,0,0,0,1.09-.58l7-6.16A1.55,1.55,0,0,1,54,38Z" style="fill:#989cd7"/></g></svg>